<svg width="24" height="24" viewBox="0 0 24 24" fill="none" xmlns="http://www.w3.org/2000/svg">
<path opacity="0.4" d="M20.5 10.19H17.61C15.24 10.19 13.31 8.26 13.31 5.89V3C13.31 2.45 12.86 2 12.31 2H8.07C4.99 2 2.5 4 2.5 7.57V16.43C2.5 20 4.99 22 8.07 22H15.93C19.01 22 21.5 20 21.5 16.43V11.19C21.5 10.64 21.05 10.19 20.5 10.19Z" fill="#E88532"/>
<path d="M17.4378 8.06003L17.4378 8.05999H17.4299C16.3142 8.05999 15.4299 7.16615 15.4299 6.13999V2.90076C16.4236 3.89574 17.8342 5.31919 19.0777 6.57402C19.62 7.12125 20.1305 7.63642 20.5608 8.06999C19.4946 8.06993 18.3089 8.0692 17.4378 8.06003ZM20.8299 8.81999C21.3999 8.81999 21.6999 8.14999 21.2999 7.74999C20.8321 7.27896 20.2441 6.68552 19.6125 6.04817C18.2998 4.72353 16.7992 3.20922 15.7999 2.20999C15.3899 1.79999 14.6799 2.07999 14.6799 2.64999V6.13999C14.6799 7.59999 15.9199 8.80999 17.4299 8.80999C18.3798 8.81999 19.6997 8.81999 20.8296 8.81999H20.8299Z" fill="#E88532" stroke="#E88532" stroke-width="1.5"/>
<mask id="path-3-inside-1_558_133688" fill="white">
<path d="M13.5 13.75H7.5C7.09 13.75 6.75 13.41 6.75 13C6.75 12.59 7.09 12.25 7.5 12.25H13.5C13.91 12.25 14.25 12.59 14.25 13C14.25 13.41 13.91 13.75 13.5 13.75Z"/>
</mask>
<path d="M13.5 13.75H7.5C7.09 13.75 6.75 13.41 6.75 13C6.75 12.59 7.09 12.25 7.5 12.25H13.5C13.91 12.25 14.25 12.59 14.25 13C14.25 13.41 13.91 13.75 13.5 13.75Z" fill="#E88532"/>
<path d="M13.5 12.25H7.5V15.25H13.5V12.25ZM7.5 12.25C7.91843 12.25 8.25 12.5816 8.25 13H5.25C5.25 14.2384 6.26157 15.25 7.5 15.25V12.25ZM8.25 13C8.25 13.4184 7.91843 13.75 7.5 13.75V10.75C6.26157 10.75 5.25 11.7616 5.25 13H8.25ZM7.5 13.75H13.5V10.75H7.5V13.75ZM13.5 13.75C13.0816 13.75 12.75 13.4184 12.75 13H15.75C15.75 11.7616 14.7384 10.75 13.5 10.75V13.75ZM12.75 13C12.75 12.5816 13.0816 12.25 13.5 12.25V15.25C14.7384 15.25 15.75 14.2384 15.75 13H12.75Z" fill="#E88532" mask="url(#path-3-inside-1_558_133688)"/>
<mask id="path-5-inside-2_558_133688" fill="white">
<path d="M11.5 17.75H7.5C7.09 17.75 6.75 17.41 6.75 17C6.75 16.59 7.09 16.25 7.5 16.25H11.5C11.91 16.25 12.25 16.59 12.25 17C12.25 17.41 11.91 17.75 11.5 17.75Z"/>
</mask>
<path d="M11.5 17.75H7.5C7.09 17.75 6.75 17.41 6.75 17C6.75 16.59 7.09 16.25 7.5 16.25H11.5C11.91 16.25 12.25 16.59 12.25 17C12.25 17.41 11.91 17.75 11.5 17.75Z" fill="#E88532"/>
<path d="M11.5 16.25H7.5V19.25H11.5V16.25ZM7.5 16.25C7.91843 16.25 8.25 16.5816 8.25 17H5.25C5.25 18.2384 6.26157 19.25 7.5 19.25V16.25ZM8.25 17C8.25 17.4184 7.91843 17.75 7.5 17.75V14.75C6.26157 14.75 5.25 15.7616 5.25 17H8.25ZM7.5 17.75H11.5V14.75H7.5V17.75ZM11.5 17.75C11.0816 17.75 10.75 17.4184 10.75 17H13.75C13.75 15.7616 12.7384 14.75 11.5 14.75V17.75ZM10.75 17C10.75 16.5816 11.0816 16.25 11.5 16.25V19.25C12.7384 19.25 13.75 18.2384 13.75 17H10.75Z" fill="#E88532" mask="url(#path-5-inside-2_558_133688)"/>
</svg>
