<svg width="24" height="24" viewBox="0 0 24 24" fill="none" xmlns="http://www.w3.org/2000/svg">
<mask id="path-1-inside-1_558_133713" fill="white">
<path d="M22 21.25H2C1.59 21.25 1.25 21.59 1.25 22C1.25 22.41 1.59 22.75 2 22.75H22C22.41 22.75 22.75 22.41 22.75 22C22.75 21.59 22.41 21.25 22 21.25Z"/>
</mask>
<path d="M22 21.25H2C1.59 21.25 1.25 21.59 1.25 22C1.25 22.41 1.59 22.75 2 22.75H22C22.41 22.75 22.75 22.41 22.75 22C22.75 21.59 22.41 21.25 22 21.25Z" fill="#04AF55"/>
<path d="M22 19.75H2V22.75H22V19.75ZM2 19.75C0.761573 19.75 -0.25 20.7616 -0.25 22H2.75C2.75 22.4184 2.41843 22.75 2 22.75V19.75ZM-0.25 22C-0.25 23.2384 0.761573 24.25 2 24.25V21.25C2.41843 21.25 2.75 21.5816 2.75 22H-0.25ZM2 24.25H22V21.25H2V24.25ZM22 24.25C23.2384 24.25 24.25 23.2384 24.25 22H21.25C21.25 21.5816 21.5816 21.25 22 21.25V24.25ZM24.25 22C24.25 20.7616 23.2384 19.75 22 19.75V22.75C21.5816 22.75 21.25 22.4184 21.25 22H24.25Z" fill="#04AF55" mask="url(#path-1-inside-1_558_133713)"/>
<path opacity="0.4" d="M7 2.75H17C18.3465 2.75 19.1121 3.14588 19.5574 3.66144C20.0203 4.19756 20.25 4.99287 20.25 6V21.25H3.75V6C3.75 4.99287 3.97967 4.19756 4.44264 3.66144C4.88785 3.14588 5.65354 2.75 7 2.75Z" fill="#04AF55" stroke="#04AF55" stroke-width="1.5"/>
<mask id="path-4-inside-2_558_133713" fill="white">
<path d="M10 17.25H7C6.59 17.25 6.25 16.91 6.25 16.5C6.25 16.09 6.59 15.75 7 15.75H10C10.41 15.75 10.75 16.09 10.75 16.5C10.75 16.91 10.41 17.25 10 17.25Z"/>
</mask>
<path d="M10 17.25H7C6.59 17.25 6.25 16.91 6.25 16.5C6.25 16.09 6.59 15.75 7 15.75H10C10.41 15.75 10.75 16.09 10.75 16.5C10.75 16.91 10.41 17.25 10 17.25Z" fill="#04AF55"/>
<path d="M10 15.75H7V18.75H10V15.75ZM7 15.75C7.41843 15.75 7.75 16.0816 7.75 16.5H4.75C4.75 17.7384 5.76157 18.75 7 18.75V15.75ZM7.75 16.5C7.75 16.9184 7.41843 17.25 7 17.25V14.25C5.76157 14.25 4.75 15.2616 4.75 16.5H7.75ZM7 17.25H10V14.25H7V17.25ZM10 17.25C9.58157 17.25 9.25 16.9184 9.25 16.5H12.25C12.25 15.2616 11.2384 14.25 10 14.25V17.25ZM9.25 16.5C9.25 16.0816 9.58157 15.75 10 15.75V18.75C11.2384 18.75 12.25 17.7384 12.25 16.5H9.25Z" fill="#04AF55" mask="url(#path-4-inside-2_558_133713)"/>
<mask id="path-6-inside-3_558_133713" fill="white">
<path d="M17 17.25H14C13.59 17.25 13.25 16.91 13.25 16.5C13.25 16.09 13.59 15.75 14 15.75H17C17.41 15.75 17.75 16.09 17.75 16.5C17.75 16.91 17.41 17.25 17 17.25Z"/>
</mask>
<path d="M17 17.25H14C13.59 17.25 13.25 16.91 13.25 16.5C13.25 16.09 13.59 15.75 14 15.75H17C17.41 15.75 17.75 16.09 17.75 16.5C17.75 16.91 17.41 17.25 17 17.25Z" fill="#04AF55"/>
<path d="M17 15.75H14V18.75H17V15.75ZM14 15.75C14.4184 15.75 14.75 16.0816 14.75 16.5H11.75C11.75 17.7384 12.7616 18.75 14 18.75V15.75ZM14.75 16.5C14.75 16.9184 14.4184 17.25 14 17.25V14.25C12.7616 14.25 11.75 15.2616 11.75 16.5H14.75ZM14 17.25H17V14.25H14V17.25ZM17 17.25C16.5816 17.25 16.25 16.9184 16.25 16.5H19.25C19.25 15.2616 18.2384 14.25 17 14.25V17.25ZM16.25 16.5C16.25 16.0816 16.5816 15.75 17 15.75V18.75C18.2384 18.75 19.25 17.7384 19.25 16.5H16.25Z" fill="#04AF55" mask="url(#path-6-inside-3_558_133713)"/>
<mask id="path-8-inside-4_558_133713" fill="white">
<path d="M10 12.75H7C6.59 12.75 6.25 12.41 6.25 12C6.25 11.59 6.59 11.25 7 11.25H10C10.41 11.25 10.75 11.59 10.75 12C10.75 12.41 10.41 12.75 10 12.75Z"/>
</mask>
<path d="M10 12.75H7C6.59 12.75 6.25 12.41 6.25 12C6.25 11.59 6.59 11.25 7 11.25H10C10.41 11.25 10.75 11.59 10.75 12C10.75 12.41 10.41 12.75 10 12.75Z" fill="#04AF55"/>
<path d="M10 11.25H7V14.25H10V11.25ZM7 11.25C7.41843 11.25 7.75 11.5816 7.75 12H4.75C4.75 13.2384 5.76157 14.25 7 14.25V11.25ZM7.75 12C7.75 12.4184 7.41843 12.75 7 12.75V9.75C5.76157 9.75 4.75 10.7616 4.75 12H7.75ZM7 12.75H10V9.75H7V12.75ZM10 12.75C9.58157 12.75 9.25 12.4184 9.25 12H12.25C12.25 10.7616 11.2384 9.75 10 9.75V12.75ZM9.25 12C9.25 11.5816 9.58157 11.25 10 11.25V14.25C11.2384 14.25 12.25 13.2384 12.25 12H9.25Z" fill="#04AF55" mask="url(#path-8-inside-4_558_133713)"/>
<mask id="path-10-inside-5_558_133713" fill="white">
<path d="M17 12.75H14C13.59 12.75 13.25 12.41 13.25 12C13.25 11.59 13.59 11.25 14 11.25H17C17.41 11.25 17.75 11.59 17.75 12C17.75 12.41 17.41 12.75 17 12.75Z"/>
</mask>
<path d="M17 12.75H14C13.59 12.75 13.25 12.41 13.25 12C13.25 11.59 13.59 11.25 14 11.25H17C17.41 11.25 17.75 11.59 17.75 12C17.75 12.41 17.41 12.75 17 12.75Z" fill="#04AF55"/>
<path d="M17 11.25H14V14.25H17V11.25ZM14 11.25C14.4184 11.25 14.75 11.5816 14.75 12H11.75C11.75 13.2384 12.7616 14.25 14 14.25V11.25ZM14.75 12C14.75 12.4184 14.4184 12.75 14 12.75V9.75C12.7616 9.75 11.75 10.7616 11.75 12H14.75ZM14 12.75H17V9.75H14V12.75ZM17 12.75C16.5816 12.75 16.25 12.4184 16.25 12H19.25C19.25 10.7616 18.2384 9.75 17 9.75V12.75ZM16.25 12C16.25 11.5816 16.5816 11.25 17 11.25V14.25C18.2384 14.25 19.25 13.2384 19.25 12H16.25Z" fill="#04AF55" mask="url(#path-10-inside-5_558_133713)"/>
<path d="M10 8.25H7C6.59 8.25 6.25 7.91 6.25 7.5C6.25 7.09 6.59 6.75 7 6.75H10C10.41 6.75 10.75 7.09 10.75 7.5C10.75 7.91 10.41 8.25 10 8.25Z" fill="#04AF55"/>
<path d="M17 8.25H14C13.59 8.25 13.25 7.91 13.25 7.5C13.25 7.09 13.59 6.75 14 6.75H17C17.41 6.75 17.75 7.09 17.75 7.5C17.75 7.91 17.41 8.25 17 8.25Z" fill="#04AF55"/>
</svg>
