<svg width="25" height="24" viewBox="0 0 25 24" fill="none" xmlns="http://www.w3.org/2000/svg">
<path opacity="0.4" d="M11.2933 2.06008L5.7933 4.12008C4.7433 4.52008 3.8833 5.76008 3.8833 6.89008V14.9901C3.8833 15.8001 4.4133 16.8701 5.0633 17.3501L10.5633 21.4601C11.5333 22.1901 13.1233 22.1901 14.0933 21.4601L19.5933 17.3501C20.2433 16.8601 20.7733 15.8001 20.7733 14.9901V6.89008C20.7733 5.77008 19.9133 4.52008 18.8633 4.13008L13.3633 2.07008C12.8033 1.85008 11.8633 1.85008 11.2933 2.06008Z" fill="#00137E"/>
<path d="M10.9932 14.2301C10.8032 14.2301 10.6132 14.1601 10.4632 14.0101L8.85324 12.4001C8.56324 12.1101 8.56324 11.6301 8.85324 11.3401C9.14324 11.0501 9.62324 11.0501 9.91324 11.3401L10.9932 12.4201L14.7632 8.65012C15.0532 8.36012 15.5332 8.36012 15.8232 8.65012C16.1132 8.94012 16.1132 9.42012 15.8232 9.71012L11.5232 14.0101C11.3732 14.1601 11.1832 14.2301 10.9932 14.2301Z" fill="#00137E"/>
</svg>
