<svg width="25" height="24" viewBox="0 0 25 24" fill="none" xmlns="http://www.w3.org/2000/svg">
<path opacity="0.4" d="M20.7833 3.55032L20.7863 3.55337C21.4661 4.2253 21.7319 5.18217 21.4964 6.11664L21.4959 6.11825L19.0459 15.9283L19.0457 15.9291C18.7031 17.3079 17.6347 18.3691 16.2617 18.7124L6.45187 21.1623L6.43966 21.1654L6.42756 21.1688C6.23003 21.2253 6.01207 21.25 5.7836 21.25C5.08642 21.25 4.40496 20.9717 3.88196 20.4577C3.19961 19.774 2.93576 18.8158 3.17085 17.8833L3.17125 17.8817L5.62121 8.07188C5.62122 8.07183 5.62124 8.07177 5.62125 8.07171C5.96453 6.69884 7.02574 5.63044 8.40446 5.28785L8.4055 5.28759L18.2055 2.83759L18.2069 2.83723C19.1403 2.60192 20.0995 2.8665 20.7833 3.55032Z" fill="#D93400" stroke="#D93400" stroke-width="1.5"/>
<path d="M15.4636 12C15.4636 13.7286 14.0623 15.13 12.3336 15.13C10.605 15.13 9.20361 13.7286 9.20361 12C9.20361 10.2713 10.605 8.87 12.3336 8.87C14.0623 8.87 15.4636 10.2713 15.4636 12Z" fill="#D93400" stroke="#D93400" stroke-width="1.5"/>
</svg>
