<svg width="25" height="24" viewBox="0 0 25 24" fill="none" xmlns="http://www.w3.org/2000/svg">
<path d="M16.6667 15V19C16.6667 20.66 15.3267 22 13.6667 22H11.6667C10.0067 22 8.66675 20.66 8.66675 19V15H16.6667Z" fill="#FB5581"/>
<path d="M7.66675 7V5C7.66675 3.34 9.00675 2 10.6667 2H14.6667C16.3267 2 17.6667 3.34 17.6667 5V7H7.66675Z" fill="#FB5581"/>
<path opacity="0.4" d="M18.6667 7H6.66675C4.66675 7 3.66675 8 3.66675 10V15C3.66675 17 4.66675 18 6.66675 18H8.66675V15H16.6667V18H18.6667C20.6667 18 21.6667 17 21.6667 15V10C21.6667 8 20.6667 7 18.6667 7ZM10.6667 11.75H7.66675C7.25675 11.75 6.91675 11.41 6.91675 11C6.91675 10.59 7.25675 10.25 7.66675 10.25H10.6667C11.0767 10.25 11.4167 10.59 11.4167 11C11.4167 11.41 11.0767 11.75 10.6667 11.75Z" fill="#FB5581"/>
<path d="M11.4167 11C11.4167 11.41 11.0767 11.75 10.6667 11.75H7.66675C7.25675 11.75 6.91675 11.41 6.91675 11C6.91675 10.59 7.25675 10.25 7.66675 10.25H10.6667C11.0767 10.25 11.4167 10.59 11.4167 11Z" fill="#FB5581"/>
<path d="M17.6667 15.75H7.66675C7.25675 15.75 6.91675 15.41 6.91675 15C6.91675 14.59 7.25675 14.25 7.66675 14.25H17.6667C18.0767 14.25 18.4167 14.59 18.4167 15C18.4167 15.41 18.0767 15.75 17.6667 15.75Z" fill="#FB5581"/>
</svg>
