<svg width="40" height="41" viewBox="0 0 40 41" fill="none" xmlns="http://www.w3.org/2000/svg">
<path d="M13.9774 31.0285C13.9583 31.2187 13.9747 31.4173 14.044 31.6142C14.2134 32.0889 14.6107 32.4756 15.0814 32.6213C15.5187 32.7596 15.9538 32.6676 16.0858 32.524L16.9983 31.5449C17.2623 31.2627 17.3289 30.8116 17.1738 30.3738C16.792 29.6422 16.2805 29.3782 15.6254 29.26L13.9774 31.0285Z" fill="#2CA900"/>
<path d="M12.7569 26.1329L11.1622 27.8431C10.8382 28.1955 10.7453 28.7373 10.9262 29.2564C11.1182 29.8049 11.5764 30.2511 12.1249 30.4178C12.644 30.5733 13.1649 30.4524 13.4911 30.1053L14.9675 28.5218C15.2938 28.1702 15.3844 27.6311 15.2035 27.112C15.0115 26.5609 14.5506 26.1164 14.0049 25.9507C13.5693 25.8115 13.0582 25.8062 12.7569 26.1329Z" fill="#2CA900"/>
<path d="M9.5955 23.3187L8.12306 24.8996C7.79861 25.2493 7.70795 25.7929 7.88706 26.3138C8.07906 26.8604 8.53728 27.3067 9.08573 27.4733C9.60395 27.6311 10.1302 27.508 10.2942 27.3342L11.9288 25.58C12.2551 25.2276 12.3457 24.6858 12.1648 24.1676C11.9719 23.6173 11.5137 23.1729 10.9653 23.008C10.4608 22.8436 9.90261 22.9898 9.5955 23.3187Z" fill="#2CA900"/>
<path d="M6.71512 20.2022L5.08312 21.9573C4.7569 22.3089 4.66623 22.848 4.84712 23.3644C5.03734 23.9173 5.49823 24.3618 6.04667 24.5284C6.5649 24.6831 7.09023 24.5631 7.25245 24.3871L8.8889 22.6329V22.6311C9.21512 22.284 9.30578 21.744 9.1249 21.2258C8.93556 20.6729 8.47467 20.2284 7.92623 20.0636C7.50712 19.9191 7.00001 19.8942 6.71512 20.2022Z" fill="#2CA900"/>
<path d="M27.9027 9.73511C26.8471 10.3253 25.38 10.4311 23.9511 10.5338C22.8703 10.6076 21.7551 10.6858 20.9538 10.9818L16.4983 12.6258C16.468 12.6378 16.4374 12.6449 16.4054 12.6493C16.1903 12.6831 15.9911 12.712 15.8125 12.7369C14.7276 12.8898 14.6023 12.9364 14.4774 13.2578C14.3636 13.5547 14.4885 13.9827 14.7969 14.3462C15.0485 14.6449 16.0329 15.5773 18.0583 15.0978L20.5956 14.7627C22.0165 14.5796 23.1556 15.5058 24.0654 16.2533L30.8889 21.712L30.8943 21.7093C32.2432 21.1449 33.6485 20.4107 34.8432 18.9716L27.9027 9.73511Z" fill="#2CA900"/>
<path d="M18.5138 9.40357C18.1093 9.4409 17.6458 9.49201 17.1595 9.54268C14.4702 9.82979 12.9791 9.94268 12.2204 9.80223L5.23865 18.8898C5.49554 19.1329 5.70843 19.3853 5.87998 19.6587C6.46354 19.0613 7.34531 18.848 8.20398 19.1076C9.04665 19.3618 9.7502 20.0449 10.0444 20.8925C10.1693 21.2511 10.2084 21.6191 10.1764 21.9716C10.5209 21.9231 10.8849 21.9431 11.2431 22.0525C12.0835 22.3049 12.7898 22.9898 13.0818 23.8373C13.2084 24.1942 13.2484 24.5613 13.2182 24.9138C13.5626 24.8653 13.9266 24.8858 14.2849 24.9973C15.1235 25.2516 15.8266 25.9347 16.1209 26.7778C16.3058 27.3125 16.3129 27.8627 16.1626 28.356C16.2484 28.3725 16.3364 28.3933 16.424 28.4209C17.1764 28.6542 17.8155 29.2725 18.0906 30.0347C18.3529 30.7725 18.2391 31.5476 17.8084 32.104L19.0471 33.0947C19.3502 33.3351 19.792 33.3613 20.2044 33.1613C20.6515 32.9445 20.9893 32.504 21.0889 32.0111C21.1306 31.8053 21.1169 31.6058 21.0698 31.4209L19.4986 30.164C19.2875 29.9947 19.2502 29.6822 19.4151 29.4653C19.5818 29.2502 19.8875 29.2102 20.1 29.3796L21.9889 30.8933C22.1764 31.0436 22.7138 31.0836 23.2066 30.8516C23.7249 30.604 24.1164 30.0938 24.2249 29.5245C24.3289 28.9862 24.1622 28.4645 23.7915 28.1658L22.0831 26.7987C21.8702 26.6293 21.8329 26.316 21.9995 26.1018C22.1644 25.884 22.472 25.844 22.6826 26.016L25.1662 28.0022C25.5395 28.2991 26.076 28.34 26.5715 28.1089C27.0853 27.8631 27.4769 27.3538 27.588 26.7782C27.692 26.24 27.5253 25.72 27.1506 25.4187L24.6662 23.4351C24.4533 23.264 24.416 22.9516 24.5826 22.7329C24.7493 22.5187 25.0551 22.4813 25.2684 22.6502C25.2684 22.6502 29.0409 25.6667 29.0435 25.6667C29.2311 25.8142 29.7658 25.856 30.2564 25.6213C30.7755 25.3791 31.1644 24.8698 31.2773 24.296C31.3795 23.7569 31.2129 23.2333 30.84 22.9373L23.4564 17.0285C22.6093 16.3338 21.7342 15.6142 20.7178 15.7507L18.2315 16.0751C16.5555 16.4778 14.9746 16.0796 14.0604 14.9987C13.5093 14.3476 13.3218 13.5422 13.5693 12.8947C13.9164 11.9965 14.5813 11.9036 15.6786 11.7489C15.8426 11.728 16.0191 11.7022 16.2133 11.6716L20.6231 10.0449C20.9098 9.93823 21.2271 9.86445 21.5555 9.79912C20.4218 9.36045 19.6 9.33423 18.5138 9.40357Z" fill="#2CA900"/>
<path d="M8.9307 7.68132C8.12759 7.62043 7.39426 8.22576 6.3387 9.60043L3.63914 13.1169C2.6627 14.3853 2.29692 15.1742 2.37781 15.8427C2.4427 16.392 2.82492 16.9311 3.20403 17.2351L4.48448 18.2578L11.4378 9.20754L10.5378 8.4871C9.91914 7.99376 9.41248 7.71865 8.9307 7.68132Z" fill="#2CA900"/>
<path d="M31.2275 7.67198C30.7457 7.70221 30.2346 7.97154 29.6111 8.45776L28.7013 9.16354L35.5582 18.2875L36.4444 17.5982C37.2111 17.0035 37.6022 16.4715 37.6737 15.9227C37.7622 15.256 37.408 14.4609 36.4471 13.176L33.7915 9.62576C32.7568 8.23687 32.0328 7.62043 31.2275 7.67198Z" fill="#2CA900"/>
</svg>
