<svg width="20" height="21" viewBox="0 0 20 21" fill="none" xmlns="http://www.w3.org/2000/svg">
<path d="M12.9833 10.1734C12.9833 11.8234 11.65 13.1567 10 13.1567C8.35 13.1567 7.01666 11.8234 7.01666 10.1734C7.01666 8.5234 8.35 7.19006 10 7.19006C11.65 7.19006 12.9833 8.5234 12.9833 10.1734Z" stroke="#000833" stroke-width="1.5" stroke-linecap="round" stroke-linejoin="round"/>
<path d="M10 17.0651C12.9417 17.0651 15.6833 15.3317 17.5917 12.3317C18.3417 11.1567 18.3417 9.18174 17.5917 8.00674C15.6833 5.00674 12.9417 3.27341 10 3.27341C7.05834 3.27341 4.31667 5.00674 2.40834 8.00674C1.65834 9.18174 1.65834 11.1567 2.40834 12.3317C4.31667 15.3317 7.05834 17.0651 10 17.0651Z" stroke="#000833" stroke-width="1.5" stroke-linecap="round" stroke-linejoin="round"/>
</svg>
