<svg width="18" height="19" viewBox="0 0 18 19" fill="none" xmlns="http://www.w3.org/2000/svg">
<path d="M9 16.8467C13.125 16.8467 16.5 13.4717 16.5 9.34668C16.5 5.22168 13.125 1.84668 9 1.84668C4.875 1.84668 1.5 5.22168 1.5 9.34668C1.5 13.4717 4.875 16.8467 9 16.8467Z" stroke="#CCD0E5" stroke-width="1.5" stroke-linecap="round" stroke-linejoin="round"/>
<path d="M11.6531 11.9827V13.3467H6.46111V12.4777L8.71611 10.1677C9.57411 9.28768 9.93711 8.82568 9.93711 8.17668C9.93711 7.57168 9.53011 7.16468 8.88111 7.16468C8.16611 7.16468 7.72611 7.61568 7.72611 8.34168H6.24111C6.24111 6.85668 7.36311 5.80068 8.95811 5.80068C10.4431 5.80068 11.5321 6.73568 11.5321 7.98968C11.5321 8.89168 11.2021 9.46368 9.90411 10.7727L8.78211 11.9827H11.6531Z" fill="#CCD0E5"/>
</svg>
