<svg width="16" height="17" viewBox="0 0 16 17" fill="none" xmlns="http://www.w3.org/2000/svg">
<path d="M13.7466 6.13332C13.0466 3.05332 10.3599 1.66666 7.99994 1.66666C7.99994 1.66666 7.99994 1.66666 7.99327 1.66666C5.63994 1.66666 2.94661 3.04666 2.24661 6.12666C1.46661 9.56666 3.57328 12.48 5.47994 14.3133C6.18661 14.9933 7.09328 15.3333 7.99994 15.3333C8.90661 15.3333 9.81328 14.9933 10.5133 14.3133C12.4199 12.48 14.5266 9.57332 13.7466 6.13332ZM7.99994 9.47332C6.83994 9.47332 5.89994 8.53332 5.89994 7.37332C5.89994 6.21332 6.83994 5.27332 7.99994 5.27332C9.15994 5.27332 10.0999 6.21332 10.0999 7.37332C10.0999 8.53332 9.15994 9.47332 7.99994 9.47332Z" fill="#616C82"/>
</svg>
