<svg width="21" height="20" viewBox="0 0 21 20" fill="none" xmlns="http://www.w3.org/2000/svg">
<path d="M18.1699 4.98356C15.3949 4.70856 12.6033 4.56689 9.81992 4.56689C8.16992 4.56689 6.51992 4.65023 4.86992 4.81689L3.16992 4.98356" stroke="#D93400" stroke-width="1.5" stroke-linecap="round" stroke-linejoin="round"/>
<path d="M7.75293 4.1415L7.93626 3.04984C8.0696 2.25817 8.1696 1.6665 9.57793 1.6665H11.7613C13.1696 1.6665 13.2779 2.2915 13.4029 3.05817L13.5863 4.1415" stroke="#D93400" stroke-width="1.5" stroke-linecap="round" stroke-linejoin="round"/>
<path d="M16.3786 7.6167L15.8369 16.0084C15.7452 17.3167 15.6702 18.3334 13.3452 18.3334H7.99525C5.67025 18.3334 5.59525 17.3167 5.50358 16.0084L4.96191 7.6167" stroke="#D93400" stroke-width="1.5" stroke-linecap="round" stroke-linejoin="round"/>
<path d="M9.27832 13.75H12.0533" stroke="#D93400" stroke-width="1.5" stroke-linecap="round" stroke-linejoin="round"/>
<path d="M8.58691 10.4165H12.7536" stroke="#D93400" stroke-width="1.5" stroke-linecap="round" stroke-linejoin="round"/>
</svg>
