<svg width="32" height="33" viewBox="0 0 32 33" fill="none" xmlns="http://www.w3.org/2000/svg">
<g clip-path="url(#clip0_7512_85079)">
<rect y="0.346802" width="32" height="32" rx="3" fill="white"/>
<path d="M15.9996 19.1601C17.5496 19.1601 18.8184 17.8976 18.8184 16.3413C18.8184 15.7288 18.6184 15.1601 18.2871 14.6976C17.7746 13.9913 16.9434 13.5226 16.0059 13.5226C15.0684 13.5226 14.2371 13.9851 13.7246 14.6976C13.3934 15.1601 13.1934 15.7288 13.1934 16.3413C13.1871 17.8976 14.4496 19.1601 15.9996 19.1601Z" fill="#00137E"/>
<path d="M22.15 12.9031V10.5406V10.1906H21.8L19.4375 10.1968L19.45 12.9093L22.15 12.9031Z" fill="#00137E"/>
<path d="M29.5 0.346802H2.5C1.11875 0.346802 0 1.46555 0 2.8468V29.8468C0 31.2281 1.11875 32.3468 2.5 32.3468H29.5C30.8813 32.3468 32 31.2281 32 29.8468V2.8468C32 1.46555 30.8813 0.346802 29.5 0.346802ZM24 14.7031V21.2531C24 22.9593 22.6125 24.3468 20.9062 24.3468H11.0938C9.3875 24.3468 8 22.9593 8 21.2531V14.7031V11.4343C8 9.72805 9.3875 8.34055 11.0938 8.34055H20.9062C22.6125 8.34055 24 9.72805 24 11.4343V14.7031Z" fill="#00137E"/>
<path d="M20.375 16.346C20.375 18.7585 18.4125 20.721 16 20.721C13.5875 20.721 11.625 18.7585 11.625 16.346C11.625 15.7648 11.7437 15.2085 11.95 14.7023H9.5625V21.2523C9.5625 22.096 10.25 22.7835 11.0937 22.7835H20.9062C21.75 22.7835 22.4375 22.096 22.4375 21.2523V14.7023H20.05C20.2625 15.2085 20.375 15.7648 20.375 16.346Z" fill="#00137E"/>
</g>
<defs>
<clipPath id="clip0_7512_85079">
<rect y="0.346802" width="32" height="32" rx="3" fill="white"/>
</clipPath>
</defs>
</svg>
