<svg width="40" height="40" viewBox="0 0 40 40" fill="none" xmlns="http://www.w3.org/2000/svg">
<path d="M22.9833 20C22.9833 21.65 21.65 22.9833 20 22.9833C18.35 22.9833 17.0167 21.65 17.0167 20C17.0167 18.35 18.35 17.0167 20 17.0167C21.65 17.0167 22.9833 18.35 22.9833 20Z" stroke="#616C82" stroke-width="1.5" stroke-linecap="round" stroke-linejoin="round"/>
<path d="M20 26.8917C22.9417 26.8917 25.6833 25.1583 27.5917 22.1583C28.3417 20.9833 28.3417 19.0083 27.5917 17.8333C25.6833 14.8333 22.9417 13.1 20 13.1C17.0583 13.1 14.3167 14.8333 12.4083 17.8333C11.6583 19.0083 11.6583 20.9833 12.4083 22.1583C14.3167 25.1583 17.0583 26.8917 20 26.8917Z" stroke="#616C82" stroke-width="1.5" stroke-linecap="round" stroke-linejoin="round"/>
</svg>
