<svg width="21" height="21" viewBox="0 0 21 21" fill="none" xmlns="http://www.w3.org/2000/svg">
<path d="M18 5.33013C15.225 5.05513 12.4333 4.91347 9.65 4.91347C8 4.91347 6.35 4.9968 4.7 5.16347L3 5.33013" stroke="#D93400" stroke-width="2" stroke-linecap="round" stroke-linejoin="round"/>
<path d="M7.58325 4.48847L7.76659 3.39681C7.89992 2.60514 7.99992 2.01347 9.40825 2.01347H11.5916C12.9999 2.01347 13.1083 2.63847 13.2333 3.40514L13.4166 4.48847" stroke="#D93400" stroke-width="2" stroke-linecap="round" stroke-linejoin="round"/>
<path d="M16.2084 7.96347L15.6667 16.3551C15.5751 17.6635 15.5001 18.6801 13.1751 18.6801H7.82508C5.50008 18.6801 5.42508 17.6635 5.33341 16.3551L4.79175 7.96347" stroke="#D93400" stroke-width="2" stroke-linecap="round" stroke-linejoin="round"/>
<path d="M9.1084 14.0968H11.8834" stroke="#D93400" stroke-width="1.5" stroke-linecap="round" stroke-linejoin="round"/>
<path d="M8.41675 10.7635H12.5834" stroke="#D93400" stroke-width="1.5" stroke-linecap="round" stroke-linejoin="round"/>
</svg>