<svg width="16" height="16" viewBox="0 0 16 16" fill="none" xmlns="http://www.w3.org/2000/svg">
<path d="M7.99995 9.70345L2.03801 15.6654C1.81494 15.8885 1.53104 16 1.1863 16C0.841566 16 0.557665 15.8885 0.334599 15.6654C0.111533 15.4423 0 15.1584 0 14.8137C0 14.469 0.111533 14.185 0.334599 13.962L6.29654 8.00004L0.334599 2.0381C0.111533 1.81504 0 1.53113 0 1.1864C0 0.841658 0.111533 0.557756 0.334599 0.33469C0.557665 0.111624 0.841566 9.15527e-05 1.1863 9.15527e-05C1.53104 9.15527e-05 1.81494 0.111624 2.03801 0.33469L7.99995 6.29663L13.9619 0.33469C14.185 0.111624 14.4689 9.15527e-05 14.8136 9.15527e-05C15.1583 9.15527e-05 15.4422 0.111624 15.6653 0.33469C15.8884 0.557756 15.9999 0.841658 15.9999 1.1864C15.9999 1.53113 15.8884 1.81504 15.6653 2.0381L9.70336 8.00004L15.6653 13.962C15.8884 14.185 15.9999 14.469 15.9999 14.8137C15.9999 15.1584 15.8884 15.4423 15.6653 15.6654C15.4422 15.8885 15.1583 16 14.8136 16C14.4689 16 14.185 15.8885 13.9619 15.6654L7.99995 9.70345Z" fill="#F1F1F1"/>
</svg>
