<svg width="16" height="16" viewBox="0 0 16 16" fill="none" xmlns="http://www.w3.org/2000/svg">
<g clip-path="url(#clip0_1024_107172)">
<path d="M13.7467 5.63334C13.0467 2.55334 10.36 1.16667 8 1.16667C8 1.16667 8 1.16667 7.99334 1.16667C5.64 1.16667 2.94667 2.54667 2.24667 5.62667C1.46667 9.06667 3.57334 11.98 5.48 13.8133C6.18667 14.4933 7.09334 14.8333 8 14.8333C8.90667 14.8333 9.81334 14.4933 10.5133 13.8133C12.42 11.98 14.5267 9.07334 13.7467 5.63334ZM8 8.97334C6.84 8.97334 5.9 8.03334 5.9 6.87334C5.9 5.71334 6.84 4.77334 8 4.77334C9.16 4.77334 10.1 5.71334 10.1 6.87334C10.1 8.03334 9.16 8.97334 8 8.97334Z" fill="#616C82"/>
</g>
<defs>
<clipPath id="clip0_1024_107172">
<rect width="16" height="16" fill="white"/>
</clipPath>
</defs>
</svg>
