<svg width="48" height="49" viewBox="0 0 48 49" fill="none" xmlns="http://www.w3.org/2000/svg">
<g id="fi_3281289" clip-path="url(#clip0_9244_1562)">
<g id="Group">
<g id="Group_2">
<path id="Vector" d="M31.5782 5.63811C31.5003 5.57868 30.7788 5.04196 29.4936 4.52549C27.8379 3.86005 25.938 3.5083 23.9996 3.5083C22.0611 3.5083 20.1613 3.86005 18.5054 4.52549C17.2203 5.04196 16.4988 5.57868 16.4208 5.63821C16.0295 5.93661 15.7998 6.40058 15.7998 6.89268V9.36777L17.3773 10.2115L18.955 9.36777V7.78602C19.8207 7.34418 21.5521 6.66336 23.9995 6.66336C26.4469 6.66336 28.1782 7.34418 29.044 7.78602V9.36768L30.6215 10.2114L32.1991 9.36768V6.89268C32.1993 6.40049 31.9696 5.93652 31.5782 5.63811Z" fill="#E8834D"/>
<g id="Group_3">
<path id="Vector_2" d="M15.7998 9.36768V11.1096L17.3774 11.9533L18.9551 11.1096V9.36768H15.7998Z" fill="#D66E41"/>
<path id="Vector_3" d="M32.1991 9.36768H29.0439V11.1096L30.6216 11.9533L32.1991 11.1096V9.36768Z" fill="#D66E41"/>
</g>
<path id="Vector_4" d="M1.24219 28.4644V42.4792C1.24219 44.143 2.59097 45.4918 4.25475 45.4918H43.7458C45.4096 45.4918 46.7584 44.143 46.7584 42.4792V28.4644H1.24219Z" fill="#7D5436"/>
<path id="Vector_5" d="M1.24219 26.7225V28.4645C3.74494 30.4516 10.3596 34.3091 24.0003 34.3091C37.641 34.3091 44.2556 30.4516 46.7584 28.4644V26.7224H1.24219V26.7225Z" fill="#66442B"/>
<path id="Vector_6" d="M1.11112 25.7192C3.50972 27.6721 10.1152 31.669 24 31.669C37.8848 31.669 44.4902 27.6721 46.8889 25.7192C47.592 25.1468 48 23.4452 48 22.5386V14.1222C48 12.4584 46.6512 11.1096 44.9874 11.1096H3.01256C1.34878 11.1096 0 12.4584 0 14.1222V22.5386C0 23.4452 0.408 25.1468 1.11112 25.7192Z" fill="#936340"/>
<path id="Vector_7" d="M46.8889 24.8755C44.4903 26.8283 37.8848 30.8252 24 30.8252C10.1152 30.8252 3.50981 26.8282 1.11112 24.8755C0.408 24.303 0 23.4452 0 22.5386V24.2805C0 25.1872 0.408 26.045 1.11112 26.6174C3.50972 28.5703 10.1152 32.5672 24 32.5672C37.8848 32.5672 44.4902 28.5703 46.8889 26.6174C47.592 26.045 48 25.1872 48 24.2805V22.5386C48 23.4452 47.592 24.303 46.8889 24.8755Z" fill="#7D5436"/>
<path id="Vector_8" d="M23.9996 35.4664C25.5581 35.4664 26.8215 34.3092 26.8215 31.8008V30.0898C26.8215 29.5352 26.3719 29.0857 25.8173 29.0857H22.1819C21.6273 29.0857 21.1777 29.5353 21.1777 30.0898V31.8011C21.1776 34.3092 22.4411 35.4664 23.9996 35.4664Z" fill="#FFE27A"/>
<path id="Vector_9" d="M23.9996 34.6227C22.4411 34.6227 21.1777 33.3593 21.1777 31.8008V33.5427C21.1777 35.1012 22.4411 36.3646 23.9996 36.3646C25.5581 36.3646 26.8215 35.1012 26.8215 33.5427V31.8008C26.8215 33.3592 25.5581 34.6227 23.9996 34.6227Z" fill="#F9CF58"/>
</g>
</g>
</g>
<defs>
<clipPath id="clip0_9244_1562">
<rect width="48" height="48" fill="white" transform="translate(0 0.5)"/>
</clipPath>
</defs>
</svg>
