<svg width="48" height="49" viewBox="0 0 48 49" fill="none" xmlns="http://www.w3.org/2000/svg">
<g id="fi_3135755" clip-path="url(#clip0_9244_1522)">
<g id="Group">
<g id="Group_2">
<g id="Group_3">
<path id="Vector" d="M33.3081 35.3535L28.3348 29.9178V23.3054H19.6631V29.9199L14.7451 35.3535H33.3081Z" fill="#FFDDCE"/>
<path id="Vector_2" d="M32.4034 35.2558L27.9449 33.9469L24.0003 38.4701L17.18 30.6487L9.93 32.7766C7.10016 33.6072 5.15625 36.2036 5.15625 39.1528V46.1486C5.15625 47.4473 6.20916 48.5001 7.50797 48.5001H10.6974L11.2722 48.0899H11.5712L12.146 48.5001H35.8512L36.695 47.898H37.3947V41.9232C37.3948 38.8394 35.3623 36.1245 32.4034 35.2558Z" fill="#407093"/>
<path id="Vector_3" d="M38.0714 32.7762L30.8222 30.6479L27.4521 34.5122L31.9556 35.8344C34.7853 36.6651 36.7289 39.2614 36.7289 42.2104V47.8979H37.3004V48.4999H40.4931C41.7919 48.4999 42.8447 47.447 42.8447 46.1483V39.1523C42.8447 36.2032 40.9011 33.6069 38.0714 32.7762Z" fill="#365E7D"/>
<g id="Group_4">
<g id="Group_5">
<g id="Group_6">
<g id="Group_7">
<path id="Vector_4" d="M12.1459 48.5V44.6535C12.1459 44.2535 11.8216 43.9292 11.4216 43.9292C11.0215 43.9292 10.6973 44.2535 10.6973 44.6535V48.5H12.1459Z" fill="#365E7D"/>
<path id="Vector_5" d="M37.3002 48.5V44.6535C37.3002 44.2535 36.9759 43.9292 36.5759 43.9292C36.1758 43.9292 35.8516 44.2535 35.8516 44.6535V48.5H37.3002Z" fill="#365E7D"/>
</g>
</g>
</g>
</g>
</g>
<g id="Group_8">
<g id="Group_9">
<path id="Vector_6" d="M10.934 14.6735L10.1914 13.8547H8.6042L7.86161 14.6735L6.88295 20.4176C6.79061 20.9598 7.20827 21.4547 7.7583 21.4547H11.0371C11.5871 21.4547 12.0048 20.9598 11.9125 20.4176L10.934 14.6735Z" fill="#E4F6FF"/>
<path id="Vector_7" d="M10.1225 13.2772V6.01386C10.1225 5.61383 9.79817 5.28955 9.39814 5.28955C8.99811 5.28955 8.67383 5.61383 8.67383 6.01386V13.2772H10.1225Z" fill="#407093"/>
<g id="Group_10">
<g id="Group_11">
<g id="Group_12">
<g id="Group_13">
<path id="Vector_8" d="M28.0135 5.43188H27.8537H20.144H19.9842C17.0815 5.43188 14.7285 7.78492 14.7285 10.6876V10.7704V15.757L15.5977 16.5228H33.2691V10.7704V10.6876C33.2692 7.78501 30.916 5.43188 28.0135 5.43188Z" fill="#EFC984"/>
</g>
</g>
</g>
</g>
<path id="Vector_9" d="M28.013 5.43188H27.8533H27.1729V16.5228H32.4664L33.2687 15.757V10.7704V10.6876C33.2688 7.78501 30.9156 5.43188 28.013 5.43188Z" fill="#EABC6B"/>
<g id="Group_14">
<path id="Vector_10" d="M24.0007 27.1322C24.0881 27.1322 24.175 27.1307 24.2617 27.1278C26.3353 25.8108 27.7438 23.5403 27.8693 20.9322V11.7524H17.8974V14.1682C17.8974 15.0458 17.186 15.7572 16.3085 15.7572H14.7305V18.3556C14.7305 19.0196 15.2687 19.5579 15.9327 19.5579C16.1422 19.5579 16.3127 19.722 16.3258 19.9311C16.5793 23.9503 19.9176 27.1322 24.0007 27.1322Z" fill="#FFDDCE"/>
</g>
<path id="Vector_11" d="M31.6926 15.7572C30.815 15.7572 30.1036 15.0458 30.1036 14.1682V11.7524H27.1732V20.6959C27.0403 23.4589 25.4503 25.8385 23.1553 27.0847C23.433 27.1151 23.7145 27.1322 24.0002 27.1322C28.0834 27.1322 31.4217 23.9503 31.6752 19.9311C31.6884 19.722 31.8588 19.5579 32.0683 19.5579C32.7322 19.5579 33.2705 19.0197 33.2705 18.3556V15.7572H31.6926Z" fill="#FFCBBE"/>
<path id="Vector_12" d="M27.8687 8.66776V6.87732C26.9865 6.87038 26.2734 6.15376 26.2734 5.26988V2.0522L25.5966 0.967789L24.2472 0.538602C24.0854 0.487133 23.9117 0.487133 23.7499 0.538602L9.06012 5.21101C8.24065 5.47163 8.32333 6.6572 9.17102 6.80157L23.9986 9.32691L27.8687 8.66776Z" fill="#407093"/>
<path id="Vector_13" d="M27.8693 6.90501L25.7329 6.64073C24.5814 6.49832 23.4169 6.49832 22.2655 6.64082L14.1348 7.64695V11.2702C14.1348 11.6628 14.453 11.9811 14.8457 11.9811H27.8693V6.90501Z" fill="#4A80AA"/>
<g id="Group_15">
<path id="Vector_14" d="M38.9372 5.21099L25.5967 0.967773V5.21905C25.5967 6.09243 26.3014 6.80062 27.1731 6.80746V8.78634L38.8262 6.80165C39.674 6.65709 39.7567 5.47162 38.9372 5.21099Z" fill="#365E7D"/>
</g>
<path id="Vector_15" d="M27.1738 6.81885V11.981H33.1559C33.5485 11.981 33.8668 11.6627 33.8668 11.2701V7.64675L27.1738 6.81885Z" fill="#407093"/>
<path id="Vector_16" d="M10.9336 14.6735H7.86133V12.6567C7.86133 12.2282 8.20867 11.8809 8.6372 11.8809H10.1576C10.5862 11.8809 10.9335 12.2282 10.9335 12.6567L10.9336 14.6735Z" fill="#FFE07D"/>
</g>
</g>
<g id="Group_16">
<path id="Vector_17" d="M28.3342 27.4971C28.3342 30.3103 27.5176 33.0631 25.9835 35.4212L24 38.4699L35.0663 31.8941L28.3342 27.4971Z" fill="#4A80AA"/>
<path id="Vector_18" d="M19.6656 27.4971C19.6656 30.3103 20.4822 33.0631 22.0164 35.4212L23.9998 38.4699L12.9336 31.8941L19.6656 27.4971Z" fill="#4A80AA"/>
</g>
<g id="Group_17">
<path id="Vector_19" d="M27.6945 31.7573C26.5564 32.0079 25.3092 32.1469 24.0006 32.1469C22.692 32.1469 21.4448 32.0079 20.3066 31.7573C20.7018 33.0456 21.2745 34.2799 22.017 35.4213L24.0006 38.47L25.984 35.4213C26.7266 34.2799 27.2994 33.0456 27.6945 31.7573Z" fill="#F4FBFF"/>
</g>
</g>
</g>
</g>
<defs>
<clipPath id="clip0_9244_1522">
<rect width="48" height="48" fill="white" transform="translate(0 0.5)"/>
</clipPath>
</defs>
</svg>
