<svg width="18" height="19" viewBox="0 0 18 19" fill="none" xmlns="http://www.w3.org/2000/svg">
<path d="M16.5 8.52168V3.42168C16.5 2.29668 16.02 1.84668 14.8275 1.84668H11.7975C10.605 1.84668 10.125 2.29668 10.125 3.42168V8.52168C10.125 9.64668 10.605 10.0967 11.7975 10.0967H14.8275C16.02 10.0967 16.5 9.64668 16.5 8.52168Z" stroke="#CCD0E5" stroke-width="1.5" stroke-linecap="round" stroke-linejoin="round"/>
<path d="M16.5 15.2717V13.9217C16.5 12.7967 16.02 12.3467 14.8275 12.3467H11.7975C10.605 12.3467 10.125 12.7967 10.125 13.9217V15.2717C10.125 16.3967 10.605 16.8467 11.7975 16.8467H14.8275C16.02 16.8467 16.5 16.3967 16.5 15.2717Z" stroke="#CCD0E5" stroke-width="1.5" stroke-linecap="round" stroke-linejoin="round"/>
<path d="M7.875 10.1717V15.2717C7.875 16.3967 7.395 16.8467 6.2025 16.8467H3.1725C1.98 16.8467 1.5 16.3967 1.5 15.2717V10.1717C1.5 9.04668 1.98 8.59668 3.1725 8.59668H6.2025C7.395 8.59668 7.875 9.04668 7.875 10.1717Z" stroke="#CCD0E5" stroke-width="1.5" stroke-linecap="round" stroke-linejoin="round"/>
<path d="M7.875 3.42168V4.77168C7.875 5.89668 7.395 6.34668 6.2025 6.34668H3.1725C1.98 6.34668 1.5 5.89668 1.5 4.77168V3.42168C1.5 2.29668 1.98 1.84668 3.1725 1.84668H6.2025C7.395 1.84668 7.875 2.29668 7.875 3.42168Z" stroke="#CCD0E5" stroke-width="1.5" stroke-linecap="round" stroke-linejoin="round"/>
</svg>
