<svg width="48" height="49" viewBox="0 0 48 49" fill="none" xmlns="http://www.w3.org/2000/svg">
<g id="fi_3220315" clip-path="url(#clip0_9244_1620)">
<g id="Group">
<path id="Vector" d="M37.9371 21.0009C37.9371 19.8011 37.4522 18.7149 36.6678 17.9269C36.211 17.4679 35.9931 16.8243 36.0336 16.178C36.0381 16.1069 36.0403 16.0353 36.0403 15.9632C36.0403 14.7698 35.4275 13.7194 34.4992 13.1097C33.873 12.6984 33.4774 12.0166 33.4774 11.2674V10.0974C33.4774 4.87089 29.2968 0.538793 24.0704 0.500262C18.803 0.461543 14.5213 4.71976 14.5213 9.97811V11.2674C14.5213 12.0167 14.1257 12.6984 13.4994 13.1097C12.5713 13.7194 11.9584 14.7697 11.9584 15.9632C11.9584 16.0354 11.9606 16.107 11.965 16.178C12.0055 16.8243 11.7876 17.4679 11.3309 17.9269C10.5465 18.715 10.0615 19.8011 10.0615 21.0009C10.0615 22.2083 10.5526 23.3005 11.3456 24.0898C11.7934 24.5354 12.0159 25.1489 11.9681 25.7787C11.9526 25.9839 11.9552 26.1941 11.9779 26.408C12.0823 27.3919 12.6144 28.2496 13.3773 28.8015L13.9301 29.3357H33.748L34.62 28.8024C35.3835 28.2504 35.9161 27.3924 36.0205 26.4079C36.0432 26.194 36.0459 25.9838 36.0304 25.7786C35.9826 25.1488 36.2051 24.5353 36.6529 24.0897C37.4462 23.3005 37.9371 22.2083 37.9371 21.0009Z" fill="#9D5E5E"/>
<path id="Vector_2" d="M16.5876 26.4081C16.5649 26.1942 16.5621 25.9839 16.5778 25.7788C16.6256 25.149 16.4031 24.5355 15.9553 24.0899C15.1623 23.3005 14.6712 22.2084 14.6712 21.001C14.6712 19.8012 15.1562 18.715 15.9406 17.927C16.3974 17.468 16.6152 16.8244 16.5747 16.1781C16.5702 16.107 16.5681 16.0354 16.5681 15.9633C16.5681 14.7699 17.1809 13.7195 18.1091 13.1098C18.7354 12.6985 19.131 12.0167 19.131 11.2674V9.97811C19.131 5.54186 22.1785 1.81754 26.2943 0.784606C25.5821 0.604699 24.8378 0.505887 24.0707 0.500262C18.803 0.461543 14.5213 4.71976 14.5213 9.97811V11.2674C14.5213 12.0167 14.1257 12.6984 13.4994 13.1097C12.5713 13.7194 11.9584 14.7697 11.9584 15.9632C11.9584 16.0354 11.9606 16.107 11.965 16.178C12.0055 16.8243 11.7876 17.4679 11.3309 17.9269C10.5465 18.715 10.0615 19.8011 10.0615 21.0009C10.0615 22.2083 10.5526 23.3005 11.3456 24.0898C11.7934 24.5354 12.0159 25.1489 11.9681 25.7787C11.9526 25.9839 11.9552 26.1941 11.9779 26.408C12.0823 27.3919 12.6144 28.2496 13.3773 28.8015L13.9301 29.3357H18.5396L17.9868 28.8015C17.224 28.2497 16.692 27.392 16.5876 26.4081Z" fill="#865151"/>
<path id="Vector_3" d="M30.581 27.2379C30.5424 27.2229 30.5049 27.2083 30.4668 27.1936L29.6604 27.549L23.769 32.4424L18.0869 27.3719L17.4781 27.212C17.4559 27.2206 17.4344 27.2289 17.412 27.2376L17.126 27.6938L20.8314 47.4927L21.6743 48.4997H26.319L26.7229 48.048L31.0449 27.8225L30.581 27.2379Z" fill="#FFF5F5"/>
<path id="Vector_4" d="M23.3904 32.871V32.1046L18.0869 27.3721L17.4781 27.2122C17.4559 27.2208 17.4344 27.2291 17.412 27.2378L17.126 27.6939L20.8314 47.4929L21.6743 48.4999H26.319L26.6041 48.1811L23.3904 32.871Z" fill="#EEE1DD"/>
<path id="Vector_5" d="M28.2999 26.3548C28.0328 26.2515 27.8552 25.9944 27.8544 25.7064L27.8526 23.4395L26.8429 23.2754H20.6184L20.1405 23.4535L20.1406 25.7022C20.1406 26.2357 19.6647 26.3642 19.4619 26.4428V26.4427C19.4148 26.4609 18.6992 26.7384 17.4775 27.212L22.2172 32.1992C23.1129 33.0949 24.565 33.0949 25.4607 32.1992L30.4662 27.1937C29.3016 26.7427 28.4355 26.4073 28.2999 26.3548Z" fill="#FED1A3"/>
<path id="Vector_6" d="M23.3897 32.8264V23.2754H20.6184L20.1405 23.4535L20.1406 25.7022C20.1406 26.2357 19.6647 26.3642 19.4619 26.4428V26.4427C19.4148 26.4609 18.6993 26.7383 17.4775 27.212L22.2172 32.1992C22.5501 32.5323 22.96 32.741 23.3897 32.8264Z" fill="#FFBC85"/>
<path id="Vector_7" d="M17.4114 27.2378C14.6398 28.3124 10.0343 30.0978 9.95784 30.1274C8.34591 30.7908 6.1875 32.8782 6.1875 35.9756V47.2436C6.1875 47.9374 6.75 48.5 7.44394 48.5H21.6737L17.4114 27.2378Z" fill="#6081C4"/>
<path id="Vector_8" d="M30.5804 27.238L26.3184 48.5001H40.5555C41.2495 48.5001 41.812 47.9376 41.812 47.2436C41.812 46.2055 41.812 37.1979 41.812 35.9756C41.812 33.3082 40.1041 30.9764 38.0417 30.1275C37.7156 30.0013 33.3618 28.3152 30.5804 27.238Z" fill="#6081C4"/>
<path id="Vector_9" d="M12.7269 48.5V35.2358C12.7269 34.8358 12.4027 34.5115 12.0026 34.5115C11.6026 34.5115 11.2783 34.8358 11.2783 35.2358V48.5H12.7269Z" fill="#4E6FB2"/>
<path id="Vector_10" d="M36.7211 48.5V35.2358C36.7211 34.8358 36.3968 34.5115 35.9968 34.5115C35.5967 34.5115 35.2725 34.8358 35.2725 35.2358V48.5H36.7211Z" fill="#4E6FB2"/>
<path id="Vector_11" d="M29.7484 11.9275C28.7645 10.9525 27.3813 9.19867 26.3446 6.88483C26.0814 6.29748 25.4633 6.53317 25.3876 7.00867C25.2682 7.75848 24.6572 10.2919 21.6816 12.7308V17.7266C21.6816 20.6643 23.4959 23.2282 26.0585 24.3052C28.8381 23.4434 30.8735 20.811 30.8735 17.7603V14.656C30.8736 13.6337 30.4745 12.6474 29.7484 11.9275Z" fill="#FFE5C1"/>
<path id="Vector_12" d="M21.8641 17.7604V12.5784C21.1246 13.2059 20.232 13.8298 19.1534 14.4182C17.905 15.0992 17.125 16.405 17.125 17.8271C17.125 21.3596 19.8865 24.5891 24.0696 24.6031C24.8755 24.6058 25.6496 24.4628 26.3687 24.2005C23.7492 23.2447 21.8641 20.6964 21.8641 17.7604Z" fill="#FED1A3"/>
<path id="Vector_13" d="M9.34594 35.9647C9.34594 33.0099 10.8085 30.7245 12.0516 29.3157C10.8558 29.7793 9.99056 30.1147 9.95784 30.1274C8.34591 30.7907 6.1875 32.8781 6.1875 35.9755V47.2435C6.1875 47.9374 6.75 48.4999 7.44384 48.4999H9.34584C9.34594 44.9052 9.34594 39.272 9.34594 35.9647Z" fill="#4E6FB2"/>
</g>
</g>
<defs>
<clipPath id="clip0_9244_1620">
<rect width="48" height="48" fill="white" transform="translate(0 0.5)"/>
</clipPath>
</defs>
</svg>
