<svg width="40" height="40" viewBox="0 0 40 40" fill="none" xmlns="http://www.w3.org/2000/svg">
<path d="M26.3335 3.6834C25.6501 3.00007 24.4668 3.46674 24.4668 4.41674V10.2334C24.4668 12.6667 26.5335 14.6834 29.0501 14.6834C30.6335 14.7001 32.8335 14.7001 34.7168 14.7001C35.6668 14.7001 36.1668 13.5834 35.5001 12.9167C33.1001 10.5001 28.8001 6.15007 26.3335 3.6834Z" fill="#616C82"/>
<path d="M34.166 16.9833H29.3493C25.3993 16.9833 22.1827 13.7666 22.1827 9.81659V4.99992C22.1827 4.08325 21.4327 3.33325 20.516 3.33325H13.4493C8.31602 3.33325 4.16602 6.66659 4.16602 12.6166V27.3833C4.16602 33.3333 8.31602 36.6666 13.4493 36.6666H26.5493C31.6827 36.6666 35.8327 33.3333 35.8327 27.3833V18.6499C35.8327 17.7333 35.0827 16.9833 34.166 16.9833ZM19.166 29.5833H12.4993C11.816 29.5833 11.2493 29.0166 11.2493 28.3333C11.2493 27.6499 11.816 27.0833 12.4993 27.0833H19.166C19.8493 27.0833 20.416 27.6499 20.416 28.3333C20.416 29.0166 19.8493 29.5833 19.166 29.5833ZM22.4993 22.9166H12.4993C11.816 22.9166 11.2493 22.3499 11.2493 21.6666C11.2493 20.9833 11.816 20.4166 12.4993 20.4166H22.4993C23.1827 20.4166 23.7493 20.9833 23.7493 21.6666C23.7493 22.3499 23.1827 22.9166 22.4993 22.9166Z" fill="#616C82"/>
</svg>
