<svg width="38" height="40" viewBox="0 0 38 40" fill="none" xmlns="http://www.w3.org/2000/svg">
<path fill-rule="evenodd" clip-rule="evenodd" d="M12.1705 0H25.7157L37.6766 11.9586V34.9271C37.6766 37.7184 35.3928 40 32.6038 40H12.1705C9.38148 40 7.09766 37.7184 7.09766 34.9271V5.07289C7.09766 2.28148 9.38156 0 12.1705 0Z" fill="#008BF5"/>
<path fill-rule="evenodd" clip-rule="evenodd" d="M25.7168 0L37.6777 11.9586H27.0084C26.2975 11.9586 25.7168 11.3802 25.7168 10.6692V0Z" fill="#006FC4"/>
<path fill-rule="evenodd" clip-rule="evenodd" d="M1.43758 17.0315H28.9852C29.5978 17.0315 30.1008 17.5321 30.1008 18.1449V28.2517C30.1008 28.8644 29.5978 29.3674 28.9852 29.3674H1.43758C0.824844 29.3674 0.324219 28.8644 0.324219 28.2517V18.1449C0.324219 17.5321 0.824844 17.0315 1.43758 17.0315Z" fill="#006FC4"/>
<path d="M15.212 19.0947C13.71 19.0947 12.4881 20.3167 12.4881 21.8186V24.5801C12.4881 26.0821 13.7101 27.3039 15.212 27.3039C16.714 27.3039 17.9359 26.082 17.9359 24.5801V21.8186C17.9359 20.3166 16.714 19.0947 15.212 19.0947ZM16.6443 24.5801C16.6443 25.3698 16.0018 26.0123 15.2121 26.0123C14.4223 26.0123 13.7798 25.3698 13.7798 24.5801V21.8186C13.7798 21.0289 14.4223 20.3864 15.2121 20.3864C16.0018 20.3864 16.6443 21.0289 16.6443 21.8186V24.5801ZM24.7873 24.5801C24.7873 26.0821 23.5654 27.3039 22.0635 27.3039C20.5616 27.3039 19.3397 26.082 19.3397 24.5801V21.8186C19.3397 20.3166 20.5616 19.0947 22.0635 19.0947C23.5654 19.0947 24.7873 20.3167 24.7873 21.8186C24.7873 22.1753 24.4982 22.4644 24.1415 22.4644C23.7848 22.4644 23.4957 22.1753 23.4957 21.8186C23.4957 21.0289 22.8532 20.3864 22.0635 20.3864C21.2738 20.3864 20.6313 21.0289 20.6313 21.8186V24.5801C20.6313 25.3698 21.2738 26.0123 22.0635 26.0123C22.8532 26.0123 23.4957 25.3698 23.4957 24.5801C23.4957 24.2234 23.7848 23.9343 24.1415 23.9343C24.4982 23.9343 24.7873 24.2235 24.7873 24.5801ZM8.36055 19.0947H6.2825C5.92578 19.0947 5.63672 19.3839 5.63672 19.7405V26.6582C5.63672 27.0149 5.92586 27.3039 6.2825 27.3039H8.36055C9.86258 27.3039 11.0845 26.082 11.0845 24.5801V21.8186C11.0845 20.3166 9.86258 19.0947 8.36055 19.0947ZM9.79281 24.5801C9.79281 25.3698 9.15031 26.0123 8.36055 26.0123H6.92836V20.3863H8.36055C9.15031 20.3863 9.79281 21.0288 9.79281 21.8185V24.5801Z" fill="white"/>
</svg>
