<svg width="16" height="17" viewBox="0 0 16 17" fill="none" xmlns="http://www.w3.org/2000/svg">
<path d="M14.0599 5.15333C13.4933 4.52666 12.5466 4.21333 11.1733 4.21333H11.0133V4.18666C11.0133 3.06666 11.0133 1.67999 8.50661 1.67999H7.49328C4.98661 1.67999 4.98661 3.07333 4.98661 4.18666V4.21999H4.82661C3.44661 4.21999 2.50661 4.53333 1.93994 5.15999C1.27994 5.89333 1.29994 6.87999 1.36661 7.55333L1.37328 7.59999L1.4174 8.06327C1.43166 8.21305 1.51241 8.34849 1.63857 8.43047C1.79893 8.53467 2.02015 8.67566 2.15994 8.75333C2.25328 8.81333 2.35328 8.86666 2.45328 8.91999C3.59328 9.54666 4.84661 9.96666 6.11994 10.1733C6.17994 10.8 6.45328 11.5333 7.91328 11.5333C9.37328 11.5333 9.65994 10.8067 9.70661 10.16C11.0666 9.93999 12.3799 9.46666 13.5666 8.77333C13.6066 8.75333 13.6333 8.73333 13.6666 8.71333C13.9104 8.57555 14.1625 8.40829 14.3964 8.24168C14.5099 8.16081 14.582 8.03458 14.5974 7.89607L14.5999 7.87333L14.6333 7.55999C14.6399 7.51999 14.6399 7.48666 14.6466 7.43999C14.6999 6.76666 14.6866 5.84666 14.0599 5.15333ZM8.72661 9.71999C8.72661 10.4267 8.72661 10.5333 7.90661 10.5333C7.08661 10.5333 7.08661 10.4067 7.08661 9.72666V8.88666H8.72661V9.71999ZM5.93994 4.21333V4.18666C5.93994 3.05333 5.93994 2.63333 7.49328 2.63333H8.50661C10.0599 2.63333 10.0599 3.05999 10.0599 4.18666V4.21999H5.93994V4.21333Z" fill="#616C82"/>
<path d="M13.6456 9.78353C14.0003 9.6176 14.4077 9.8985 14.3723 10.2885L14.1601 12.6267C14.0201 13.96 13.4734 15.32 10.5401 15.32H5.46006C2.52672 15.32 1.98006 13.96 1.84006 12.6333L1.63935 10.4255C1.6043 10.04 2.00224 9.75949 2.35586 9.91682C3.11559 10.2548 4.25608 10.7378 5.02976 10.9539C5.19335 10.9996 5.32589 11.1181 5.40399 11.2689C5.82484 12.0817 6.68651 12.5133 7.91339 12.5133C9.12824 12.5133 9.99995 12.065 10.4226 11.2491C10.5008 11.0982 10.6338 10.9797 10.7975 10.9336C11.6223 10.7012 12.8451 10.158 13.6456 9.78353Z" fill="#616C82"/>
</svg>
