<svg width="233" height="68" viewBox="0 0 233 68" fill="none" xmlns="http://www.w3.org/2000/svg">
<path fill-rule="evenodd" clip-rule="evenodd" d="M56.8367 41.554C58.8973 43.5934 59.9294 46.2766 59.9294 48.9526C59.9294 51.6286 58.8973 54.3118 56.8385 56.3529L56.8385 56.3618C54.776 58.3994 52.0613 59.4209 49.3538 59.4209C46.6462 59.4209 43.9387 58.3994 41.8763 56.3583L41.8655 56.3583L23.1464 37.8282L26.8358 34.175L45.5568 52.7069L45.5532 52.7122C46.5943 53.7372 47.9722 54.2533 49.3538 54.2533C50.7353 54.2533 52.1097 53.7354 53.1472 52.7086L53.1526 52.714C54.1883 51.6836 54.7097 50.3199 54.7097 48.9526C54.7097 47.5853 54.1919 46.2216 53.1526 45.1913L53.1472 45.1966L45.8345 37.9594L49.5258 34.3062L56.8385 41.5434L56.8385 41.5523L56.8367 41.554Z" fill="#50B57B"/>
<path d="M22.7471 14.8102L41.5295 32.5697L45.137 28.8677L26.5059 11.2577C24.4057 9.27356 21.6395 8.27977 18.8805 8.27977C16.127 8.27977 13.3608 9.27356 11.2569 11.2663C9.1676 13.2436 8.12022 15.8574 8.12022 18.4644L8.10927 18.4644C8.10927 21.0679 9.1603 23.6801 11.2587 25.6625L11.2587 25.6711L18.4658 32.7157L22.0062 29.1301L15.0158 22.1204L15.0121 22.1238C13.9556 21.1232 13.4265 19.7964 13.4265 18.4644L13.4155 18.4644C13.4173 17.1394 13.952 15.8091 15.0176 14.8033C16.0668 13.806 17.481 13.3074 18.8823 13.3074C20.2837 13.3074 21.6887 13.8077 22.7471 14.8102Z" fill="#D9325B"/>
<path fill-rule="evenodd" clip-rule="evenodd" d="M42.0611 10.6847C44.1024 8.62416 46.7857 7.59208 49.4602 7.59208C52.1346 7.59208 54.8197 8.62595 56.861 10.6829L56.8699 10.6829C58.9077 12.7435 59.931 15.458 59.9292 18.169C59.9292 20.8746 58.9077 23.5838 56.8681 25.6462L56.8681 25.6569L38.4644 44.2485L34.8127 40.5574L53.2147 21.9658L53.22 21.9712C54.2469 20.9302 54.7612 19.5505 54.7612 18.169C54.7612 16.7876 54.2433 15.4133 53.2165 14.3758L53.2218 14.3722C52.1914 13.3366 50.8275 12.8152 49.4602 12.8152C48.0928 12.8152 46.7272 13.3348 45.6985 14.3722L45.7039 14.3758L38.5304 21.5631L34.8127 17.997L42.0504 10.6847L42.0593 10.6847L42.0611 10.6847Z" fill="#F0BB2B"/>
<path d="M15.0335 45.0345L33.4538 26.0681L33.4556 26.0681L29.8111 22.3149L11.3926 41.2831C9.35813 43.3802 8.33911 46.1459 8.33911 48.8952C8.33911 51.6445 9.35813 54.4066 11.4015 56.5073C13.4271 58.5934 16.1074 59.6392 18.7806 59.6392L18.7806 59.6501C21.452 59.6501 24.1287 58.6007 26.1632 56.5055L26.172 56.5055L33.3936 49.0683L29.7024 45.4111L22.5294 52.7541L22.5329 52.7577C21.5068 53.8126 20.1463 54.3392 18.7806 54.3392L18.7806 54.3501C17.4219 54.3501 16.0579 53.8181 15.0264 52.7541C14.0057 51.7065 13.4926 50.2963 13.4926 48.8952C13.4926 47.4941 14.0057 46.0912 15.0335 45.0345Z" fill="#3EA4CF"/>
<circle cx="60.9567" cy="60.0285" r="5.09117" transform="rotate(-180 60.9567 60.0285)" fill="#50B57B"/>
<circle cx="7.26967" cy="60.0285" r="5.09117" transform="rotate(-180 7.26967 60.0285)" fill="#3EA4CF"/>
<circle cx="60.9567" cy="7.05787" r="5.09117" transform="rotate(-180 60.9567 7.05787)" fill="#F0BB2B"/>
<circle cx="7.26967" cy="7.058" r="5.09117" transform="rotate(-180 7.26967 7.058)" fill="#D9325B"/>
<path d="M161.632 8.03003C163.693 8.03003 165.636 8.4767 167.46 9.37003C169.284 10.2187 170.85 11.4024 172.158 12.921C173.506 14.395 174.557 16.1594 175.31 18.214C176.103 20.2687 176.5 22.4574 176.5 24.78V41.53H173.526V24.78C173.526 22.9487 173.209 21.229 172.575 19.621C171.94 17.9684 171.088 16.539 170.017 15.333C168.947 14.127 167.678 13.1667 166.211 12.452C164.784 11.7374 163.257 11.38 161.632 11.38C160.006 11.38 158.46 11.7374 156.993 12.452C155.565 13.1667 154.316 14.127 153.246 15.333C152.175 16.539 151.323 17.9684 150.688 19.621C150.054 21.229 149.737 22.9487 149.737 24.78V41.53H146.763V24.78C146.763 22.9487 146.446 21.229 145.812 19.621C145.177 17.9684 144.325 16.539 143.254 15.333C142.184 14.127 140.915 13.1667 139.448 12.452C138.02 11.7374 136.494 11.38 134.868 11.38C133.243 11.38 131.696 11.7374 130.229 12.452C128.802 13.1667 127.553 14.127 126.483 15.333C125.412 16.539 124.56 17.9684 123.925 19.621C123.291 21.229 122.974 22.9487 122.974 24.78V41.53H120V24.78C120 22.4574 120.396 20.2687 121.189 18.214C121.982 16.1594 123.053 14.395 124.401 12.921C125.789 11.4024 127.375 10.2187 129.159 9.37003C130.943 8.4767 132.846 8.03003 134.868 8.03003C136.335 8.03003 137.743 8.2757 139.091 8.76703C140.479 9.21369 141.747 9.86136 142.897 10.71C144.047 11.5587 145.078 12.5637 145.99 13.725C146.902 14.8417 147.655 16.07 148.25 17.41C148.845 16.07 149.598 14.8417 150.51 13.725C151.462 12.5637 152.512 11.5587 153.662 10.71C154.852 9.86136 156.12 9.21369 157.468 8.76703C158.816 8.2757 160.204 8.03003 161.632 8.03003Z" fill="url(#paint0_linear_10049_27157)"/>
<path d="M95.043 38.18C96.651 38.18 98.1473 37.9343 99.532 37.443C100.917 36.907 102.167 36.1923 103.284 35.299C104.445 34.4057 105.428 33.356 106.232 32.15C106.9 31.1654 107.43 30.1254 107.821 29.03H111.244C110.822 30.6117 110.179 32.0983 109.314 33.49C108.287 35.098 107.058 36.505 105.629 37.711C104.2 38.917 102.569 39.855 100.738 40.525C98.9513 41.195 97.053 41.53 95.043 41.53C92.6756 41.53 90.4646 41.1057 88.41 40.257C86.4 39.3637 84.6356 38.18 83.117 36.706C81.643 35.1873 80.4593 33.423 79.566 31.413C78.7173 29.3583 78.293 27.1473 78.293 24.78C78.293 22.4573 78.7173 20.2687 79.566 18.214C80.4593 16.1593 81.643 14.395 83.117 12.921C84.6356 11.4023 86.4 10.2187 88.41 9.37C90.4646 8.47667 92.6756 8.03 95.043 8.03C97.053 8.03 98.9513 8.365 100.738 9.035C102.569 9.705 104.2 10.643 105.629 11.849C107.058 13.055 108.287 14.4843 109.314 16.137C110.087 17.3463 110.682 18.6439 111.101 20.03C111.101 20.03 111 20.03 110.75 20.03H109.5C109.25 20.03 107.628 20.03 107.628 20.03C107.262 19.1297 106.796 18.2787 106.232 17.477C105.428 16.2263 104.445 15.1543 103.284 14.261C102.167 13.3677 100.917 12.6753 99.532 12.184C98.1473 11.648 96.651 11.38 95.043 11.38C93.2116 11.38 91.4696 11.7373 89.817 12.452C88.209 13.1667 86.802 14.127 85.596 15.333C84.39 16.539 83.4296 17.9683 82.715 19.621C82.0003 21.229 81.643 22.9487 81.643 24.78C81.643 26.6113 82.0003 28.3533 82.715 30.006C83.4296 31.614 84.39 33.021 85.596 34.227C86.802 35.433 88.209 36.3933 89.817 37.108C91.4696 37.8227 93.2116 38.18 95.043 38.18Z" fill="url(#paint1_linear_10049_27157)"/>
<path d="M188.151 41.53H184.801V10.53H188.151V41.53ZM188.151 5.35H184.801V2H188.151V5.35Z" fill="url(#paint2_linear_10049_27157)"/>
<path d="M214.29 8.03C216.613 8.03 218.801 8.47667 220.856 9.37C222.911 10.2187 224.675 11.4023 226.149 12.921C227.668 14.395 228.851 16.1593 229.7 18.214C230.593 20.2687 231.04 22.4573 231.04 24.78C231.04 27.1473 230.593 29.3583 229.7 31.413C228.851 33.423 227.668 35.1873 226.149 36.706C224.675 38.18 222.911 39.3637 220.856 40.257C218.801 41.1057 216.613 41.53 214.29 41.53C211.923 41.53 209.712 41.1057 207.657 40.257C205.647 39.3637 203.883 38.18 202.364 36.706C200.89 35.1873 199.706 33.423 198.813 31.413C197.964 29.3583 197.54 27.1473 197.54 24.78V2H200.89V14.73C202.409 12.72 204.352 11.112 206.719 9.906C209.086 8.65533 211.61 8.03 214.29 8.03ZM214.29 38.18C216.121 38.18 217.841 37.8227 219.449 37.108C221.102 36.3933 222.531 35.433 223.737 34.227C224.943 33.021 225.903 31.614 226.618 30.006C227.333 28.3533 227.69 26.6113 227.69 24.78C227.69 22.9487 227.333 21.229 226.618 19.621C225.903 17.9683 224.943 16.539 223.737 15.333C222.531 14.127 221.102 13.1667 219.449 12.452C217.841 11.7373 216.121 11.38 214.29 11.38C212.459 11.38 210.717 11.7373 209.064 12.452C207.456 13.1667 206.049 14.127 204.843 15.333C203.637 16.539 202.677 17.9683 201.962 19.621C201.247 21.229 200.89 22.9487 200.89 24.78C200.89 26.6113 201.247 28.3533 201.962 30.006C202.677 31.614 203.637 33.021 204.843 34.227C206.049 35.433 207.456 36.3933 209.064 37.108C210.717 37.8227 212.459 38.18 214.29 38.18Z" fill="url(#paint3_linear_10049_27157)"/>
<path d="M161.632 8.03003C163.693 8.03003 165.636 8.4767 167.46 9.37003C169.284 10.2187 170.85 11.4024 172.158 12.921C173.506 14.395 174.557 16.1594 175.31 18.214C176.103 20.2687 176.5 22.4574 176.5 24.78V41.53H173.526V24.78C173.526 22.9487 173.209 21.229 172.575 19.621C171.94 17.9684 171.088 16.539 170.017 15.333C168.947 14.127 167.678 13.1667 166.211 12.452C164.784 11.7374 163.257 11.38 161.632 11.38C160.006 11.38 158.46 11.7374 156.993 12.452C155.565 13.1667 154.316 14.127 153.246 15.333C152.175 16.539 151.323 17.9684 150.688 19.621C150.054 21.229 149.737 22.9487 149.737 24.78V41.53H146.763V24.78C146.763 22.9487 146.446 21.229 145.812 19.621C145.177 17.9684 144.325 16.539 143.254 15.333C142.184 14.127 140.915 13.1667 139.448 12.452C138.02 11.7374 136.494 11.38 134.868 11.38C133.243 11.38 131.696 11.7374 130.229 12.452C128.802 13.1667 127.553 14.127 126.483 15.333C125.412 16.539 124.56 17.9684 123.925 19.621C123.291 21.229 122.974 22.9487 122.974 24.78V41.53H120V24.78C120 22.4574 120.396 20.2687 121.189 18.214C121.982 16.1594 123.053 14.395 124.401 12.921C125.789 11.4024 127.375 10.2187 129.159 9.37003C130.943 8.4767 132.846 8.03003 134.868 8.03003C136.335 8.03003 137.743 8.2757 139.091 8.76703C140.479 9.21369 141.747 9.86136 142.897 10.71C144.047 11.5587 145.078 12.5637 145.99 13.725C146.902 14.8417 147.655 16.07 148.25 17.41C148.845 16.07 149.598 14.8417 150.51 13.725C151.462 12.5637 152.512 11.5587 153.662 10.71C154.852 9.86136 156.12 9.21369 157.468 8.76703C158.816 8.2757 160.204 8.03003 161.632 8.03003Z" stroke="url(#paint4_linear_10049_27157)" stroke-width="2"/>
<path d="M95.043 38.18C96.651 38.18 98.1473 37.9343 99.532 37.443C100.917 36.907 102.167 36.1923 103.284 35.299C104.445 34.4057 105.428 33.356 106.232 32.15C106.9 31.1654 107.43 30.1254 107.821 29.03H111.244C110.822 30.6117 110.179 32.0983 109.314 33.49C108.287 35.098 107.058 36.505 105.629 37.711C104.2 38.917 102.569 39.855 100.738 40.525C98.9513 41.195 97.053 41.53 95.043 41.53C92.6756 41.53 90.4646 41.1057 88.41 40.257C86.4 39.3637 84.6356 38.18 83.117 36.706C81.643 35.1873 80.4593 33.423 79.566 31.413C78.7173 29.3583 78.293 27.1473 78.293 24.78C78.293 22.4573 78.7173 20.2687 79.566 18.214C80.4593 16.1593 81.643 14.395 83.117 12.921C84.6356 11.4023 86.4 10.2187 88.41 9.37C90.4646 8.47667 92.6756 8.03 95.043 8.03C97.053 8.03 98.9513 8.365 100.738 9.035C102.569 9.705 104.2 10.643 105.629 11.849C107.058 13.055 108.287 14.4843 109.314 16.137C110.087 17.3463 110.682 18.6439 111.101 20.03C111.101 20.03 111 20.03 110.75 20.03H109.5C109.25 20.03 107.628 20.03 107.628 20.03C107.262 19.1297 106.796 18.2787 106.232 17.477C105.428 16.2263 104.445 15.1543 103.284 14.261C102.167 13.3677 100.917 12.6753 99.532 12.184C98.1473 11.648 96.651 11.38 95.043 11.38C93.2116 11.38 91.4696 11.7373 89.817 12.452C88.209 13.1667 86.802 14.127 85.596 15.333C84.39 16.539 83.4296 17.9683 82.715 19.621C82.0003 21.229 81.643 22.9487 81.643 24.78C81.643 26.6113 82.0003 28.3533 82.715 30.006C83.4296 31.614 84.39 33.021 85.596 34.227C86.802 35.433 88.209 36.3933 89.817 37.108C91.4696 37.8227 93.2116 38.18 95.043 38.18Z" stroke="url(#paint5_linear_10049_27157)" stroke-width="2"/>
<path d="M188.151 41.53H184.801V10.53H188.151V41.53ZM188.151 5.35H184.801V2H188.151V5.35Z" stroke="url(#paint6_linear_10049_27157)" stroke-width="2"/>
<path d="M214.29 8.03C216.613 8.03 218.801 8.47667 220.856 9.37C222.911 10.2187 224.675 11.4023 226.149 12.921C227.668 14.395 228.851 16.1593 229.7 18.214C230.593 20.2687 231.04 22.4573 231.04 24.78C231.04 27.1473 230.593 29.3583 229.7 31.413C228.851 33.423 227.668 35.1873 226.149 36.706C224.675 38.18 222.911 39.3637 220.856 40.257C218.801 41.1057 216.613 41.53 214.29 41.53C211.923 41.53 209.712 41.1057 207.657 40.257C205.647 39.3637 203.883 38.18 202.364 36.706C200.89 35.1873 199.706 33.423 198.813 31.413C197.964 29.3583 197.54 27.1473 197.54 24.78V2H200.89V14.73C202.409 12.72 204.352 11.112 206.719 9.906C209.086 8.65533 211.61 8.03 214.29 8.03ZM214.29 38.18C216.121 38.18 217.841 37.8227 219.449 37.108C221.102 36.3933 222.531 35.433 223.737 34.227C224.943 33.021 225.903 31.614 226.618 30.006C227.333 28.3533 227.69 26.6113 227.69 24.78C227.69 22.9487 227.333 21.229 226.618 19.621C225.903 17.9683 224.943 16.539 223.737 15.333C222.531 14.127 221.102 13.1667 219.449 12.452C217.841 11.7373 216.121 11.38 214.29 11.38C212.459 11.38 210.717 11.7373 209.064 12.452C207.456 13.1667 206.049 14.127 204.843 15.333C203.637 16.539 202.677 17.9683 201.962 19.621C201.247 21.229 200.89 22.9487 200.89 24.78C200.89 26.6113 201.247 28.3533 201.962 30.006C202.677 31.614 203.637 33.021 204.843 34.227C206.049 35.433 207.456 36.3933 209.064 37.108C210.717 37.8227 212.459 38.18 214.29 38.18Z" stroke="url(#paint7_linear_10049_27157)" stroke-width="2"/>
<path d="M80.601 54.5771C79.2706 54.5771 78.2395 53.4928 78.2395 52.0825C78.2395 50.6789 79.2706 49.6013 80.601 49.6013C81.7984 49.6013 82.7563 50.3995 82.9359 51.5769H82.1576C82.0246 50.8053 81.3993 50.2598 80.6077 50.2598C79.663 50.2598 78.9978 51.0248 78.9978 52.0825C78.9978 53.1535 79.663 53.9185 80.6077 53.9185C81.3993 53.9185 82.0246 53.3664 82.1576 52.5947H82.9359C82.7563 53.7788 81.7984 54.5771 80.601 54.5771ZM85.12 54.5438C84.1221 54.5438 83.3904 53.7589 83.3904 52.7145C83.3904 51.6701 84.1221 50.8851 85.12 50.8851C86.1178 50.8851 86.8495 51.6701 86.8495 52.7145C86.8495 53.7589 86.1178 54.5438 85.12 54.5438ZM85.12 53.9518C85.6987 53.9518 86.1577 53.4861 86.1577 52.7145C86.1577 51.9428 85.6987 51.4838 85.12 51.4838C84.5412 51.4838 84.0889 51.9428 84.0889 52.7145C84.0889 53.4861 84.5412 53.9518 85.12 53.9518ZM88.2063 54.4773H87.5344V50.9516H88.1597V51.537C88.3992 51.1313 88.7784 50.8851 89.264 50.8851C89.7829 50.8851 90.1754 51.1512 90.335 51.6169C90.5811 51.1645 90.9869 50.8851 91.5257 50.8851C92.2508 50.8851 92.7165 51.3574 92.7165 52.1956V54.4773H92.0446V52.4085C92.0446 51.8231 91.7852 51.4772 91.2929 51.4772C90.8339 51.4772 90.4614 51.863 90.4614 52.455V54.4773H89.7895V52.4085C89.7895 51.8231 89.5301 51.4772 89.0378 51.4772C88.5722 51.4772 88.2063 51.863 88.2063 52.455V54.4773ZM94.2868 54.4773H93.6149V50.9516H94.2402V51.537C94.4797 51.1313 94.8589 50.8851 95.3445 50.8851C95.8634 50.8851 96.2559 51.1512 96.4155 51.6169C96.6616 51.1645 97.0674 50.8851 97.6062 50.8851C98.3313 50.8851 98.797 51.3574 98.797 52.1956V54.4773H98.1251V52.4085C98.1251 51.8231 97.8657 51.4772 97.3734 51.4772C96.9144 51.4772 96.5419 51.863 96.5419 52.455V54.4773H95.87V52.4085C95.87 51.8231 95.6106 51.4772 95.1183 51.4772C94.6527 51.4772 94.2868 51.863 94.2868 52.455V54.4773ZM100.514 50.1334C100.514 50.3862 100.314 50.5791 100.028 50.5791C99.742 50.5791 99.5358 50.3862 99.5358 50.1334C99.5358 49.874 99.742 49.6877 100.028 49.6877C100.314 49.6877 100.514 49.874 100.514 50.1334ZM100.367 54.4773H99.6954V50.9516H100.367V54.4773ZM103.289 53.8254V54.4174C103.083 54.5106 102.903 54.5438 102.69 54.5438C102.038 54.5438 101.586 54.1913 101.586 53.4129V51.5237H100.808V50.9516H101.586V49.9073H102.258V50.9516H103.322V51.5237H102.258V53.2599C102.258 53.7456 102.491 53.9185 102.85 53.9185C103.01 53.9185 103.149 53.8919 103.289 53.8254ZM106.069 53.8254V54.4174C105.863 54.5106 105.684 54.5438 105.471 54.5438C104.819 54.5438 104.366 54.1913 104.366 53.4129V51.5237H103.588V50.9516H104.366V49.9073H105.038V50.9516H106.103V51.5237H105.038V53.2599C105.038 53.7456 105.271 53.9185 105.63 53.9185C105.79 53.9185 105.93 53.8919 106.069 53.8254ZM108.097 54.5438C107.079 54.5438 106.394 53.8054 106.394 52.6945C106.394 51.6501 107.105 50.8851 108.077 50.8851C109.128 50.8851 109.826 51.7366 109.706 52.8808H107.079C107.132 53.5992 107.491 54.0183 108.083 54.0183C108.582 54.0183 108.928 53.7456 109.041 53.2866H109.706C109.533 54.0715 108.928 54.5438 108.097 54.5438ZM108.063 51.3907C107.525 51.3907 107.159 51.7765 107.085 52.4351H108.995C108.961 51.7832 108.609 51.3907 108.063 51.3907ZM111.806 54.5438C110.788 54.5438 110.103 53.8054 110.103 52.6945C110.103 51.6501 110.815 50.8851 111.786 50.8851C112.837 50.8851 113.536 51.7366 113.416 52.8808H110.788C110.841 53.5992 111.201 54.0183 111.793 54.0183C112.292 54.0183 112.638 53.7456 112.751 53.2866H113.416C113.243 54.0715 112.638 54.5438 111.806 54.5438ZM111.773 51.3907C111.234 51.3907 110.868 51.7765 110.795 52.4351H112.704C112.671 51.7832 112.318 51.3907 111.773 51.3907ZM116.512 54.4773H115.84V51.5237H115.061V50.9516H115.84V50.6922C115.84 50.0137 116.206 49.6412 116.871 49.6412C117.07 49.6412 117.23 49.6744 117.363 49.7276V50.2731C117.257 50.2266 117.137 50.2133 117.017 50.2133C116.698 50.2133 116.512 50.3596 116.512 50.6989V50.9516H117.496V51.5237H116.512V54.4773ZM119.388 54.5438C118.39 54.5438 117.658 53.7589 117.658 52.7145C117.658 51.6701 118.39 50.8851 119.388 50.8851C120.386 50.8851 121.117 51.6701 121.117 52.7145C121.117 53.7589 120.386 54.5438 119.388 54.5438ZM119.388 53.9518C119.966 53.9518 120.425 53.4861 120.425 52.7145C120.425 51.9428 119.966 51.4838 119.388 51.4838C118.809 51.4838 118.357 51.9428 118.357 52.7145C118.357 53.4861 118.809 53.9518 119.388 53.9518ZM122.474 52.6746V54.4773H121.802V50.9516H122.428V51.6967C122.674 51.2111 123.206 50.9051 123.785 50.9051V51.6036C123.026 51.5636 122.474 51.8963 122.474 52.6746ZM127.942 54.4773L126.432 50.8253V54.4773H125.76V49.701H126.658L128.261 53.5793L129.857 49.701H130.762V54.4773H130.084V50.8186L128.567 54.4773H127.942ZM133.192 54.5438C132.174 54.5438 131.489 53.8054 131.489 52.6945C131.489 51.6501 132.201 50.8851 133.172 50.8851C134.223 50.8851 134.921 51.7366 134.802 52.8808H132.174C132.227 53.5992 132.586 54.0183 133.178 54.0183C133.677 54.0183 134.023 53.7456 134.136 53.2866H134.802C134.629 54.0715 134.023 54.5438 133.192 54.5438ZM133.158 51.3907C132.62 51.3907 132.254 51.7765 132.181 52.4351H134.09C134.056 51.7832 133.704 51.3907 133.158 51.3907ZM136.188 54.4773H135.516V50.9516H136.141V51.537C136.381 51.1313 136.76 50.8851 137.245 50.8851C137.764 50.8851 138.157 51.1512 138.316 51.6169C138.563 51.1645 138.968 50.8851 139.507 50.8851C140.232 50.8851 140.698 51.3574 140.698 52.1956V54.4773H140.026V52.4085C140.026 51.8231 139.767 51.4772 139.274 51.4772C138.815 51.4772 138.443 51.863 138.443 52.455V54.4773H137.771V52.4085C137.771 51.8231 137.511 51.4772 137.019 51.4772C136.554 51.4772 136.188 51.863 136.188 52.455V54.4773ZM144.962 52.7145C144.962 53.7722 144.35 54.5438 143.399 54.5438C142.9 54.5438 142.474 54.291 142.222 53.8453V54.4773H141.596V49.701H142.268V51.557C142.514 51.1246 142.92 50.8851 143.399 50.8851C144.344 50.8851 144.962 51.6435 144.962 52.7145ZM144.264 52.7145C144.264 51.9162 143.845 51.4772 143.266 51.4772C142.707 51.4772 142.268 51.9096 142.268 52.7012C142.268 53.4795 142.694 53.9451 143.266 53.9451C143.845 53.9451 144.264 53.4994 144.264 52.7145ZM147.094 54.5438C146.076 54.5438 145.391 53.8054 145.391 52.6945C145.391 51.6501 146.103 50.8851 147.074 50.8851C148.125 50.8851 148.823 51.7366 148.704 52.8808H146.076C146.129 53.5992 146.488 54.0183 147.08 54.0183C147.579 54.0183 147.925 53.7456 148.038 53.2866H148.704C148.531 54.0715 147.925 54.5438 147.094 54.5438ZM147.06 51.3907C146.522 51.3907 146.156 51.7765 146.083 52.4351H147.992C147.958 51.7832 147.606 51.3907 147.06 51.3907ZM150.09 52.6746V54.4773H149.418V50.9516H150.043V51.6967C150.289 51.2111 150.821 50.9051 151.4 50.9051V51.6036C150.642 51.5636 150.09 51.8963 150.09 52.6746ZM154.726 53.4263C154.726 54.1181 154.187 54.5438 153.249 54.5438C152.318 54.5438 151.766 54.0848 151.699 53.3265H152.344C152.371 53.7655 152.724 54.0383 153.262 54.0383C153.735 54.0383 154.047 53.8719 154.047 53.5393C154.047 53.2466 153.868 53.1203 153.429 53.0338L152.857 52.9273C152.205 52.8009 151.839 52.4683 151.839 51.9362C151.839 51.3175 152.378 50.8851 153.196 50.8851C154.041 50.8851 154.613 51.3375 154.673 52.0626H154.027C153.987 51.6368 153.675 51.3907 153.202 51.3907C152.777 51.3907 152.491 51.5703 152.491 51.8763C152.491 52.1623 152.67 52.2954 153.096 52.3752L153.695 52.4883C154.393 52.6147 154.726 52.9207 154.726 53.4263ZM157.668 50.1334C157.668 50.3862 157.468 50.5791 157.182 50.5791C156.896 50.5791 156.69 50.3862 156.69 50.1334C156.69 49.874 156.896 49.6877 157.182 49.6877C157.468 49.6877 157.668 49.874 157.668 50.1334ZM157.521 54.4773H156.85V50.9516H157.521V54.4773ZM159.126 52.4883V54.4773H158.454V50.9516H159.079V51.537C159.319 51.1446 159.718 50.8851 160.204 50.8851C160.929 50.8851 161.408 51.3508 161.408 52.1956V54.4773H160.736V52.4218C160.736 51.8164 160.47 51.4772 159.971 51.4772C159.512 51.4772 159.126 51.863 159.126 52.4883ZM164.508 50.1334C164.508 50.3862 164.309 50.5791 164.023 50.5791C163.737 50.5791 163.53 50.3862 163.53 50.1334C163.53 49.874 163.737 49.6877 164.023 49.6877C164.309 49.6877 164.508 49.874 164.508 50.1334ZM164.362 54.4773H163.69V50.9516H164.362V54.4773ZM165.967 52.4883V54.4773H165.295V50.9516H165.92V51.537C166.159 51.1446 166.559 50.8851 167.044 50.8851C167.769 50.8851 168.248 51.3508 168.248 52.1956V54.4773H167.576V52.4218C167.576 51.8164 167.31 51.4772 166.811 51.4772C166.352 51.4772 165.967 51.863 165.967 52.4883ZM168.888 52.7145C168.888 51.6435 169.5 50.8851 170.451 50.8851C170.923 50.8851 171.336 51.1246 171.582 51.557V49.701H172.254V54.4773H171.628V53.8453C171.376 54.291 170.95 54.5438 170.451 54.5438C169.5 54.5438 168.888 53.7722 168.888 52.7145ZM169.586 52.7145C169.586 53.4994 169.999 53.9451 170.584 53.9451C171.156 53.9451 171.582 53.4795 171.582 52.7012C171.582 51.9096 171.143 51.4772 170.584 51.4772C169.999 51.4772 169.586 51.9162 169.586 52.7145ZM175.39 53.0271V50.9516H176.061V54.4773H175.436V53.9185C175.25 54.2844 174.837 54.5438 174.358 54.5438C173.647 54.5438 173.154 54.1247 173.154 53.22V50.9516H173.826V53.087C173.826 53.699 174.132 53.9518 174.571 53.9518C175.024 53.9518 175.39 53.5793 175.39 53.0271ZM179.788 53.4263C179.788 54.1181 179.25 54.5438 178.312 54.5438C177.38 54.5438 176.828 54.0848 176.762 53.3265H177.407C177.434 53.7655 177.786 54.0383 178.325 54.0383C178.797 54.0383 179.11 53.8719 179.11 53.5393C179.11 53.2466 178.93 53.1203 178.491 53.0338L177.919 52.9273C177.267 52.8009 176.901 52.4683 176.901 51.9362C176.901 51.3175 177.44 50.8851 178.258 50.8851C179.103 50.8851 179.675 51.3375 179.735 52.0626H179.09C179.05 51.6368 178.737 51.3907 178.265 51.3907C177.839 51.3907 177.553 51.5703 177.553 51.8763C177.553 52.1623 177.733 52.2954 178.159 52.3752L178.757 52.4883C179.456 52.6147 179.788 52.9207 179.788 53.4263ZM182.465 53.8254V54.4174C182.259 54.5106 182.08 54.5438 181.867 54.5438C181.215 54.5438 180.763 54.1913 180.763 53.4129V51.5237H179.984V50.9516H180.763V49.9073H181.434V50.9516H182.499V51.5237H181.434V53.2599C181.434 53.7456 181.667 53.9185 182.026 53.9185C182.186 53.9185 182.326 53.8919 182.465 53.8254ZM183.812 52.6746V54.4773H183.14V50.9516H183.765V51.6967C184.011 51.2111 184.544 50.9051 185.122 50.9051V51.6036C184.364 51.5636 183.812 51.8963 183.812 52.6746ZM188.646 50.9516L186.883 55.7612H186.151L186.657 54.4307L185.267 50.9516H185.992L187.016 53.6391L187.967 50.9516H188.646ZM192.649 54.4773V53.9318C192.429 54.3243 192.037 54.5438 191.518 54.5438C190.786 54.5438 190.307 54.1247 190.307 53.4795C190.307 52.7876 190.859 52.4284 191.91 52.4284C192.116 52.4284 192.283 52.4351 192.569 52.4683V52.2089C192.569 51.7033 192.296 51.4173 191.83 51.4173C191.338 51.4173 191.039 51.71 191.019 52.2023H190.407C190.44 51.4106 191.005 50.8851 191.83 50.8851C192.702 50.8851 193.207 51.3774 193.207 52.2156V54.4773H192.649ZM190.946 53.4595C190.946 53.8254 191.218 54.0649 191.651 54.0649C192.216 54.0649 192.569 53.7123 192.569 53.1735V52.8874C192.309 52.8542 192.123 52.8475 191.95 52.8475C191.278 52.8475 190.946 53.0471 190.946 53.4595ZM194.778 52.4883V54.4773H194.106V50.9516H194.731V51.537C194.97 51.1446 195.37 50.8851 195.855 50.8851C196.58 50.8851 197.059 51.3508 197.059 52.1956V54.4773H196.387V52.4218C196.387 51.8164 196.121 51.4772 195.622 51.4772C195.163 51.4772 194.778 51.863 194.778 52.4883ZM197.699 52.7145C197.699 51.6435 198.311 50.8851 199.262 50.8851C199.734 50.8851 200.147 51.1246 200.393 51.557V49.701H201.065V54.4773H200.439V53.8453C200.187 54.291 199.761 54.5438 199.262 54.5438C198.311 54.5438 197.699 53.7722 197.699 52.7145ZM198.397 52.7145C198.397 53.4994 198.81 53.9451 199.395 53.9451C199.967 53.9451 200.393 53.4795 200.393 52.7012C200.393 51.9096 199.954 51.4772 199.395 51.4772C198.81 51.4772 198.397 51.9162 198.397 52.7145ZM206.755 52.7145C206.755 53.7722 206.143 54.5438 205.192 54.5438C204.693 54.5438 204.267 54.291 204.014 53.8453V54.4773H203.389V49.701H204.061V51.557C204.307 51.1246 204.713 50.8851 205.192 50.8851C206.136 50.8851 206.755 51.6435 206.755 52.7145ZM206.056 52.7145C206.056 51.9162 205.637 51.4772 205.058 51.4772C204.5 51.4772 204.061 51.9096 204.061 52.7012C204.061 53.4795 204.486 53.9451 205.058 53.9451C205.637 53.9451 206.056 53.4994 206.056 52.7145ZM209.638 53.0271V50.9516H210.31V54.4773H209.684V53.9185C209.498 54.2844 209.086 54.5438 208.607 54.5438C207.895 54.5438 207.403 54.1247 207.403 53.22V50.9516H208.075V53.087C208.075 53.699 208.381 53.9518 208.82 53.9518C209.272 53.9518 209.638 53.5793 209.638 53.0271ZM214.037 53.4263C214.037 54.1181 213.498 54.5438 212.56 54.5438C211.629 54.5438 211.076 54.0848 211.01 53.3265H211.655C211.682 53.7655 212.034 54.0383 212.573 54.0383C213.046 54.0383 213.358 53.8719 213.358 53.5393C213.358 53.2466 213.179 53.1203 212.74 53.0338L212.167 52.9273C211.516 52.8009 211.15 52.4683 211.15 51.9362C211.15 51.3175 211.688 50.8851 212.507 50.8851C213.352 50.8851 213.924 51.3375 213.983 52.0626H213.338C213.298 51.6368 212.986 51.3907 212.513 51.3907C212.088 51.3907 211.802 51.5703 211.802 51.8763C211.802 52.1623 211.981 52.2954 212.407 52.3752L213.006 52.4883C213.704 52.6147 214.037 52.9207 214.037 53.4263ZM215.588 50.1334C215.588 50.3862 215.389 50.5791 215.103 50.5791C214.817 50.5791 214.611 50.3862 214.611 50.1334C214.611 49.874 214.817 49.6877 215.103 49.6877C215.389 49.6877 215.588 49.874 215.588 50.1334ZM215.442 54.4773H214.77V50.9516H215.442V54.4773ZM217.047 52.4883V54.4773H216.375V50.9516H217V51.537C217.24 51.1446 217.639 50.8851 218.124 50.8851C218.849 50.8851 219.328 51.3508 219.328 52.1956V54.4773H218.657V52.4218C218.657 51.8164 218.39 51.4772 217.892 51.4772C217.433 51.4772 217.047 51.863 217.047 52.4883ZM221.671 54.5438C220.653 54.5438 219.968 53.8054 219.968 52.6945C219.968 51.6501 220.68 50.8851 221.651 50.8851C222.702 50.8851 223.4 51.7366 223.281 52.8808H220.653C220.706 53.5992 221.065 54.0183 221.657 54.0183C222.156 54.0183 222.502 53.7456 222.615 53.2866H223.281C223.108 54.0715 222.502 54.5438 221.671 54.5438ZM221.638 51.3907C221.099 51.3907 220.733 51.7765 220.66 52.4351H222.569C222.536 51.7832 222.183 51.3907 221.638 51.3907ZM226.789 53.4263C226.789 54.1181 226.25 54.5438 225.312 54.5438C224.381 54.5438 223.829 54.0848 223.762 53.3265H224.407C224.434 53.7655 224.787 54.0383 225.325 54.0383C225.798 54.0383 226.11 53.8719 226.11 53.5393C226.11 53.2466 225.931 53.1203 225.492 53.0338L224.92 52.9273C224.268 52.8009 223.902 52.4683 223.902 51.9362C223.902 51.3175 224.441 50.8851 225.259 50.8851C226.104 50.8851 226.676 51.3375 226.736 52.0626H226.09C226.05 51.6368 225.738 51.3907 225.266 51.3907C224.84 51.3907 224.554 51.5703 224.554 51.8763C224.554 52.1623 224.733 52.2954 225.159 52.3752L225.758 52.4883C226.456 52.6147 226.789 52.9207 226.789 53.4263ZM230.316 53.4263C230.316 54.1181 229.778 54.5438 228.84 54.5438C227.908 54.5438 227.356 54.0848 227.29 53.3265H227.935C227.961 53.7655 228.314 54.0383 228.853 54.0383C229.325 54.0383 229.638 53.8719 229.638 53.5393C229.638 53.2466 229.458 53.1203 229.019 53.0338L228.447 52.9273C227.795 52.8009 227.429 52.4683 227.429 51.9362C227.429 51.3175 227.968 50.8851 228.786 50.8851C229.631 50.8851 230.203 51.3375 230.263 52.0626H229.618C229.578 51.6368 229.265 51.3907 228.793 51.3907C228.367 51.3907 228.081 51.5703 228.081 51.8763C228.081 52.1623 228.261 52.2954 228.687 52.3752L229.285 52.4883C229.984 52.6147 230.316 52.9207 230.316 53.4263Z" fill="black"/>
<path d="M81.5878 63.7536C80.5153 63.7536 79.7288 62.9099 79.7288 61.7874C79.7288 60.6648 80.5153 59.8211 81.5878 59.8211C82.6603 59.8211 83.4468 60.6648 83.4468 61.7874C83.4468 62.9099 82.6603 63.7536 81.5878 63.7536ZM81.5878 63.1173C82.2099 63.1173 82.7032 62.6168 82.7032 61.7874C82.7032 60.958 82.2099 60.4646 81.5878 60.4646C80.9658 60.4646 80.4796 60.958 80.4796 61.7874C80.4796 62.6168 80.9658 63.1173 81.5878 63.1173ZM85.1436 63.6821H84.4214V60.5075H83.5849V59.8926H84.4214V59.6138C84.4214 58.8845 84.8147 58.4841 85.5297 58.4841C85.7442 58.4841 85.9158 58.5198 86.0588 58.577V59.1633C85.9444 59.1133 85.8157 59.099 85.687 59.099C85.3438 59.099 85.1436 59.2563 85.1436 59.6209V59.8926H86.2018V60.5075H85.1436V63.6821ZM89.0904 63.6821H88.3039V58.5484H89.0904V63.6821ZM90.8681 61.5443V63.6821H90.146V59.8926H90.8181V60.5218C91.0755 60.1 91.5045 59.8211 92.0264 59.8211C92.8058 59.8211 93.3206 60.3216 93.3206 61.2297V63.6821H92.5984V61.4728C92.5984 60.8221 92.3124 60.4575 91.7762 60.4575C91.2828 60.4575 90.8681 60.8722 90.8681 61.5443ZM97.2826 62.5524C97.2826 63.296 96.7034 63.7536 95.6953 63.7536C94.6943 63.7536 94.1008 63.2603 94.0293 62.4452H94.7229C94.7515 62.9171 95.1304 63.2102 95.7096 63.2102C96.2172 63.2102 96.5533 63.0315 96.5533 62.674C96.5533 62.3594 96.3602 62.2235 95.8883 62.1306L95.2734 62.0162C94.5727 61.8803 94.1795 61.5228 94.1795 60.9508C94.1795 60.2859 94.7586 59.8211 95.6381 59.8211C96.5461 59.8211 97.161 60.3073 97.2254 61.0867H96.5318C96.4889 60.6291 96.1529 60.3645 95.6452 60.3645C95.1876 60.3645 94.8802 60.5576 94.8802 60.8865C94.8802 61.1939 95.0732 61.3369 95.5308 61.4227L96.1743 61.5443C96.9251 61.6801 97.2826 62.009 97.2826 62.5524ZM100.16 62.9814V63.6178C99.9383 63.7179 99.7453 63.7536 99.5165 63.7536C98.8158 63.7536 98.3296 63.3747 98.3296 62.5381V60.5075H97.493V59.8926H98.3296V58.7701H99.0517V59.8926H100.196V60.5075H99.0517V62.3737C99.0517 62.8956 99.302 63.0815 99.6881 63.0815C99.8597 63.0815 100.01 63.0529 100.16 62.9814ZM101.764 59.0132C101.764 59.2849 101.55 59.4922 101.242 59.4922C100.935 59.4922 100.713 59.2849 100.713 59.0132C100.713 58.7343 100.935 58.5341 101.242 58.5341C101.55 58.5341 101.764 58.7343 101.764 59.0132ZM101.607 63.6821H100.885V59.8926H101.607V63.6821ZM104.747 62.9814V63.6178C104.526 63.7179 104.333 63.7536 104.104 63.7536C103.403 63.7536 102.917 63.3747 102.917 62.5381V60.5075H102.08V59.8926H102.917V58.7701H103.639V59.8926H104.783V60.5075H103.639V62.3737C103.639 62.8956 103.889 63.0815 104.276 63.0815C104.447 63.0815 104.597 63.0529 104.747 62.9814ZM107.839 62.1234V59.8926H108.561V63.6821H107.889V63.0815C107.689 63.4748 107.246 63.7536 106.731 63.7536C105.966 63.7536 105.437 63.3032 105.437 62.3308V59.8926H106.159V62.1878C106.159 62.8456 106.488 63.1173 106.96 63.1173C107.446 63.1173 107.839 62.7169 107.839 62.1234ZM111.702 62.9814V63.6178C111.48 63.7179 111.287 63.7536 111.058 63.7536C110.358 63.7536 109.872 63.3747 109.872 62.5381V60.5075H109.035V59.8926H109.872V58.7701H110.594V59.8926H111.738V60.5075H110.594V62.3737C110.594 62.8956 110.844 63.0815 111.23 63.0815C111.402 63.0815 111.552 63.0529 111.702 62.9814ZM113.881 63.7536C112.787 63.7536 112.05 62.96 112.05 61.7659C112.05 60.6434 112.815 59.8211 113.859 59.8211C114.989 59.8211 115.74 60.7363 115.611 61.9661H112.787C112.844 62.7383 113.23 63.1888 113.867 63.1888C114.403 63.1888 114.775 62.8956 114.896 62.4023H115.611C115.425 63.246 114.775 63.7536 113.881 63.7536ZM113.845 60.3645C113.266 60.3645 112.873 60.7792 112.794 61.4871H114.846C114.81 60.7864 114.431 60.3645 113.845 60.3645ZM119.46 63.7536C118.388 63.7536 117.601 62.9099 117.601 61.7874C117.601 60.6648 118.388 59.8211 119.46 59.8211C120.533 59.8211 121.319 60.6648 121.319 61.7874C121.319 62.9099 120.533 63.7536 119.46 63.7536ZM119.46 63.1173C120.083 63.1173 120.576 62.6168 120.576 61.7874C120.576 60.958 120.083 60.4646 119.46 60.4646C118.838 60.4646 118.352 60.958 118.352 61.7874C118.352 62.6168 118.838 63.1173 119.46 63.1173ZM123.016 63.6821H122.294V60.5075H121.458V59.8926H122.294V59.6138C122.294 58.8845 122.687 58.4841 123.402 58.4841C123.617 58.4841 123.788 58.5198 123.931 58.577V59.1633C123.817 59.1133 123.688 59.099 123.56 59.099C123.216 59.099 123.016 59.2563 123.016 59.6209V59.8926H124.074V60.5075H123.016V63.6821ZM128.415 63.7894C126.985 63.7894 125.876 62.6239 125.876 61.1081C125.876 59.5995 126.985 58.4412 128.415 58.4412C129.702 58.4412 130.731 59.2992 130.924 60.5647H130.088C129.945 59.7353 129.273 59.149 128.422 59.149C127.406 59.149 126.691 59.9713 126.691 61.1081C126.691 62.2593 127.406 63.0815 128.422 63.0815C129.273 63.0815 129.945 62.4881 130.088 61.6587H130.924C130.731 62.9314 129.702 63.7894 128.415 63.7894ZM132.407 61.5443V63.6821H131.684V58.5484H132.407V60.5004C132.657 60.0928 133.043 59.8211 133.565 59.8211C134.344 59.8211 134.859 60.3216 134.859 61.2297V63.6821H134.137V61.4728C134.137 60.8221 133.851 60.4575 133.315 60.4575C132.821 60.4575 132.407 60.8722 132.407 61.5443ZM138.113 63.6821V63.0958C137.877 63.5177 137.455 63.7536 136.898 63.7536C136.111 63.7536 135.596 63.3032 135.596 62.6096C135.596 61.866 136.19 61.4799 137.319 61.4799C137.541 61.4799 137.72 61.4871 138.027 61.5228V61.244C138.027 60.7006 137.734 60.3931 137.234 60.3931C136.705 60.3931 136.383 60.7077 136.361 61.2368H135.704C135.739 60.386 136.347 59.8211 137.234 59.8211C138.17 59.8211 138.714 60.3502 138.714 61.2511V63.6821H138.113ZM136.283 62.5882C136.283 62.9814 136.576 63.2388 137.041 63.2388C137.648 63.2388 138.027 62.8599 138.027 62.2807V61.9733C137.748 61.9375 137.548 61.9304 137.362 61.9304C136.64 61.9304 136.283 62.1449 136.283 62.5882ZM140.401 61.7445V63.6821H139.679V59.8926H140.351V60.6934C140.616 60.1715 141.188 59.8426 141.81 59.8426V60.5933C140.995 60.5504 140.401 60.9079 140.401 61.7445ZM144.75 62.9814V63.6178C144.528 63.7179 144.335 63.7536 144.106 63.7536C143.406 63.7536 142.919 63.3747 142.919 62.5381V60.5075H142.083V59.8926H142.919V58.7701H143.641V59.8926H144.785V60.5075H143.641V62.3737C143.641 62.8956 143.892 63.0815 144.278 63.0815C144.449 63.0815 144.6 63.0529 144.75 62.9814ZM146.929 63.7536C145.835 63.7536 145.098 62.96 145.098 61.7659C145.098 60.6434 145.863 59.8211 146.907 59.8211C148.037 59.8211 148.788 60.7363 148.659 61.9661H145.835C145.892 62.7383 146.278 63.1888 146.914 63.1888C147.451 63.1888 147.822 62.8956 147.944 62.4023H148.659C148.473 63.246 147.822 63.7536 146.929 63.7536ZM146.893 60.3645C146.314 60.3645 145.92 60.7792 145.842 61.4871H147.894C147.858 60.7864 147.479 60.3645 146.893 60.3645ZM150.149 61.7445V63.6821H149.427V59.8926H150.099V60.6934C150.363 60.1715 150.935 59.8426 151.557 59.8426V60.5933C150.742 60.5504 150.149 60.9079 150.149 61.7445ZM153.674 63.7536C152.58 63.7536 151.843 62.96 151.843 61.7659C151.843 60.6434 152.608 59.8211 153.652 59.8211C154.782 59.8211 155.533 60.7363 155.404 61.9661H152.58C152.637 62.7383 153.023 63.1888 153.659 63.1888C154.196 63.1888 154.567 62.8956 154.689 62.4023H155.404C155.218 63.246 154.567 63.7536 153.674 63.7536ZM153.638 60.3645C153.059 60.3645 152.666 60.7792 152.587 61.4871H154.639C154.603 60.7864 154.224 60.3645 153.638 60.3645ZM155.83 61.7874C155.83 60.6362 156.488 59.8211 157.51 59.8211C158.018 59.8211 158.461 60.0785 158.726 60.5433V58.5484H159.448V63.6821H158.776V63.0029C158.504 63.4819 158.047 63.7536 157.51 63.7536C156.488 63.7536 155.83 62.9242 155.83 61.7874ZM156.581 61.7874C156.581 62.6311 157.024 63.1101 157.653 63.1101C158.268 63.1101 158.726 62.6096 158.726 61.7731C158.726 60.9222 158.254 60.4575 157.653 60.4575C157.024 60.4575 156.581 60.9294 156.581 61.7874ZM165.536 63.6821L165.071 62.4094H162.854L162.382 63.6821H161.589L163.555 58.5484H164.42L166.372 63.6821H165.536ZM163.97 59.4064L163.09 61.7731H164.835L163.97 59.4064ZM168.3 63.7608C167.264 63.7608 166.534 62.9457 166.534 61.7874C166.534 60.6434 167.278 59.8211 168.3 59.8211C169.237 59.8211 169.916 60.4432 170.052 61.4299H169.294C169.216 60.8221 168.837 60.4575 168.307 60.4575C167.685 60.4575 167.278 60.9866 167.278 61.7874C167.278 62.5953 167.685 63.1173 168.307 63.1173C168.844 63.1173 169.216 62.7598 169.301 62.1449H170.052C169.923 63.1459 169.251 63.7608 168.3 63.7608ZM172.238 63.7608C171.202 63.7608 170.472 62.9457 170.472 61.7874C170.472 60.6434 171.216 59.8211 172.238 59.8211C173.175 59.8211 173.854 60.4432 173.99 61.4299H173.232C173.154 60.8221 172.775 60.4575 172.246 60.4575C171.624 60.4575 171.216 60.9866 171.216 61.7874C171.216 62.5953 171.624 63.1173 172.246 63.1173C172.782 63.1173 173.154 62.7598 173.239 62.1449H173.99C173.861 63.1459 173.189 63.7608 172.238 63.7608ZM176.269 63.7536C175.197 63.7536 174.41 62.9099 174.41 61.7874C174.41 60.6648 175.197 59.8211 176.269 59.8211C177.342 59.8211 178.128 60.6648 178.128 61.7874C178.128 62.9099 177.342 63.7536 176.269 63.7536ZM176.269 63.1173C176.891 63.1173 177.385 62.6168 177.385 61.7874C177.385 60.958 176.891 60.4646 176.269 60.4646C175.647 60.4646 175.161 60.958 175.161 61.7874C175.161 62.6168 175.647 63.1173 176.269 63.1173ZM181.231 62.1234V59.8926H181.953V63.6821H181.281V63.0815C181.081 63.4748 180.638 63.7536 180.123 63.7536C179.358 63.7536 178.829 63.3032 178.829 62.3308V59.8926H179.551V62.1878C179.551 62.8456 179.88 63.1173 180.352 63.1173C180.838 63.1173 181.231 62.7169 181.231 62.1234ZM183.678 61.5443V63.6821H182.956V59.8926H183.628V60.5218C183.886 60.1 184.315 59.8211 184.837 59.8211C185.616 59.8211 186.131 60.3216 186.131 61.2297V63.6821H185.409V61.4728C185.409 60.8221 185.123 60.4575 184.587 60.4575C184.093 60.4575 183.678 60.8722 183.678 61.5443ZM189.214 62.9814V63.6178C188.992 63.7179 188.799 63.7536 188.57 63.7536C187.87 63.7536 187.383 63.3747 187.383 62.5381V60.5075H186.547V59.8926H187.383V58.7701H188.106V59.8926H189.25V60.5075H188.106V62.3737C188.106 62.8956 188.356 63.0815 188.742 63.0815C188.913 63.0815 189.064 63.0529 189.214 62.9814ZM192.234 63.6821V63.0958C191.998 63.5177 191.576 63.7536 191.018 63.7536C190.232 63.7536 189.717 63.3032 189.717 62.6096C189.717 61.866 190.311 61.4799 191.44 61.4799C191.662 61.4799 191.841 61.4871 192.148 61.5228V61.244C192.148 60.7006 191.855 60.3931 191.354 60.3931C190.825 60.3931 190.504 60.7077 190.482 61.2368H189.824C189.86 60.386 190.468 59.8211 191.354 59.8211C192.291 59.8211 192.834 60.3502 192.834 61.2511V63.6821H192.234ZM190.403 62.5882C190.403 62.9814 190.697 63.2388 191.161 63.2388C191.769 63.2388 192.148 62.8599 192.148 62.2807V61.9733C191.869 61.9375 191.669 61.9304 191.483 61.9304C190.761 61.9304 190.403 62.1449 190.403 62.5882ZM194.522 61.5443V63.6821H193.8V59.8926H194.472V60.5218C194.73 60.1 195.159 59.8211 195.68 59.8211C196.46 59.8211 196.975 60.3216 196.975 61.2297V63.6821H196.252V61.4728C196.252 60.8221 195.966 60.4575 195.43 60.4575C194.937 60.4575 194.522 60.8722 194.522 61.5443ZM200.057 62.9814V63.6178C199.836 63.7179 199.643 63.7536 199.414 63.7536C198.713 63.7536 198.227 63.3747 198.227 62.5381V60.5075H197.391V59.8926H198.227V58.7701H198.949V59.8926H200.093V60.5075H198.949V62.3737C198.949 62.8956 199.199 63.0815 199.586 63.0815C199.757 63.0815 199.907 63.0529 200.057 62.9814ZM203.771 62.5524C203.771 63.296 203.192 63.7536 202.184 63.7536C201.183 63.7536 200.59 63.2603 200.518 62.4452H201.212C201.24 62.9171 201.619 63.2102 202.198 63.2102C202.706 63.2102 203.042 63.0315 203.042 62.674C203.042 62.3594 202.849 62.2235 202.377 62.1306L201.762 62.0162C201.062 61.8803 200.668 61.5228 200.668 60.9508C200.668 60.2859 201.248 59.8211 202.127 59.8211C203.035 59.8211 203.65 60.3073 203.714 61.0867H203.021C202.978 60.6291 202.642 60.3645 202.134 60.3645C201.677 60.3645 201.369 60.5576 201.369 60.8865C201.369 61.1939 201.562 61.3369 202.02 61.4227L202.663 61.5443C203.414 61.6801 203.771 62.009 203.771 62.5524ZM207.641 63.7536C206.569 63.7536 205.782 62.9099 205.782 61.7874C205.782 60.6648 206.569 59.8211 207.641 59.8211C208.714 59.8211 209.5 60.6648 209.5 61.7874C209.5 62.9099 208.714 63.7536 207.641 63.7536ZM207.641 63.1173C208.264 63.1173 208.757 62.6168 208.757 61.7874C208.757 60.958 208.264 60.4646 207.641 60.4646C207.019 60.4646 206.533 60.958 206.533 61.7874C206.533 62.6168 207.019 63.1173 207.641 63.1173ZM211.197 63.6821H210.475V60.5075H209.639V59.8926H210.475V59.6138C210.475 58.8845 210.868 58.4841 211.583 58.4841C211.798 58.4841 211.969 58.5198 212.112 58.577V59.1633C211.998 59.1133 211.869 59.099 211.741 59.099C211.397 59.099 211.197 59.2563 211.197 59.6209V59.8926H212.255V60.5075H211.197V63.6821ZM215.144 63.6821H214.358V58.5484H215.144V63.6821ZM216.922 61.5443V63.6821H216.2V59.8926H216.872V60.5218C217.129 60.1 217.558 59.8211 218.08 59.8211C218.859 59.8211 219.374 60.3216 219.374 61.2297V63.6821H218.652V61.4728C218.652 60.8221 218.366 60.4575 217.83 60.4575C217.336 60.4575 216.922 60.8722 216.922 61.5443ZM220.062 61.7874C220.062 60.6362 220.719 59.8211 221.742 59.8211C222.249 59.8211 222.693 60.0785 222.957 60.5433V58.5484H223.679V63.6821H223.007V63.0029C222.736 63.4819 222.278 63.7536 221.742 63.7536C220.719 63.7536 220.062 62.9242 220.062 61.7874ZM220.812 61.7874C220.812 62.6311 221.256 63.1101 221.885 63.1101C222.5 63.1101 222.957 62.6096 222.957 61.7731C222.957 60.9222 222.485 60.4575 221.885 60.4575C221.256 60.4575 220.812 60.9294 220.812 61.7874ZM225.563 59.0132C225.563 59.2849 225.348 59.4922 225.041 59.4922C224.733 59.4922 224.512 59.2849 224.512 59.0132C224.512 58.7343 224.733 58.5341 225.041 58.5341C225.348 58.5341 225.563 58.7343 225.563 59.0132ZM225.405 63.6821H224.683V59.8926H225.405V63.6821ZM228.703 63.6821V63.0958C228.467 63.5177 228.045 63.7536 227.488 63.7536C226.701 63.7536 226.186 63.3032 226.186 62.6096C226.186 61.866 226.78 61.4799 227.909 61.4799C228.131 61.4799 228.31 61.4871 228.617 61.5228V61.244C228.617 60.7006 228.324 60.3931 227.824 60.3931C227.295 60.3931 226.973 60.7077 226.951 61.2368H226.294C226.329 60.386 226.937 59.8211 227.824 59.8211C228.76 59.8211 229.304 60.3502 229.304 61.2511V63.6821H228.703ZM226.873 62.5882C226.873 62.9814 227.166 63.2388 227.631 63.2388C228.238 63.2388 228.617 62.8599 228.617 62.2807V61.9733C228.338 61.9375 228.138 61.9304 227.952 61.9304C227.23 61.9304 226.873 62.1449 226.873 62.5882Z" fill="#E91639"/>
<defs>
<linearGradient id="paint0_linear_10049_27157" x1="154.666" y1="2" x2="154.666" y2="41.53" gradientUnits="userSpaceOnUse">
<stop stop-color="#D29314"/>
<stop offset="1" stop-color="#BB8008"/>
</linearGradient>
<linearGradient id="paint1_linear_10049_27157" x1="154.666" y1="2" x2="154.666" y2="41.53" gradientUnits="userSpaceOnUse">
<stop stop-color="#D29314"/>
<stop offset="1" stop-color="#BB8008"/>
</linearGradient>
<linearGradient id="paint2_linear_10049_27157" x1="154.666" y1="2" x2="154.666" y2="41.53" gradientUnits="userSpaceOnUse">
<stop stop-color="#D29314"/>
<stop offset="1" stop-color="#BB8008"/>
</linearGradient>
<linearGradient id="paint3_linear_10049_27157" x1="154.666" y1="2" x2="154.666" y2="41.53" gradientUnits="userSpaceOnUse">
<stop stop-color="#D29314"/>
<stop offset="1" stop-color="#BB8008"/>
</linearGradient>
<linearGradient id="paint4_linear_10049_27157" x1="154.666" y1="2" x2="154.666" y2="41.53" gradientUnits="userSpaceOnUse">
<stop stop-color="#D29314"/>
<stop offset="1" stop-color="#BB8008"/>
</linearGradient>
<linearGradient id="paint5_linear_10049_27157" x1="154.666" y1="2" x2="154.666" y2="41.53" gradientUnits="userSpaceOnUse">
<stop stop-color="#D29314"/>
<stop offset="1" stop-color="#BB8008"/>
</linearGradient>
<linearGradient id="paint6_linear_10049_27157" x1="154.666" y1="2" x2="154.666" y2="41.53" gradientUnits="userSpaceOnUse">
<stop stop-color="#D29314"/>
<stop offset="1" stop-color="#BB8008"/>
</linearGradient>
<linearGradient id="paint7_linear_10049_27157" x1="154.666" y1="2" x2="154.666" y2="41.53" gradientUnits="userSpaceOnUse">
<stop stop-color="#D29314"/>
<stop offset="1" stop-color="#BB8008"/>
</linearGradient>
</defs>
</svg>
