<svg width="18" height="18" viewBox="0 0 18 18" fill="none" xmlns="http://www.w3.org/2000/svg">
<path d="M9 13.6499C10.6569 13.6499 12 12.3068 12 10.6499C12 8.99305 10.6569 7.6499 9 7.6499C7.34315 7.6499 6 8.99305 6 10.6499C6 12.3068 7.34315 13.6499 9 13.6499Z" stroke="#FBFCFF" stroke-width="1.5" stroke-miterlimit="10" stroke-linecap="round" stroke-linejoin="round"/>
<path d="M7.82996 10.725L8.31746 11.2125C8.45996 11.355 8.69246 11.355 8.83496 11.22L10.17 9.98999" stroke="#FBFCFF" stroke-width="1.5" stroke-linecap="round" stroke-linejoin="round"/>
<path d="M5.99999 16.5H12C15.015 16.5 15.555 15.2925 15.7125 13.8225L16.275 7.8225C16.4775 5.9925 15.9525 4.5 12.75 4.5H5.24999C2.04749 4.5 1.52249 5.9925 1.72499 7.8225L2.28749 13.8225C2.44499 15.2925 2.98499 16.5 5.99999 16.5Z" stroke="#FBFCFF" stroke-width="1.5" stroke-miterlimit="10" stroke-linecap="round" stroke-linejoin="round"/>
<path d="M6 4.5V3.9C6 2.5725 6 1.5 8.4 1.5H9.6C12 1.5 12 2.5725 12 3.9V4.5" stroke="#FBFCFF" stroke-width="1.5" stroke-miterlimit="10" stroke-linecap="round" stroke-linejoin="round"/>
<path d="M16.2374 8.25C14.9399 9.195 13.4999 9.855 12.0074 10.23" stroke="#FBFCFF" stroke-width="1.5" stroke-miterlimit="10" stroke-linecap="round" stroke-linejoin="round"/>
<path d="M1.96497 8.45239C3.21747 9.30739 4.58247 9.91489 5.99997 10.2599" stroke="#FBFCFF" stroke-width="1.5" stroke-miterlimit="10" stroke-linecap="round" stroke-linejoin="round"/>
</svg>
