<svg width="18" height="19" viewBox="0 0 18 19" fill="none" xmlns="http://www.w3.org/2000/svg">
<path d="M9 9.34668C11.0711 9.34668 12.75 7.66775 12.75 5.59668C12.75 3.52561 11.0711 1.84668 9 1.84668C6.92893 1.84668 5.25 3.52561 5.25 5.59668C5.25 7.66775 6.92893 9.34668 9 9.34668Z" stroke="#CCD0E5" stroke-width="1.5" stroke-linecap="round" stroke-linejoin="round"/>
<path d="M2.5575 16.8467C2.5575 13.9442 5.44502 11.5967 9.00002 11.5967" stroke="#CCD0E5" stroke-width="1.5" stroke-linecap="round" stroke-linejoin="round"/>
<path d="M16.9583 14.0549V15.409C16.9583 16.7632 16.4166 17.3049 15.0625 17.3049H13.4375C12.0833 17.3049 11.5416 16.7632 11.5416 15.409V13.784C11.5416 12.4299 12.0833 11.8882 13.4375 11.8882H14.7916" stroke="#CCD0E5" stroke-width="1.5" stroke-linecap="round" stroke-linejoin="round"/>
<path d="M16.9583 14.0549H15.875C15.0625 14.0549 14.7916 13.784 14.7916 12.9715V11.8882L16.9583 14.0549Z" stroke="#CCD0E5" stroke-width="1.5" stroke-linecap="round" stroke-linejoin="round"/>
</svg>
