<svg width="172" height="50" viewBox="0 0 172 50" fill="none" xmlns="http://www.w3.org/2000/svg">
<path fill-rule="evenodd" clip-rule="evenodd" d="M43.0156 30.7326C44.49 32.1918 45.2285 34.1116 45.2285 36.0264C45.2285 37.9411 44.49 39.8609 43.0169 41.3214L43.0169 41.3278C41.5411 42.7857 39.5987 43.5166 37.6614 43.5166C35.7242 43.5166 33.7869 42.7857 32.3112 41.3252L32.3035 41.3252L18.9096 28.0666L21.5495 25.4527L34.9446 38.7126L34.9421 38.7164C35.687 39.4498 36.6729 39.8191 37.6614 39.8191C38.65 39.8191 39.6333 39.4485 40.3757 38.7139L40.3795 38.7177C41.1206 37.9804 41.4937 37.0047 41.4937 36.0264C41.4937 35.048 41.1232 34.0723 40.3795 33.335L40.3757 33.3388L35.1434 28.1605L37.7845 25.5466L43.0169 30.7249L43.0169 30.7313L43.0156 30.7326Z" fill="#50B57B"/>
<path d="M18.624 11.5972L32.0632 24.3045L34.6444 21.6556L21.3136 9.05536C19.8108 7.63568 17.8315 6.9246 15.8575 6.9246C13.8873 6.9246 11.908 7.63568 10.4026 9.06153C8.90771 10.4763 8.15829 12.3466 8.15829 14.2119L8.15046 14.2119C8.15046 16.0748 8.90249 17.9438 10.4039 19.3623L10.4039 19.3684L15.5607 24.4089L18.0939 21.8434L13.0922 16.8278L13.0896 16.8303C12.3336 16.1143 11.955 15.1649 11.955 14.2119L11.9472 14.2119C11.9485 13.2638 12.331 12.312 13.0935 11.5923C13.8442 10.8787 14.8561 10.522 15.8588 10.522C16.8615 10.522 17.8668 10.88 18.624 11.5972Z" fill="#D9325B"/>
<path fill-rule="evenodd" clip-rule="evenodd" d="M32.4436 8.64515C33.9042 7.17079 35.8241 6.43232 37.7377 6.43232C39.6514 6.43232 41.5726 7.17207 43.0332 8.64387L43.0395 8.64387C44.4976 10.1182 45.2298 12.0606 45.2285 14.0003C45.2285 15.9362 44.4976 17.8747 43.0383 19.3503L43.0383 19.358L29.8701 32.6606L27.2573 30.0196L40.4242 16.717L40.428 16.7208C41.1627 15.976 41.5307 14.9888 41.5307 14.0003C41.5307 13.0118 41.1602 12.0285 40.4254 11.2862L40.4292 11.2836C39.692 10.5426 38.7161 10.1695 37.7377 10.1695C36.7594 10.1695 35.7822 10.5413 35.0462 11.2836L35.05 11.2862L29.9173 16.4288L27.2573 13.8772L32.436 8.64515L32.4423 8.64515L32.4436 8.64515Z" fill="#F0BB2B"/>
<path d="M13.1048 33.2229L26.2849 19.6521L26.2861 19.6521L23.6785 16.9666L10.4997 30.5387C9.044 32.0392 8.31487 34.0181 8.31487 35.9853C8.31487 37.9525 9.044 39.9288 10.5061 41.4319C11.9555 42.9246 13.8732 43.6728 15.7859 43.6728L15.7859 43.6807C17.6973 43.6807 19.6126 42.9298 21.0683 41.4306L21.0746 41.4306L26.2418 36.1092L23.6007 33.4924L18.4682 38.7464L18.4708 38.749C17.7366 39.5038 16.7631 39.8806 15.7859 39.8806L15.7859 39.8884C14.8137 39.8884 13.8378 39.5077 13.0998 38.7464C12.3694 37.9968 12.0023 36.9878 12.0023 35.9853C12.0023 34.9828 12.3694 33.979 13.1048 33.2229Z" fill="#3EA4CF"/>
<circle cx="45.9636" cy="43.9514" r="3.64282" transform="rotate(-180 45.9636 43.9514)" fill="#50B57B"/>
<circle cx="7.54956" cy="43.9514" r="3.64282" transform="rotate(-180 7.54956 43.9514)" fill="#3EA4CF"/>
<circle cx="45.9636" cy="6.05005" r="3.64282" transform="rotate(-180 45.9636 6.05005)" fill="#F0BB2B"/>
<circle cx="7.54956" cy="6.05005" r="3.64282" transform="rotate(-180 7.54956 6.05005)" fill="#D9325B"/>
<path d="M117.984 6.735C119.459 6.735 120.849 7.0546 122.154 7.69379C123.459 8.30103 124.58 9.14796 125.516 10.2346C126.481 11.2893 127.233 12.5517 127.772 14.0218C128.339 15.492 128.623 17.058 128.623 18.7199V30.7048H126.495V18.7199C126.495 17.4096 126.268 16.1791 125.814 15.0286C125.36 13.846 124.75 12.8233 123.984 11.9604C123.218 11.0975 122.31 10.4104 121.261 9.89902C120.239 9.38766 119.147 9.13198 117.984 9.13198C116.821 9.13198 115.714 9.38766 114.665 9.89902C113.643 10.4104 112.75 11.0975 111.984 11.9604C111.218 12.8233 110.608 13.846 110.154 15.0286C109.7 16.1791 109.473 17.4096 109.473 18.7199V30.7048H107.345V18.7199C107.345 17.4096 107.118 16.1791 106.665 15.0286C106.211 13.846 105.601 12.8233 104.835 11.9604C104.069 11.0975 103.161 10.4104 102.111 9.89902C101.09 9.38766 99.9977 9.13198 98.8345 9.13198C97.6714 9.13198 96.565 9.38766 95.5153 9.89902C94.494 10.4104 93.6003 11.0975 92.8344 11.9604C92.0684 12.8233 91.4584 13.846 91.0045 15.0286C90.5506 16.1791 90.3236 17.4096 90.3236 18.7199V30.7048H88.1959V18.7199C88.1959 17.058 88.4796 15.492 89.047 14.0218C89.6144 12.5517 90.3804 11.2893 91.345 10.2346C92.3379 9.14796 93.4727 8.30103 94.7493 7.69379C96.0259 7.0546 97.3877 6.735 98.8345 6.735C99.8842 6.735 100.891 6.91078 101.856 7.26234C102.849 7.58193 103.757 8.04535 104.579 8.65259C105.402 9.25982 106.14 9.97892 106.792 10.8099C107.445 11.6089 107.984 12.4878 108.409 13.4466C108.835 12.4878 109.374 11.6089 110.026 10.8099C110.707 9.97892 111.459 9.25982 112.282 8.65259C113.133 8.04535 114.041 7.58193 115.005 7.26234C115.97 6.91078 116.963 6.735 117.984 6.735Z" fill="url(#paint0_linear_8060_7078)"/>
<path d="M70.3388 28.3078C71.4893 28.3078 72.56 28.132 73.5508 27.7805C74.5415 27.397 75.4364 26.8856 76.2354 26.2464C77.0663 25.6072 77.7694 24.8562 78.3447 23.9933C78.8228 23.2887 79.2018 22.5446 79.4818 21.7608H81.931C81.6293 22.8926 81.1689 23.9563 80.5499 24.9521C79.8149 26.1026 78.936 27.1093 77.9133 27.9722C76.8905 28.8352 75.724 29.5063 74.4137 29.9857C73.1353 30.4651 71.777 30.7048 70.3388 30.7048C68.6449 30.7048 67.0629 30.4012 65.5928 29.794C64.1546 29.1548 62.8922 28.3078 61.8055 27.2532C60.7509 26.1665 59.9039 24.9041 59.2647 23.4659C58.6575 21.9958 58.3539 20.4138 58.3539 18.7199C58.3539 17.058 58.6575 15.492 59.2647 14.0218C59.9039 12.5517 60.7509 11.2892 61.8055 10.2346C62.8922 9.14794 64.1546 8.30101 65.5928 7.69377C67.0629 7.05458 68.6449 6.73498 70.3388 6.73498C71.777 6.73498 73.1353 6.97468 74.4137 7.45408C75.724 7.93347 76.8905 8.60463 77.9133 9.46754C78.936 10.3305 79.8149 11.3532 80.5499 12.5357C81.1027 13.4009 81.529 14.3294 81.8288 15.3212C81.8288 15.3212 81.7563 15.3212 81.5774 15.3212H80.6831C80.5042 15.3212 79.3438 15.3212 79.3438 15.3212C79.0814 14.677 78.7484 14.0681 78.3447 13.4945C77.7694 12.5996 77.0663 11.8326 76.2354 11.1934C75.4364 10.5542 74.5415 10.0588 73.5508 9.70724C72.56 9.32372 71.4893 9.13196 70.3388 9.13196C69.0284 9.13196 67.782 9.38764 66.5995 9.899C65.449 10.4104 64.4422 11.0975 63.5793 11.9604C62.7164 12.8233 62.0293 13.846 61.5179 15.0285C61.0065 16.1791 60.7509 17.4095 60.7509 18.7199C60.7509 20.0302 61.0065 21.2767 61.5179 22.4592C62.0293 23.6097 62.7164 24.6165 63.5793 25.4794C64.4422 26.3423 65.449 27.0294 66.5995 27.5408C67.782 28.0521 69.0284 28.3078 70.3388 28.3078Z" fill="url(#paint1_linear_8060_7078)"/>
<path d="M136.959 30.7048H134.562V8.52377H136.959V30.7048ZM136.959 4.81739H134.562V2.42041H136.959V4.81739Z" fill="url(#paint2_linear_8060_7078)"/>
<path d="M155.662 6.73498C157.324 6.73498 158.89 7.05458 160.36 7.69377C161.83 8.30101 163.093 9.14794 164.147 10.2346C165.234 11.2892 166.081 12.5517 166.688 14.0218C167.327 15.492 167.647 17.058 167.647 18.7199C167.647 20.4138 167.327 21.9958 166.688 23.4659C166.081 24.9041 165.234 26.1665 164.147 27.2532C163.093 28.3078 161.83 29.1548 160.36 29.794C158.89 30.4012 157.324 30.7048 155.662 30.7048C153.968 30.7048 152.386 30.4012 150.916 29.794C149.478 29.1548 148.215 28.3078 147.129 27.2532C146.074 26.1665 145.227 24.9041 144.588 23.4659C143.981 21.9958 143.677 20.4138 143.677 18.7199V2.42041H146.074V11.5289C147.161 10.0908 148.551 8.9402 150.245 8.07729C151.939 7.18242 153.744 6.73498 155.662 6.73498ZM155.662 28.3078C156.972 28.3078 158.203 28.0521 159.353 27.5408C160.536 27.0294 161.559 26.3423 162.422 25.4794C163.284 24.6165 163.972 23.6097 164.483 22.4592C164.994 21.2767 165.25 20.0302 165.25 18.7199C165.25 17.4095 164.994 16.1791 164.483 15.0285C163.972 13.846 163.284 12.8233 162.422 11.9604C161.559 11.0975 160.536 10.4104 159.353 9.899C158.203 9.38764 156.972 9.13196 155.662 9.13196C154.352 9.13196 153.105 9.38764 151.923 9.899C150.772 10.4104 149.765 11.0975 148.903 11.9604C148.04 12.8233 147.352 13.846 146.841 15.0285C146.33 16.1791 146.074 17.4095 146.074 18.7199C146.074 20.0302 146.33 21.2767 146.841 22.4592C147.352 23.6097 148.04 24.6165 148.903 25.4794C149.765 26.3423 150.772 27.0294 151.923 27.5408C153.105 28.0521 154.352 28.3078 155.662 28.3078Z" fill="url(#paint3_linear_8060_7078)"/>
<path d="M117.984 6.735C119.459 6.735 120.849 7.0546 122.154 7.69379C123.459 8.30103 124.58 9.14796 125.516 10.2346C126.481 11.2893 127.233 12.5517 127.772 14.0218C128.339 15.492 128.623 17.058 128.623 18.7199V30.7048H126.495V18.7199C126.495 17.4096 126.268 16.1791 125.814 15.0286C125.36 13.846 124.75 12.8233 123.984 11.9604C123.218 11.0975 122.31 10.4104 121.261 9.89902C120.239 9.38766 119.147 9.13198 117.984 9.13198C116.821 9.13198 115.714 9.38766 114.665 9.89902C113.643 10.4104 112.75 11.0975 111.984 11.9604C111.218 12.8233 110.608 13.846 110.154 15.0286C109.7 16.1791 109.473 17.4096 109.473 18.7199V30.7048H107.345V18.7199C107.345 17.4096 107.118 16.1791 106.665 15.0286C106.211 13.846 105.601 12.8233 104.835 11.9604C104.069 11.0975 103.161 10.4104 102.111 9.89902C101.09 9.38766 99.9977 9.13198 98.8345 9.13198C97.6714 9.13198 96.565 9.38766 95.5153 9.89902C94.494 10.4104 93.6003 11.0975 92.8344 11.9604C92.0684 12.8233 91.4584 13.846 91.0045 15.0286C90.5506 16.1791 90.3236 17.4096 90.3236 18.7199V30.7048H88.1959V18.7199C88.1959 17.058 88.4796 15.492 89.047 14.0218C89.6144 12.5517 90.3804 11.2893 91.345 10.2346C92.3379 9.14796 93.4727 8.30103 94.7493 7.69379C96.0259 7.0546 97.3877 6.735 98.8345 6.735C99.8842 6.735 100.891 6.91078 101.856 7.26234C102.849 7.58193 103.757 8.04535 104.579 8.65259C105.402 9.25982 106.14 9.97892 106.792 10.8099C107.445 11.6089 107.984 12.4878 108.409 13.4466C108.835 12.4878 109.374 11.6089 110.026 10.8099C110.707 9.97892 111.459 9.25982 112.282 8.65259C113.133 8.04535 114.041 7.58193 115.005 7.26234C115.97 6.91078 116.963 6.735 117.984 6.735Z" stroke="url(#paint4_linear_8060_7078)" stroke-width="1.43103"/>
<path d="M70.3388 28.3078C71.4893 28.3078 72.56 28.132 73.5508 27.7805C74.5415 27.397 75.4364 26.8856 76.2354 26.2464C77.0663 25.6072 77.7694 24.8562 78.3447 23.9933C78.8228 23.2887 79.2018 22.5446 79.4818 21.7608H81.931C81.6293 22.8926 81.1689 23.9563 80.5499 24.9521C79.8149 26.1026 78.936 27.1093 77.9133 27.9722C76.8905 28.8352 75.724 29.5063 74.4137 29.9857C73.1353 30.4651 71.777 30.7048 70.3388 30.7048C68.6449 30.7048 67.0629 30.4012 65.5928 29.794C64.1546 29.1548 62.8922 28.3078 61.8055 27.2532C60.7509 26.1665 59.9039 24.9041 59.2647 23.4659C58.6575 21.9958 58.3539 20.4138 58.3539 18.7199C58.3539 17.058 58.6575 15.492 59.2647 14.0218C59.9039 12.5517 60.7509 11.2892 61.8055 10.2346C62.8922 9.14794 64.1546 8.30101 65.5928 7.69377C67.0629 7.05458 68.6449 6.73498 70.3388 6.73498C71.777 6.73498 73.1353 6.97468 74.4137 7.45408C75.724 7.93347 76.8905 8.60463 77.9133 9.46754C78.936 10.3305 79.8149 11.3532 80.5499 12.5357C81.1027 13.4009 81.529 14.3294 81.8288 15.3212C81.8288 15.3212 81.7563 15.3212 81.5774 15.3212H80.6831C80.5042 15.3212 79.3438 15.3212 79.3438 15.3212C79.0814 14.677 78.7484 14.0681 78.3447 13.4945C77.7694 12.5996 77.0663 11.8326 76.2354 11.1934C75.4364 10.5542 74.5415 10.0588 73.5508 9.70724C72.56 9.32372 71.4893 9.13196 70.3388 9.13196C69.0284 9.13196 67.782 9.38764 66.5995 9.899C65.449 10.4104 64.4422 11.0975 63.5793 11.9604C62.7164 12.8233 62.0293 13.846 61.5179 15.0285C61.0065 16.1791 60.7509 17.4095 60.7509 18.7199C60.7509 20.0302 61.0065 21.2767 61.5179 22.4592C62.0293 23.6097 62.7164 24.6165 63.5793 25.4794C64.4422 26.3423 65.449 27.0294 66.5995 27.5408C67.782 28.0521 69.0284 28.3078 70.3388 28.3078Z" stroke="url(#paint5_linear_8060_7078)" stroke-width="1.43103"/>
<path d="M136.959 30.7048H134.562V8.52377H136.959V30.7048ZM136.959 4.81739H134.562V2.42041H136.959V4.81739Z" stroke="url(#paint6_linear_8060_7078)" stroke-width="1.43103"/>
<path d="M155.662 6.73498C157.324 6.73498 158.89 7.05458 160.36 7.69377C161.83 8.30101 163.093 9.14794 164.147 10.2346C165.234 11.2892 166.081 12.5517 166.688 14.0218C167.327 15.492 167.647 17.058 167.647 18.7199C167.647 20.4138 167.327 21.9958 166.688 23.4659C166.081 24.9041 165.234 26.1665 164.147 27.2532C163.093 28.3078 161.83 29.1548 160.36 29.794C158.89 30.4012 157.324 30.7048 155.662 30.7048C153.968 30.7048 152.386 30.4012 150.916 29.794C149.478 29.1548 148.215 28.3078 147.129 27.2532C146.074 26.1665 145.227 24.9041 144.588 23.4659C143.981 21.9958 143.677 20.4138 143.677 18.7199V2.42041H146.074V11.5289C147.161 10.0908 148.551 8.9402 150.245 8.07729C151.939 7.18242 153.744 6.73498 155.662 6.73498ZM155.662 28.3078C156.972 28.3078 158.203 28.0521 159.353 27.5408C160.536 27.0294 161.559 26.3423 162.422 25.4794C163.284 24.6165 163.972 23.6097 164.483 22.4592C164.994 21.2767 165.25 20.0302 165.25 18.7199C165.25 17.4095 164.994 16.1791 164.483 15.0285C163.972 13.846 163.284 12.8233 162.422 11.9604C161.559 11.0975 160.536 10.4104 159.353 9.899C158.203 9.38764 156.972 9.13196 155.662 9.13196C154.352 9.13196 153.105 9.38764 151.923 9.899C150.772 10.4104 149.765 11.0975 148.903 11.9604C148.04 12.8233 147.352 13.846 146.841 15.0285C146.33 16.1791 146.074 17.4095 146.074 18.7199C146.074 20.0302 146.33 21.2767 146.841 22.4592C147.352 23.6097 148.04 24.6165 148.903 25.4794C149.765 26.3423 150.772 27.0294 151.923 27.5408C153.105 28.0521 154.352 28.3078 155.662 28.3078Z" stroke="url(#paint7_linear_8060_7078)" stroke-width="1.43103"/>
<path d="M60.0052 39.4625C59.0533 39.4625 58.3155 38.6867 58.3155 37.6776C58.3155 36.6733 59.0533 35.9022 60.0052 35.9022C60.862 35.9022 61.5474 36.4734 61.6759 37.3159H61.119C61.0238 36.7637 60.5764 36.3734 60.01 36.3734C59.3341 36.3734 58.8581 36.9208 58.8581 37.6776C58.8581 38.4439 59.3341 38.9913 60.01 38.9913C60.5764 38.9913 61.0238 38.5962 61.119 38.0441H61.6759C61.5474 38.8913 60.862 39.4625 60.0052 39.4625ZM63.2386 39.4387C62.5247 39.4387 62.0011 38.8771 62.0011 38.1298C62.0011 37.3825 62.5247 36.8209 63.2386 36.8209C63.9526 36.8209 64.4762 37.3825 64.4762 38.1298C64.4762 38.8771 63.9526 39.4387 63.2386 39.4387ZM63.2386 39.0151C63.6527 39.0151 63.9811 38.6819 63.9811 38.1298C63.9811 37.5777 63.6527 37.2492 63.2386 37.2492C62.8245 37.2492 62.5009 37.5777 62.5009 38.1298C62.5009 38.6819 62.8245 39.0151 63.2386 39.0151ZM65.447 39.3911H64.9662V36.8684H65.4136V37.2873C65.585 36.997 65.8563 36.8209 66.2038 36.8209C66.575 36.8209 66.8558 37.0112 66.9701 37.3444C67.1462 37.0208 67.4365 36.8209 67.8221 36.8209C68.3409 36.8209 68.6741 37.1588 68.6741 37.7585V39.3911H68.1933V37.9108C68.1933 37.492 68.0077 37.2445 67.6555 37.2445C67.3271 37.2445 67.0605 37.5205 67.0605 37.9442V39.3911H66.5798V37.9108C66.5798 37.492 66.3941 37.2445 66.0419 37.2445C65.7087 37.2445 65.447 37.5205 65.447 37.9442V39.3911ZM69.7977 39.3911H69.3169V36.8684H69.7643V37.2873C69.9357 36.997 70.207 36.8209 70.5545 36.8209C70.9257 36.8209 71.2065 37.0112 71.3208 37.3444C71.4969 37.0208 71.7872 36.8209 72.1728 36.8209C72.6916 36.8209 73.0248 37.1588 73.0248 37.7585V39.3911H72.544V37.9108C72.544 37.492 72.3584 37.2445 72.0062 37.2445C71.6778 37.2445 71.4112 37.5205 71.4112 37.9442V39.3911H70.9305V37.9108C70.9305 37.492 70.7448 37.2445 70.3926 37.2445C70.0594 37.2445 69.7977 37.5205 69.7977 37.9442V39.3911ZM74.2531 36.283C74.2531 36.4639 74.1103 36.6019 73.9056 36.6019C73.7009 36.6019 73.5534 36.4639 73.5534 36.283C73.5534 36.0974 73.7009 35.9641 73.9056 35.9641C74.1103 35.9641 74.2531 36.0974 74.2531 36.283ZM74.1484 39.3911H73.6676V36.8684H74.1484V39.3911ZM76.2389 38.9247V39.3483C76.0913 39.4149 75.9628 39.4387 75.8105 39.4387C75.3441 39.4387 75.0204 39.1864 75.0204 38.6296V37.2778H74.4635V36.8684H75.0204V36.1212H75.5011V36.8684H76.2627V37.2778H75.5011V38.5201C75.5011 38.8675 75.6677 38.9913 75.9248 38.9913C76.039 38.9913 76.1389 38.9723 76.2389 38.9247ZM78.2283 38.9247V39.3483C78.0808 39.4149 77.9523 39.4387 77.7999 39.4387C77.3335 39.4387 77.0098 39.1864 77.0098 38.6296V37.2778H76.4529V36.8684H77.0098V36.1212H77.4906V36.8684H78.2521V37.2778H77.4906V38.5201C77.4906 38.8675 77.6572 38.9913 77.9142 38.9913C78.0284 38.9913 78.1284 38.9723 78.2283 38.9247ZM79.6788 39.4387C78.9506 39.4387 78.4603 38.9104 78.4603 38.1155C78.4603 37.3682 78.9696 36.8209 79.6645 36.8209C80.4166 36.8209 80.9163 37.4301 80.8307 38.2488H78.9506C78.9887 38.7628 79.2457 39.0627 79.6693 39.0627C80.0263 39.0627 80.2738 38.8675 80.3547 38.5391H80.8307C80.7069 39.1008 80.2738 39.4387 79.6788 39.4387ZM79.655 37.1826C79.2695 37.1826 79.0077 37.4587 78.9553 37.9299H80.3214C80.2976 37.4634 80.0453 37.1826 79.655 37.1826ZM82.3329 39.4387C81.6047 39.4387 81.1144 38.9104 81.1144 38.1155C81.1144 37.3682 81.6237 36.8209 82.3187 36.8209C83.0707 36.8209 83.5705 37.4301 83.4848 38.2488H81.6047C81.6428 38.7628 81.8998 39.0627 82.3234 39.0627C82.6804 39.0627 82.9279 38.8675 83.0088 38.5391H83.4848C83.361 39.1008 82.9279 39.4387 82.3329 39.4387ZM82.3091 37.1826C81.9236 37.1826 81.6618 37.4587 81.6094 37.9299H82.9755C82.9517 37.4634 82.6994 37.1826 82.3091 37.1826ZM85.6998 39.3911H85.2191V37.2778H84.6622V36.8684H85.2191V36.6828C85.2191 36.1973 85.4809 35.9308 85.9568 35.9308C86.0996 35.9308 86.2139 35.9546 86.3091 35.9927V36.383C86.2329 36.3496 86.1472 36.3401 86.0616 36.3401C85.8331 36.3401 85.6998 36.4448 85.6998 36.6876V36.8684H86.4043V37.2778H85.6998V39.3911ZM87.7578 39.4387C87.0438 39.4387 86.5203 38.8771 86.5203 38.1298C86.5203 37.3825 87.0438 36.8209 87.7578 36.8209C88.4718 36.8209 88.9953 37.3825 88.9953 38.1298C88.9953 38.8771 88.4718 39.4387 87.7578 39.4387ZM87.7578 39.0151C88.1719 39.0151 88.5003 38.6819 88.5003 38.1298C88.5003 37.5777 88.1719 37.2492 87.7578 37.2492C87.3437 37.2492 87.0201 37.5777 87.0201 38.1298C87.0201 38.6819 87.3437 39.0151 87.7578 39.0151ZM89.9661 38.1012V39.3911H89.4854V36.8684H89.9328V37.4015C90.1089 37.0541 90.4897 36.8351 90.9038 36.8351V37.3349C90.3612 37.3063 89.9661 37.5443 89.9661 38.1012ZM93.8782 39.3911L92.7978 36.778V39.3911H92.3171V35.9736H92.9596L94.1067 38.7485L95.2491 35.9736H95.8964V39.3911H95.4109V36.7733L94.3257 39.3911H93.8782ZM97.6348 39.4387C96.9065 39.4387 96.4163 38.9104 96.4163 38.1155C96.4163 37.3682 96.9256 36.8209 97.6205 36.8209C98.3725 36.8209 98.8723 37.4301 98.7866 38.2488H96.9065C96.9446 38.7628 97.2016 39.0627 97.6252 39.0627C97.9822 39.0627 98.2297 38.8675 98.3107 38.5391H98.7866C98.6629 39.1008 98.2297 39.4387 97.6348 39.4387ZM97.611 37.1826C97.2254 37.1826 96.9636 37.4587 96.9113 37.9299H98.2773C98.2535 37.4634 98.0013 37.1826 97.611 37.1826ZM99.7785 39.3911H99.2977V36.8684H99.7452V37.2873C99.9165 36.997 100.188 36.8209 100.535 36.8209C100.907 36.8209 101.187 37.0112 101.302 37.3444C101.478 37.0208 101.768 36.8209 102.154 36.8209C102.672 36.8209 103.006 37.1588 103.006 37.7585V39.3911H102.525V37.9108C102.525 37.492 102.339 37.2445 101.987 37.2445C101.659 37.2445 101.392 37.5205 101.392 37.9442V39.3911H100.911V37.9108C100.911 37.492 100.726 37.2445 100.373 37.2445C100.04 37.2445 99.7785 37.5205 99.7785 37.9442V39.3911ZM106.057 38.1298C106.057 38.8866 105.619 39.4387 104.938 39.4387C104.581 39.4387 104.277 39.2578 104.096 38.9389V39.3911H103.648V35.9736H104.129V37.3016C104.305 36.9922 104.596 36.8209 104.938 36.8209C105.614 36.8209 106.057 37.3635 106.057 38.1298ZM105.557 38.1298C105.557 37.5586 105.257 37.2445 104.843 37.2445C104.443 37.2445 104.129 37.5539 104.129 38.1203C104.129 38.6772 104.434 39.0103 104.843 39.0103C105.257 39.0103 105.557 38.6914 105.557 38.1298ZM107.582 39.4387C106.854 39.4387 106.363 38.9104 106.363 38.1155C106.363 37.3682 106.873 36.8209 107.568 36.8209C108.32 36.8209 108.819 37.4301 108.734 38.2488H106.854C106.892 38.7628 107.149 39.0627 107.572 39.0627C107.929 39.0627 108.177 38.8675 108.258 38.5391H108.734C108.61 39.1008 108.177 39.4387 107.582 39.4387ZM107.558 37.1826C107.173 37.1826 106.911 37.4587 106.858 37.9299H108.224C108.201 37.4634 107.948 37.1826 107.558 37.1826ZM109.726 38.1012V39.3911H109.245V36.8684H109.692V37.4015C109.868 37.0541 110.249 36.8351 110.663 36.8351V37.3349C110.121 37.3063 109.726 37.5443 109.726 38.1012ZM113.043 38.6391C113.043 39.1341 112.657 39.4387 111.986 39.4387C111.32 39.4387 110.925 39.1103 110.877 38.5677H111.339C111.358 38.8818 111.61 39.077 111.996 39.077C112.334 39.077 112.557 38.958 112.557 38.72C112.557 38.5106 112.429 38.4201 112.115 38.3582L111.705 38.2821C111.239 38.1917 110.977 37.9537 110.977 37.5729C110.977 37.1302 111.363 36.8209 111.948 36.8209C112.553 36.8209 112.962 37.1445 113.005 37.6633H112.543C112.514 37.3587 112.291 37.1826 111.953 37.1826C111.648 37.1826 111.444 37.3111 111.444 37.5301C111.444 37.7347 111.572 37.8299 111.877 37.887L112.305 37.9679C112.805 38.0584 113.043 38.2773 113.043 38.6391ZM115.148 36.283C115.148 36.4639 115.005 36.6019 114.8 36.6019C114.596 36.6019 114.448 36.4639 114.448 36.283C114.448 36.0974 114.596 35.9641 114.8 35.9641C115.005 35.9641 115.148 36.0974 115.148 36.283ZM115.043 39.3911H114.562V36.8684H115.043V39.3911ZM116.191 37.9679V39.3911H115.71V36.8684H116.158V37.2873C116.329 37.0065 116.615 36.8209 116.962 36.8209C117.481 36.8209 117.824 37.154 117.824 37.7585V39.3911H117.343V37.9204C117.343 37.4872 117.153 37.2445 116.796 37.2445C116.467 37.2445 116.191 37.5205 116.191 37.9679ZM120.019 39.3911H119.495V35.9736H120.019V39.3911ZM121.202 37.9679V39.3911H120.721V36.8684H121.169V37.2873C121.34 37.0065 121.626 36.8209 121.973 36.8209C122.492 36.8209 122.835 37.154 122.835 37.7585V39.3911H122.354V37.9204C122.354 37.4872 122.163 37.2445 121.806 37.2445C121.478 37.2445 121.202 37.5205 121.202 37.9679ZM123.292 38.1298C123.292 37.3635 123.73 36.8209 124.411 36.8209C124.749 36.8209 125.044 36.9922 125.22 37.3016V35.9736H125.701V39.3911H125.253V38.9389C125.072 39.2578 124.768 39.4387 124.411 39.4387C123.73 39.4387 123.292 38.8866 123.292 38.1298ZM123.792 38.1298C123.792 38.6914 124.087 39.0103 124.506 39.0103C124.915 39.0103 125.22 38.6772 125.22 38.1203C125.22 37.5539 124.906 37.2445 124.506 37.2445C124.087 37.2445 123.792 37.5586 123.792 38.1298ZM127.944 38.3535V36.8684H128.425V39.3911H127.978V38.9913C127.844 39.2531 127.549 39.4387 127.207 39.4387C126.697 39.4387 126.345 39.1388 126.345 38.4915V36.8684H126.826V38.3963C126.826 38.8342 127.045 39.0151 127.359 39.0151C127.682 39.0151 127.944 38.7485 127.944 38.3535ZM131.092 38.6391C131.092 39.1341 130.706 39.4387 130.035 39.4387C129.369 39.4387 128.974 39.1103 128.926 38.5677H129.388C129.407 38.8818 129.659 39.077 130.045 39.077C130.383 39.077 130.606 38.958 130.606 38.72C130.606 38.5106 130.478 38.4201 130.164 38.3582L129.754 38.2821C129.288 38.1917 129.026 37.9537 129.026 37.5729C129.026 37.1302 129.412 36.8209 129.997 36.8209C130.601 36.8209 131.011 37.1445 131.054 37.6633H130.592C130.563 37.3587 130.34 37.1826 130.002 37.1826C129.697 37.1826 129.492 37.3111 129.492 37.5301C129.492 37.7347 129.621 37.8299 129.926 37.887L130.354 37.9679C130.854 38.0584 131.092 38.2773 131.092 38.6391ZM133.007 38.9247V39.3483C132.86 39.4149 132.731 39.4387 132.579 39.4387C132.112 39.4387 131.789 39.1864 131.789 38.6296V37.2778H131.232V36.8684H131.789V36.1212H132.269V36.8684H133.031V37.2778H132.269V38.5201C132.269 38.8675 132.436 38.9913 132.693 38.9913C132.807 38.9913 132.907 38.9723 133.007 38.9247ZM133.971 38.1012V39.3911H133.49V36.8684H133.937V37.4015C134.113 37.0541 134.494 36.8351 134.908 36.8351V37.3349C134.366 37.3063 133.971 37.5443 133.971 38.1012ZM137.429 36.8684L136.168 40.3097H135.645L136.006 39.3578L135.011 36.8684H135.53L136.263 38.7914L136.944 36.8684H137.429ZM140.293 39.3911V39.0008C140.136 39.2816 139.855 39.4387 139.484 39.4387C138.961 39.4387 138.618 39.1388 138.618 38.6772C138.618 38.1821 139.013 37.9251 139.765 37.9251C139.913 37.9251 140.032 37.9299 140.236 37.9537V37.768C140.236 37.4063 140.041 37.2016 139.708 37.2016C139.356 37.2016 139.142 37.4111 139.127 37.7633H138.689C138.713 37.1969 139.118 36.8209 139.708 36.8209C140.331 36.8209 140.693 37.1731 140.693 37.7728V39.3911H140.293ZM139.075 38.6629C139.075 38.9247 139.27 39.096 139.579 39.096C139.984 39.096 140.236 38.8437 140.236 38.4582V38.2535C140.051 38.2297 139.917 38.225 139.794 38.225C139.313 38.225 139.075 38.3678 139.075 38.6629ZM141.817 37.9679V39.3911H141.336V36.8684H141.783V37.2873C141.955 37.0065 142.24 36.8209 142.588 36.8209C143.107 36.8209 143.449 37.154 143.449 37.7585V39.3911H142.969V37.9204C142.969 37.4872 142.778 37.2445 142.421 37.2445C142.093 37.2445 141.817 37.5205 141.817 37.9679ZM143.907 38.1298C143.907 37.3635 144.345 36.8209 145.025 36.8209C145.363 36.8209 145.658 36.9922 145.835 37.3016V35.9736H146.315V39.3911H145.868V38.9389C145.687 39.2578 145.382 39.4387 145.025 39.4387C144.345 39.4387 143.907 38.8866 143.907 38.1298ZM144.407 38.1298C144.407 38.6914 144.702 39.0103 145.121 39.0103C145.53 39.0103 145.835 38.6772 145.835 38.1203C145.835 37.5539 145.52 37.2445 145.121 37.2445C144.702 37.2445 144.407 37.5586 144.407 38.1298ZM150.434 38.4106C150.434 39.0341 149.977 39.3911 149.268 39.3911H148.016V35.9736H149.201C149.892 35.9736 150.306 36.2925 150.306 36.8684C150.306 37.1921 150.111 37.4682 149.782 37.611C150.206 37.73 150.434 38.0203 150.434 38.4106ZM149.168 36.3925H148.497V37.4206H149.168C149.582 37.4206 149.806 37.2254 149.806 36.9065C149.806 36.5876 149.582 36.3925 149.168 36.3925ZM149.235 37.8394H148.497V38.9723H149.235C149.682 38.9723 149.934 38.7581 149.934 38.3963C149.934 38.0489 149.682 37.8394 149.235 37.8394ZM152.575 38.3535V36.8684H153.056V39.3911H152.608V38.9913C152.475 39.2531 152.18 39.4387 151.837 39.4387C151.328 39.4387 150.976 39.1388 150.976 38.4915V36.8684H151.456V38.3963C151.456 38.8342 151.675 39.0151 151.99 39.0151C152.313 39.0151 152.575 38.7485 152.575 38.3535ZM155.722 38.6391C155.722 39.1341 155.337 39.4387 154.666 39.4387C153.999 39.4387 153.604 39.1103 153.557 38.5677H154.018C154.038 38.8818 154.29 39.077 154.675 39.077C155.013 39.077 155.237 38.958 155.237 38.72C155.237 38.5106 155.108 38.4201 154.794 38.3582L154.385 38.2821C153.919 38.1917 153.657 37.9537 153.657 37.5729C153.657 37.1302 154.042 36.8209 154.628 36.8209C155.232 36.8209 155.642 37.1445 155.684 37.6633H155.223C155.194 37.3587 154.97 37.1826 154.632 37.1826C154.328 37.1826 154.123 37.3111 154.123 37.5301C154.123 37.7347 154.252 37.8299 154.556 37.887L154.985 37.9679C155.484 38.0584 155.722 38.2773 155.722 38.6391ZM156.833 36.283C156.833 36.4639 156.69 36.6019 156.485 36.6019C156.281 36.6019 156.133 36.4639 156.133 36.283C156.133 36.0974 156.281 35.9641 156.485 35.9641C156.69 35.9641 156.833 36.0974 156.833 36.283ZM156.728 39.3911H156.247V36.8684H156.728V39.3911ZM157.876 37.9679V39.3911H157.395V36.8684H157.843V37.2873C158.014 37.0065 158.3 36.8209 158.647 36.8209C159.166 36.8209 159.509 37.154 159.509 37.7585V39.3911H159.028V37.9204C159.028 37.4872 158.838 37.2445 158.481 37.2445C158.152 37.2445 157.876 37.5205 157.876 37.9679ZM161.185 39.4387C160.457 39.4387 159.966 38.9104 159.966 38.1155C159.966 37.3682 160.476 36.8209 161.171 36.8209C161.923 36.8209 162.422 37.4301 162.337 38.2488H160.457C160.495 38.7628 160.752 39.0627 161.175 39.0627C161.532 39.0627 161.78 38.8675 161.861 38.5391H162.337C162.213 39.1008 161.78 39.4387 161.185 39.4387ZM161.161 37.1826C160.775 37.1826 160.514 37.4587 160.461 37.9299H161.827C161.804 37.4634 161.551 37.1826 161.161 37.1826ZM164.847 38.6391C164.847 39.1341 164.461 39.4387 163.79 39.4387C163.124 39.4387 162.729 39.1103 162.681 38.5677H163.143C163.162 38.8818 163.414 39.077 163.8 39.077C164.138 39.077 164.361 38.958 164.361 38.72C164.361 38.5106 164.233 38.4201 163.919 38.3582L163.509 38.2821C163.043 38.1917 162.781 37.9537 162.781 37.5729C162.781 37.1302 163.167 36.8209 163.752 36.8209C164.357 36.8209 164.766 37.1445 164.809 37.6633H164.347C164.319 37.3587 164.095 37.1826 163.757 37.1826C163.452 37.1826 163.248 37.3111 163.248 37.5301C163.248 37.7347 163.376 37.8299 163.681 37.887L164.109 37.9679C164.609 38.0584 164.847 38.2773 164.847 38.6391ZM167.371 38.6391C167.371 39.1341 166.985 39.4387 166.314 39.4387C165.648 39.4387 165.253 39.1103 165.205 38.5677H165.667C165.686 38.8818 165.938 39.077 166.324 39.077C166.662 39.077 166.885 38.958 166.885 38.72C166.885 38.5106 166.757 38.4201 166.443 38.3582L166.033 38.2821C165.567 38.1917 165.305 37.9537 165.305 37.5729C165.305 37.1302 165.691 36.8209 166.276 36.8209C166.881 36.8209 167.29 37.1445 167.333 37.6633H166.871C166.843 37.3587 166.619 37.1826 166.281 37.1826C165.976 37.1826 165.772 37.3111 165.772 37.5301C165.772 37.7347 165.9 37.8299 166.205 37.887L166.633 37.9679C167.133 38.0584 167.371 38.2773 167.371 38.6391Z" fill="white"/>
<path d="M61.0498 46.9883H60.4989V43.8879H59.3269V43.3921H62.2218V43.8879H61.0498V46.9883ZM63.1745 45.4907V46.9883H62.6687V43.3921H63.1745V44.7594C63.3498 44.474 63.6203 44.2836 63.9859 44.2836C64.5319 44.2836 64.8925 44.6342 64.8925 45.2703V46.9883H64.3866V45.4406C64.3866 44.9848 64.1863 44.7294 63.8106 44.7294C63.465 44.7294 63.1745 45.0199 63.1745 45.4907ZM66.6561 47.0384C65.8898 47.0384 65.3739 46.4824 65.3739 45.646C65.3739 44.8596 65.9099 44.2836 66.6411 44.2836C67.4325 44.2836 67.9584 44.9247 67.8682 45.7862H65.8898C65.9299 46.3271 66.2004 46.6427 66.6461 46.6427C67.0218 46.6427 67.2822 46.4373 67.3674 46.0917H67.8682C67.738 46.6828 67.2822 47.0384 66.6561 47.0384ZM66.6311 44.6643C66.2254 44.6643 65.9499 44.9548 65.8948 45.4506H67.3323C67.3073 44.9598 67.0418 44.6643 66.6311 44.6643ZM70.0438 46.9883H69.4929V43.3921H70.0438V46.9883ZM71.2891 45.4907V46.9883H70.7832V44.3337H71.254V44.7745C71.4343 44.479 71.7349 44.2836 72.1005 44.2836C72.6464 44.2836 73.007 44.6342 73.007 45.2703V46.9883H72.5012V45.4406C72.5012 44.9848 72.3008 44.7294 71.9252 44.7294C71.5796 44.7294 71.2891 45.0199 71.2891 45.4907ZM75.7824 46.1969C75.7824 46.7178 75.3767 47.0384 74.6705 47.0384C73.9693 47.0384 73.5536 46.6928 73.5035 46.1218H73.9894C74.0094 46.4524 74.2748 46.6577 74.6805 46.6577C75.0362 46.6577 75.2716 46.5325 75.2716 46.2821C75.2716 46.0617 75.1363 45.9665 74.8058 45.9014L74.375 45.8213C73.8842 45.7261 73.6087 45.4757 73.6087 45.075C73.6087 44.6092 74.0144 44.2836 74.6305 44.2836C75.2666 44.2836 75.6973 44.6242 75.7424 45.1702H75.2565C75.2265 44.8496 74.9911 44.6643 74.6355 44.6643C74.3149 44.6643 74.0995 44.7995 74.0995 45.0299C74.0995 45.2453 74.2348 45.3455 74.5553 45.4056L75.0061 45.4907C75.532 45.5859 75.7824 45.8163 75.7824 46.1969ZM77.7981 46.4974V46.9432C77.6428 47.0133 77.5076 47.0384 77.3473 47.0384C76.8565 47.0384 76.5159 46.7729 76.5159 46.1869V44.7645H75.9299V44.3337H76.5159V43.5474H77.0218V44.3337H77.8231V44.7645H77.0218V46.0717C77.0218 46.4373 77.1971 46.5676 77.4675 46.5676C77.5877 46.5676 77.6929 46.5475 77.7981 46.4974ZM78.922 43.7177C78.922 43.908 78.7717 44.0532 78.5564 44.0532C78.341 44.0532 78.1857 43.908 78.1857 43.7177C78.1857 43.5223 78.341 43.3821 78.5564 43.3821C78.7717 43.3821 78.922 43.5223 78.922 43.7177ZM78.8118 46.9883H78.3059V44.3337H78.8118V46.9883ZM81.0116 46.4974V46.9432C80.8564 47.0133 80.7211 47.0384 80.5609 47.0384C80.07 47.0384 79.7294 46.7729 79.7294 46.1869V44.7645H79.1434V44.3337H79.7294V43.5474H80.2353V44.3337H81.0367V44.7645H80.2353V46.0717C80.2353 46.4373 80.4106 46.5676 80.6811 46.5676C80.8013 46.5676 80.9065 46.5475 81.0116 46.4974ZM83.1773 45.8964V44.3337H83.6832V46.9883H83.2124V46.5676C83.0721 46.843 82.7616 47.0384 82.401 47.0384C81.8651 47.0384 81.4944 46.7228 81.4944 46.0417V44.3337H82.0003V45.9415C82.0003 46.4023 82.2307 46.5926 82.5613 46.5926C82.9018 46.5926 83.1773 46.3121 83.1773 45.8964ZM85.8833 46.4974V46.9432C85.728 47.0133 85.5928 47.0384 85.4325 47.0384C84.9417 47.0384 84.6011 46.7729 84.6011 46.1869V44.7645H84.0151V44.3337H84.6011V43.5474H85.107V44.3337H85.9083V44.7645H85.107V46.0717C85.107 46.4373 85.2823 46.5676 85.5527 46.5676C85.6729 46.5676 85.7781 46.5475 85.8833 46.4974ZM87.4096 47.0384C86.6433 47.0384 86.1274 46.4824 86.1274 45.646C86.1274 44.8596 86.6634 44.2836 87.3946 44.2836C88.186 44.2836 88.7119 44.9247 88.6217 45.7862H86.6433C86.6834 46.3271 86.9539 46.6427 87.3996 46.6427C87.7753 46.6427 88.0357 46.4373 88.1209 46.0917H88.6217C88.4915 46.6828 88.0357 47.0384 87.4096 47.0384ZM87.3846 44.6643C86.9789 44.6643 86.7034 44.9548 86.6483 45.4506H88.0858C88.0608 44.9598 87.7953 44.6643 87.3846 44.6643ZM91.3182 47.0384C90.5669 47.0384 90.016 46.4474 90.016 45.661C90.016 44.8746 90.5669 44.2836 91.3182 44.2836C92.0695 44.2836 92.6204 44.8746 92.6204 45.661C92.6204 46.4474 92.0695 47.0384 91.3182 47.0384ZM91.3182 46.5926C91.754 46.5926 92.0996 46.242 92.0996 45.661C92.0996 45.08 91.754 44.7344 91.3182 44.7344C90.8825 44.7344 90.5419 45.08 90.5419 45.661C90.5419 46.242 90.8825 46.5926 91.3182 46.5926ZM93.8091 46.9883H93.3032V44.7645H92.7172V44.3337H93.3032V44.1384C93.3032 43.6275 93.5787 43.347 94.0795 43.347C94.2298 43.347 94.35 43.3721 94.4502 43.4121V43.8228C94.37 43.7878 94.2799 43.7778 94.1897 43.7778C93.9493 43.7778 93.8091 43.8879 93.8091 44.1434V44.3337H94.5503V44.7645H93.8091V46.9883ZM97.5906 47.0634C96.5889 47.0634 95.8125 46.247 95.8125 45.1852C95.8125 44.1284 96.5889 43.317 97.5906 43.317C98.4922 43.317 99.2134 43.918 99.3486 44.8045H98.7626C98.6624 44.2235 98.1916 43.8128 97.5956 43.8128C96.8844 43.8128 96.3835 44.3888 96.3835 45.1852C96.3835 45.9916 96.8844 46.5676 97.5956 46.5676C98.1916 46.5676 98.6624 46.1518 98.7626 45.5708H99.3486C99.2134 46.4624 98.4922 47.0634 97.5906 47.0634ZM100.387 45.4907V46.9883H99.8811V43.3921H100.387V44.7594C100.562 44.474 100.833 44.2836 101.198 44.2836C101.744 44.2836 102.105 44.6342 102.105 45.2703V46.9883H101.599V45.4406C101.599 44.9848 101.399 44.7294 101.023 44.7294C100.678 44.7294 100.387 45.0199 100.387 45.4907ZM104.385 46.9883V46.5776C104.219 46.8731 103.924 47.0384 103.533 47.0384C102.982 47.0384 102.621 46.7228 102.621 46.237C102.621 45.7161 103.037 45.4456 103.829 45.4456C103.984 45.4456 104.109 45.4506 104.324 45.4757V45.2803C104.324 44.8997 104.119 44.6843 103.768 44.6843C103.398 44.6843 103.172 44.9047 103.157 45.2753H102.697C102.722 44.6793 103.147 44.2836 103.768 44.2836C104.425 44.2836 104.805 44.6543 104.805 45.2854V46.9883H104.385ZM103.102 46.222C103.102 46.4974 103.308 46.6777 103.633 46.6777C104.059 46.6777 104.324 46.4123 104.324 46.0066V45.7912C104.129 45.7662 103.989 45.7612 103.859 45.7612C103.353 45.7612 103.102 45.9114 103.102 46.222ZM105.987 45.6309V46.9883H105.482V44.3337H105.952V44.8947C106.138 44.529 106.538 44.2987 106.974 44.2987V44.8246C106.403 44.7945 105.987 45.0449 105.987 45.6309ZM109.033 46.4974V46.9432C108.878 47.0133 108.743 47.0384 108.583 47.0384C108.092 47.0384 107.751 46.7729 107.751 46.1869V44.7645H107.165V44.3337H107.751V43.5474H108.257V44.3337H109.059V44.7645H108.257V46.0717C108.257 46.4373 108.432 46.5676 108.703 46.5676C108.823 46.5676 108.928 46.5475 109.033 46.4974ZM110.56 47.0384C109.794 47.0384 109.278 46.4824 109.278 45.646C109.278 44.8596 109.814 44.2836 110.545 44.2836C111.336 44.2836 111.862 44.9247 111.772 45.7862H109.794C109.834 46.3271 110.104 46.6427 110.55 46.6427C110.925 46.6427 111.186 46.4373 111.271 46.0917H111.772C111.642 46.6828 111.186 47.0384 110.56 47.0384ZM110.535 44.6643C110.129 44.6643 109.854 44.9548 109.799 45.4506H111.236C111.211 44.9598 110.946 44.6643 110.535 44.6643ZM112.816 45.6309V46.9883H112.31V44.3337H112.781V44.8947C112.966 44.529 113.367 44.2987 113.802 44.2987V44.8246C113.231 44.7945 112.816 45.0449 112.816 45.6309ZM115.285 47.0384C114.518 47.0384 114.003 46.4824 114.003 45.646C114.003 44.8596 114.538 44.2836 115.27 44.2836C116.061 44.2836 116.587 44.9247 116.497 45.7862H114.518C114.559 46.3271 114.829 46.6427 115.275 46.6427C115.65 46.6427 115.911 46.4373 115.996 46.0917H116.497C116.367 46.6828 115.911 47.0384 115.285 47.0384ZM115.26 44.6643C114.854 44.6643 114.579 44.9548 114.523 45.4506H115.961C115.936 44.9598 115.67 44.6643 115.26 44.6643ZM116.795 45.661C116.795 44.8546 117.256 44.2836 117.972 44.2836C118.328 44.2836 118.639 44.4639 118.824 44.7895V43.3921H119.33V46.9883H118.859V46.5125C118.669 46.848 118.348 47.0384 117.972 47.0384C117.256 47.0384 116.795 46.4574 116.795 45.661ZM117.321 45.661C117.321 46.252 117.632 46.5876 118.073 46.5876C118.503 46.5876 118.824 46.237 118.824 45.651C118.824 45.055 118.493 44.7294 118.073 44.7294C117.632 44.7294 117.321 45.06 117.321 45.661ZM123.594 46.9883L123.269 46.0967H121.716L121.385 46.9883H120.829L122.207 43.3921H122.813L124.18 46.9883H123.594ZM122.497 43.9931L121.881 45.651H123.103L122.497 43.9931ZM125.531 47.0434C124.805 47.0434 124.294 46.4724 124.294 45.661C124.294 44.8596 124.815 44.2836 125.531 44.2836C126.187 44.2836 126.663 44.7194 126.758 45.4106H126.227C126.172 44.9848 125.906 44.7294 125.536 44.7294C125.1 44.7294 124.815 45.1 124.815 45.661C124.815 46.227 125.1 46.5926 125.536 46.5926C125.911 46.5926 126.172 46.3422 126.232 45.9114H126.758C126.668 46.6126 126.197 47.0434 125.531 47.0434ZM128.289 47.0434C127.563 47.0434 127.052 46.4724 127.052 45.661C127.052 44.8596 127.573 44.2836 128.289 44.2836C128.946 44.2836 129.421 44.7194 129.517 45.4106H128.986C128.931 44.9848 128.665 44.7294 128.295 44.7294C127.859 44.7294 127.573 45.1 127.573 45.661C127.573 46.227 127.859 46.5926 128.295 46.5926C128.67 46.5926 128.931 46.3422 128.991 45.9114H129.517C129.426 46.6126 128.956 47.0434 128.289 47.0434ZM131.113 47.0384C130.362 47.0384 129.811 46.4474 129.811 45.661C129.811 44.8746 130.362 44.2836 131.113 44.2836C131.865 44.2836 132.416 44.8746 132.416 45.661C132.416 46.4474 131.865 47.0384 131.113 47.0384ZM131.113 46.5926C131.549 46.5926 131.895 46.242 131.895 45.661C131.895 45.08 131.549 44.7344 131.113 44.7344C130.678 44.7344 130.337 45.08 130.337 45.661C130.337 46.242 130.678 46.5926 131.113 46.5926ZM134.589 45.8964V44.3337H135.095V46.9883H134.624V46.5676C134.484 46.843 134.173 47.0384 133.813 47.0384C133.277 47.0384 132.906 46.7228 132.906 46.0417V44.3337H133.412V45.9415C133.412 46.4023 133.642 46.5926 133.973 46.5926C134.314 46.5926 134.589 46.3121 134.589 45.8964ZM136.303 45.4907V46.9883H135.797V44.3337H136.268V44.7745C136.449 44.479 136.749 44.2836 137.115 44.2836C137.661 44.2836 138.021 44.6342 138.021 45.2703V46.9883H137.515V45.4406C137.515 44.9848 137.315 44.7294 136.939 44.7294C136.594 44.7294 136.303 45.0199 136.303 45.4907ZM140.181 46.4974V46.9432C140.026 47.0133 139.89 47.0384 139.73 47.0384C139.239 47.0384 138.899 46.7729 138.899 46.1869V44.7645H138.313V44.3337H138.899V43.5474H139.405V44.3337H140.206V44.7645H139.405V46.0717C139.405 46.4373 139.58 46.5676 139.85 46.5676C139.97 46.5676 140.076 46.5475 140.181 46.4974ZM142.296 46.9883V46.5776C142.131 46.8731 141.836 47.0384 141.445 47.0384C140.894 47.0384 140.533 46.7228 140.533 46.237C140.533 45.7161 140.949 45.4456 141.74 45.4456C141.896 45.4456 142.021 45.4506 142.236 45.4757V45.2803C142.236 44.8997 142.031 44.6843 141.68 44.6843C141.31 44.6843 141.084 44.9047 141.069 45.2753H140.609C140.634 44.6793 141.059 44.2836 141.68 44.2836C142.337 44.2836 142.717 44.6543 142.717 45.2854V46.9883H142.296ZM141.014 46.222C141.014 46.4974 141.22 46.6777 141.545 46.6777C141.971 46.6777 142.236 46.4123 142.236 46.0066V45.7912C142.041 45.7662 141.901 45.7612 141.771 45.7612C141.265 45.7612 141.014 45.9114 141.014 46.222ZM143.899 45.4907V46.9883H143.394V44.3337H143.864V44.7745C144.045 44.479 144.345 44.2836 144.711 44.2836C145.257 44.2836 145.617 44.6342 145.617 45.2703V46.9883H145.111V45.4406C145.111 44.9848 144.911 44.7294 144.536 44.7294C144.19 44.7294 143.899 45.0199 143.899 45.4907ZM147.777 46.4974V46.9432C147.622 47.0133 147.486 47.0384 147.326 47.0384C146.835 47.0384 146.495 46.7729 146.495 46.1869V44.7645H145.909V44.3337H146.495V43.5474H147.001V44.3337H147.802V44.7645H147.001V46.0717C147.001 46.4373 147.176 46.5676 147.446 46.5676C147.567 46.5676 147.672 46.5475 147.777 46.4974ZM150.379 46.1969C150.379 46.7178 149.973 47.0384 149.267 47.0384C148.565 47.0384 148.15 46.6928 148.1 46.1218H148.586C148.606 46.4524 148.871 46.6577 149.277 46.6577C149.632 46.6577 149.868 46.5325 149.868 46.2821C149.868 46.0617 149.732 45.9665 149.402 45.9014L148.971 45.8213C148.48 45.7261 148.205 45.4757 148.205 45.075C148.205 44.6092 148.611 44.2836 149.227 44.2836C149.863 44.2836 150.293 44.6242 150.339 45.1702H149.853C149.823 44.8496 149.587 44.6643 149.232 44.6643C148.911 44.6643 148.696 44.7995 148.696 45.0299C148.696 45.2453 148.831 45.3455 149.151 45.4056L149.602 45.4907C150.128 45.5859 150.379 45.8163 150.379 46.1969ZM153.09 47.0384C152.338 47.0384 151.787 46.4474 151.787 45.661C151.787 44.8746 152.338 44.2836 153.09 44.2836C153.841 44.2836 154.392 44.8746 154.392 45.661C154.392 46.4474 153.841 47.0384 153.09 47.0384ZM153.09 46.5926C153.525 46.5926 153.871 46.242 153.871 45.661C153.871 45.08 153.525 44.7344 153.09 44.7344C152.654 44.7344 152.313 45.08 152.313 45.661C152.313 46.242 152.654 46.5926 153.09 46.5926ZM155.58 46.9883H155.075V44.7645H154.489V44.3337H155.075V44.1384C155.075 43.6275 155.35 43.347 155.851 43.347C156.001 43.347 156.121 43.3721 156.222 43.4121V43.8228C156.141 43.7878 156.051 43.7778 155.961 43.7778C155.721 43.7778 155.58 43.8879 155.58 44.1434V44.3337H156.322V44.7645H155.58V46.9883ZM158.345 46.9883H157.794V43.3921H158.345V46.9883ZM159.59 45.4907V46.9883H159.085V44.3337H159.555V44.7745C159.736 44.479 160.036 44.2836 160.402 44.2836C160.948 44.2836 161.308 44.6342 161.308 45.2703V46.9883H160.803V45.4406C160.803 44.9848 160.602 44.7294 160.227 44.7294C159.881 44.7294 159.59 45.0199 159.59 45.4907ZM161.79 45.661C161.79 44.8546 162.251 44.2836 162.967 44.2836C163.323 44.2836 163.633 44.4639 163.818 44.7895V43.3921H164.324V46.9883H163.853V46.5125C163.663 46.848 163.343 47.0384 162.967 47.0384C162.251 47.0384 161.79 46.4574 161.79 45.661ZM162.316 45.661C162.316 46.252 162.626 46.5876 163.067 46.5876C163.498 46.5876 163.818 46.237 163.818 45.651C163.818 45.055 163.488 44.7294 163.067 44.7294C162.626 44.7294 162.316 45.06 162.316 45.661ZM165.644 43.7177C165.644 43.908 165.493 44.0532 165.278 44.0532C165.063 44.0532 164.907 43.908 164.907 43.7177C164.907 43.5223 165.063 43.3821 165.278 43.3821C165.493 43.3821 165.644 43.5223 165.644 43.7177ZM165.533 46.9883H165.027V44.3337H165.533V46.9883ZM167.843 46.9883V46.5776C167.678 46.8731 167.383 47.0384 166.992 47.0384C166.441 47.0384 166.08 46.7228 166.08 46.237C166.08 45.7161 166.496 45.4456 167.287 45.4456C167.443 45.4456 167.568 45.4506 167.783 45.4757V45.2803C167.783 44.8997 167.578 44.6843 167.227 44.6843C166.857 44.6843 166.631 44.9047 166.616 45.2753H166.155C166.18 44.6793 166.606 44.2836 167.227 44.2836C167.883 44.2836 168.264 44.6543 168.264 45.2854V46.9883H167.843ZM166.561 46.222C166.561 46.4974 166.767 46.6777 167.092 46.6777C167.518 46.6777 167.783 46.4123 167.783 46.0066V45.7912C167.588 45.7662 167.448 45.7612 167.317 45.7612C166.812 45.7612 166.561 45.9114 166.561 46.222Z" fill="#E91639"/>
<defs>
<linearGradient id="paint0_linear_8060_7078" x1="113" y1="2.42041" x2="113" y2="30.7048" gradientUnits="userSpaceOnUse">
<stop stop-color="#FFB726"/>
<stop offset="1" stop-color="#F9C151"/>
</linearGradient>
<linearGradient id="paint1_linear_8060_7078" x1="113" y1="2.42041" x2="113" y2="30.7048" gradientUnits="userSpaceOnUse">
<stop stop-color="#FFB726"/>
<stop offset="1" stop-color="#F9C151"/>
</linearGradient>
<linearGradient id="paint2_linear_8060_7078" x1="113" y1="2.42041" x2="113" y2="30.7048" gradientUnits="userSpaceOnUse">
<stop stop-color="#FFB726"/>
<stop offset="1" stop-color="#F9C151"/>
</linearGradient>
<linearGradient id="paint3_linear_8060_7078" x1="113" y1="2.42041" x2="113" y2="30.7048" gradientUnits="userSpaceOnUse">
<stop stop-color="#FFB726"/>
<stop offset="1" stop-color="#F9C151"/>
</linearGradient>
<linearGradient id="paint4_linear_8060_7078" x1="113" y1="2.42041" x2="113" y2="30.7048" gradientUnits="userSpaceOnUse">
<stop stop-color="#FFB726"/>
<stop offset="1" stop-color="#F9C151"/>
</linearGradient>
<linearGradient id="paint5_linear_8060_7078" x1="113" y1="2.42041" x2="113" y2="30.7048" gradientUnits="userSpaceOnUse">
<stop stop-color="#FFB726"/>
<stop offset="1" stop-color="#F9C151"/>
</linearGradient>
<linearGradient id="paint6_linear_8060_7078" x1="113" y1="2.42041" x2="113" y2="30.7048" gradientUnits="userSpaceOnUse">
<stop stop-color="#FFB726"/>
<stop offset="1" stop-color="#F9C151"/>
</linearGradient>
<linearGradient id="paint7_linear_8060_7078" x1="113" y1="2.42041" x2="113" y2="30.7048" gradientUnits="userSpaceOnUse">
<stop stop-color="#FFB726"/>
<stop offset="1" stop-color="#F9C151"/>
</linearGradient>
</defs>
</svg>
