<svg width="32" height="33" viewBox="0 0 32 33" fill="none" xmlns="http://www.w3.org/2000/svg">
<g clip-path="url(#clip0_7512_85063)">
<rect y="0.346802" width="32" height="32" rx="3" fill="white"/>
<path fill-rule="evenodd" clip-rule="evenodd" d="M2.5 0.346802H29.5C30.8813 0.346802 32 1.46555 32 2.8468V29.8468C32 31.2281 30.8813 32.3468 29.5 32.3468H2.5C1.11875 32.3468 0 31.2281 0 29.8468V2.8468C0 1.46555 1.11875 0.346802 2.5 0.346802ZM23.054 9.11633H20.6007L16.558 13.7383L13.0627 9.117H8L14.0493 17.025L8.316 23.5783H10.7707L15.196 18.5223L19.0627 23.5783H24L17.694 15.243L23.054 9.11633ZM21.0993 22.1103H19.74L10.8653 10.5077H12.324L21.0993 22.1103Z" fill="#00137E"/>
</g>
<defs>
<clipPath id="clip0_7512_85063">
<rect y="0.346802" width="32" height="32" rx="3" fill="white"/>
</clipPath>
</defs>
</svg>
