<svg width="32" height="33" viewBox="0 0 32 33" fill="none" xmlns="http://www.w3.org/2000/svg">
<g clip-path="url(#clip0_7512_85071)">
<rect y="0.346802" width="32" height="32" rx="3" fill="white"/>
<path d="M13.8691 19.4265L19.1066 16.3515L13.8691 13.2765V19.4265Z" fill="#00137E"/>
<path d="M29.5 0.346802H2.5C1.11875 0.346802 0 1.46555 0 2.8468V29.8468C0 31.2281 1.11875 32.3468 2.5 32.3468H29.5C30.8813 32.3468 32 31.2281 32 29.8468V2.8468C32 1.46555 30.8813 0.346802 29.5 0.346802ZM24 19.2093C24 21.9656 21.2437 21.9656 21.2437 21.9656H10.7563C8 21.9656 8 19.2093 8 19.2093V13.4906C8 10.7343 10.7563 10.7343 10.7563 10.7343H21.2437C24 10.7343 24 13.4906 24 13.4906V19.2093Z" fill="#00137E"/>
</g>
<defs>
<clipPath id="clip0_7512_85071">
<rect y="0.346802" width="32" height="32" rx="3" fill="white"/>
</clipPath>
</defs>
</svg>
