<svg width="32" height="33" viewBox="0 0 32 33" fill="none" xmlns="http://www.w3.org/2000/svg">
<g clip-path="url(#clip0_7512_85086)">
<path d="M29.5 0.346802H2.5C1.11875 0.346802 0 1.46555 0 2.8468V29.8468C0 31.2281 1.11875 32.3468 2.5 32.3468H29.5C30.8812 32.3468 32 31.2281 32 29.8468V2.8468C32 1.46555 30.8812 0.346802 29.5 0.346802ZM24 14.7031V21.2531C24 22.9593 22.6125 24.3468 20.9062 24.3468H11.0938C9.3875 24.3468 8 22.9593 8 21.2531V14.7031V11.4343C8 9.72805 13.3337 11.4343 15.04 11.4343L20.9062 8.34055C22.6125 8.34055 24 9.72805 24 11.4343V14.7031Z" fill="#00137E"/>
<rect x="3.67969" y="4.34668" width="25.92" height="24.16" fill="#00137E"/>
<path d="M25.2177 10.2014L22.4854 23.0865C22.2791 23.9958 21.7417 24.2221 20.978 23.794L16.8147 20.7262L14.8061 22.6584C14.5836 22.8809 14.398 23.0665 13.9693 23.0665L14.2687 18.8268L21.9842 11.855C22.3199 11.5562 21.9112 11.39 21.463 11.6894L11.9244 17.6958L7.81801 16.4102C6.92494 16.1315 6.90878 15.5171 8.00426 15.0884L24.0659 8.90027C24.8096 8.62155 25.4602 9.06517 25.2177 10.2014Z" fill="#FBFCFF"/>
</g>
<defs>
<clipPath id="clip0_7512_85086">
<rect y="0.346802" width="32" height="32" rx="3" fill="white"/>
</clipPath>
</defs>
</svg>
