<svg width="16" height="16" viewBox="0 0 16 16" fill="none" xmlns="http://www.w3.org/2000/svg">
<path d="M13.4134 2.58668L2.26005 13.74C2.22671 13.6067 2.21338 13.46 2.21338 13.3V3.90668C2.21338 2.49334 3.36671 1.33334 4.78671 1.33334H11.2134C12.1467 1.33334 12.9667 1.83334 13.4134 2.58668Z" fill="#00137E"/>
<path d="M14.5131 1.48667C14.3131 1.28667 13.9864 1.28667 13.7864 1.48667L1.48643 13.7933C1.28643 13.9933 1.28643 14.32 1.48643 14.52C1.58643 14.6133 1.71309 14.6667 1.84643 14.6667C1.97976 14.6667 2.10643 14.6133 2.20643 14.5133L14.5131 2.20667C14.7198 2.00667 14.7198 1.68667 14.5131 1.48667Z" fill="#00137E"/>
<path d="M12.8599 5.14L7.93327 10.0667C7.6266 10.3733 7.6866 10.8867 8.05994 11.1067L12.9866 14.06C13.4333 14.3267 13.9933 14.0067 13.9933 13.4867V5.60667C13.9999 5.01334 13.2799 4.72 12.8599 5.14Z" fill="#00137E"/>
</svg>
