<svg width="32" height="33" viewBox="0 0 32 33" fill="none" xmlns="http://www.w3.org/2000/svg">
<path d="M29.5 0.346802H2.5C1.11875 0.346802 0 1.46555 0 2.8468V29.8468C0 31.2281 1.11875 32.3468 2.5 32.3468H29.5C30.8813 32.3468 32 31.2281 32 29.8468V2.8468C32 1.46555 30.8813 0.346802 29.5 0.346802ZM19.5312 13.6343L19.35 16.0281H16.8937V24.3406H13.7937V16.0281H12.1375V13.6343H13.7937V12.0281C13.7937 11.3218 13.8125 10.2281 14.325 9.5468C14.8687 8.82805 15.6125 8.34055 16.8937 8.34055C18.9812 8.34055 19.8563 8.64055 19.8563 8.64055L19.4438 11.0906C19.4438 11.0906 18.7562 10.8906 18.1125 10.8906C17.4688 10.8906 16.8937 11.1218 16.8937 11.7656V13.6343H19.5312Z" fill="#00137E"/>
</svg>
