<svg width="18" height="18" viewBox="0 0 18 18" fill="none" xmlns="http://www.w3.org/2000/svg">
<path d="M9 9C11.0711 9 12.75 7.32107 12.75 5.25C12.75 3.17893 11.0711 1.5 9 1.5C6.92893 1.5 5.25 3.17893 5.25 5.25C5.25 7.32107 6.92893 9 9 9Z" stroke="#000833" stroke-width="1.5" stroke-linecap="round" stroke-linejoin="round"/>
<path d="M2.55737 16.5C2.55737 13.5975 5.44489 11.25 8.99989 11.25" stroke="#000833" stroke-width="1.5" stroke-linecap="round" stroke-linejoin="round"/>
<path d="M16.9584 13.7082V15.0623C16.9584 16.4165 16.4167 16.9582 15.0626 16.9582H13.4376C12.0834 16.9582 11.5417 16.4165 11.5417 15.0623V13.4373C11.5417 12.0832 12.0834 11.5415 13.4376 11.5415H14.7917" stroke="#000833" stroke-width="1.5" stroke-linecap="round" stroke-linejoin="round"/>
<path d="M16.9584 13.7082H15.8751C15.0626 13.7082 14.7917 13.4373 14.7917 12.6248V11.5415L16.9584 13.7082Z" stroke="#000833" stroke-width="1.5" stroke-linecap="round" stroke-linejoin="round"/>
</svg>
