<svg width="48" height="49" viewBox="0 0 48 49" fill="none" xmlns="http://www.w3.org/2000/svg">
<g id="fi_675729" clip-path="url(#clip0_9244_1507)">
<path id="Vector" d="M36.9301 14.4978H34.895C34.5662 13.3362 34.1021 12.2323 33.5198 11.2018L34.9497 9.78191C35.532 9.20469 35.532 8.26353 34.9506 7.68528L31.1628 3.92225C30.5865 3.34897 29.6564 3.34897 29.08 3.92131L27.6364 5.35625C26.6 4.77791 25.488 4.31684 24.3204 3.98994V1.97759C24.3204 1.16178 23.6586 0.5 22.8428 0.5H17.477C16.6612 0.5 15.9995 1.16178 15.9995 1.97759V3.98975C14.8298 4.31666 13.7199 4.77772 12.6816 5.35606L11.2398 3.92225C10.6635 3.34991 9.73339 3.34991 9.15702 3.92225L5.36914 7.68528C4.7878 8.26362 4.7878 9.20459 5.36914 9.78191L6.79902 11.2018C6.21767 12.2323 5.75267 13.3362 5.42277 14.4978H3.3897C2.57389 14.4978 1.91211 15.1587 1.91211 15.9754V21.2856C1.91211 22.1014 2.57389 22.7632 3.3897 22.7632H5.42277C5.75267 23.9238 6.21777 25.0287 6.79902 26.0582L5.36914 27.4782C4.7878 28.0565 4.7878 28.9975 5.36914 29.5748L9.15702 33.3378C9.7333 33.9102 10.6634 33.9102 11.2398 33.3369L12.6816 31.904C13.72 32.4823 14.83 32.9434 15.9995 33.2723V35.2835C15.9995 35.7207 16.1892 36.1132 16.4914 36.3825C16.7527 36.6191 17.0985 36.7611 17.477 36.7611H22.8428C23.6586 36.7611 24.3204 36.0993 24.3204 35.2835V33.2723C25.488 32.9433 26.6 32.4823 27.6364 31.904L29.0732 33.3309L29.0801 33.3378C29.6564 33.9102 30.5865 33.9102 31.1629 33.3378L33.0846 31.429L34.9498 29.5748C35.5321 28.9974 35.5321 28.0564 34.9498 27.4782L33.5199 26.0582C34.1022 25.0287 34.5663 23.9238 34.8951 22.7632H36.9302C37.586 22.7632 38.1425 22.3359 38.3352 21.7437C38.382 21.5996 38.4078 21.4455 38.4078 21.2856V15.9754C38.4077 15.1586 37.7459 14.4978 36.9301 14.4978ZM20.16 25.4123C19.9026 25.4123 19.6482 25.3984 19.3979 25.3696C15.9985 24.992 13.3554 22.1184 13.3554 18.6305C13.3554 14.8843 16.4019 11.8478 20.1601 11.8478C23.9182 11.8478 26.9628 14.8844 26.9628 18.6305C26.9628 19.7842 26.6736 20.8712 26.1629 21.8232C25.018 23.9595 22.7594 25.4123 20.16 25.4123Z" fill="#737373"/>
<path id="Vector_2" d="M37.7199 22.2107L37.5242 22.4055C37.398 22.3508 37.2708 22.2992 37.1426 22.2486V21.9981C37.1426 20.3914 35.836 19.0837 34.2282 19.0837H30.1402C28.5335 19.0837 27.2258 20.3915 27.2258 21.9981V22.2486C27.0986 22.2992 26.9704 22.3508 26.8443 22.4055L26.6485 22.2117C26.4994 22.0637 26.3364 21.9335 26.1635 21.8232C25.0188 23.9596 22.7602 25.4123 20.1608 25.4123C19.9035 25.4123 19.649 25.3985 19.3987 25.3697C19.0062 25.8764 18.7946 26.4955 18.7946 27.1463C18.7946 27.9283 19.1007 28.6626 19.6551 29.2131L19.8301 29.387C19.7784 29.5072 19.7277 29.6274 19.679 29.7486H19.4066C17.7999 29.7486 16.4922 31.0564 16.4922 32.6631V36.3824C16.7536 36.6189 17.0993 36.761 17.4779 36.761H22.8437C23.6595 36.761 24.3213 36.0992 24.3213 35.2834V33.2722C25.4888 32.9433 26.6008 32.4822 27.6372 31.904L29.074 33.3308C29.5997 32.1404 30.796 31.3078 32.1842 31.3078C32.4962 31.3078 32.7982 31.3495 33.0855 31.429L34.9506 29.5748C35.5329 28.9974 35.5329 28.0565 34.9506 27.4782L33.5208 26.0583C34.103 25.0288 34.5671 23.9239 34.896 22.7632H36.931C37.5868 22.7632 38.1433 22.3359 38.336 21.7437C38.1134 21.8689 37.9067 22.0259 37.7199 22.2107Z" fill="#606060"/>
<path id="Vector_3" d="M20.1607 8.0498C14.3169 8.0498 9.58008 12.7866 9.58008 18.6304C9.58008 24.2984 14.0376 28.9248 19.6389 29.1961C19.8118 29.2051 19.9857 29.2091 20.1605 29.2091C25.8512 29.2091 30.4936 24.7156 30.7302 19.0836C30.7371 18.9335 30.7401 18.7826 30.7401 18.6304C30.7403 12.7866 26.0034 8.0498 20.1607 8.0498ZM26.1386 21.8668C24.9879 23.9792 22.7422 25.4121 20.1606 25.4121C19.9033 25.4121 19.6488 25.3982 19.3995 25.3695H19.3985C15.9991 24.9918 13.356 22.1182 13.356 18.6303C13.356 14.8842 16.4025 11.8476 20.1607 11.8476C23.9189 11.8476 26.9634 14.8843 26.9634 18.6303C26.9634 19.784 26.6743 20.8711 26.1635 21.823C26.1555 21.8379 26.1465 21.8529 26.1386 21.8668Z" fill="#333333"/>
<path id="Vector_4" d="M30.1397 19.0835C28.533 19.0835 27.2253 20.3912 27.2253 21.9979V22.2483C27.098 22.2989 26.9699 22.3506 26.8437 22.4052L26.6479 22.2115C26.4989 22.0634 26.3359 21.9332 26.163 21.823C26.1551 21.8379 26.1461 21.8528 26.1381 21.8667C24.9874 23.9792 22.7418 25.4121 20.1602 25.4121C19.9028 25.4121 19.6484 25.3982 19.399 25.3694H19.3981C19.0055 25.8762 18.7939 26.4953 18.7939 27.1461C18.7939 27.9202 19.094 28.6475 19.6385 29.196C19.8114 29.2049 19.9853 29.209 20.1602 29.209C25.8509 29.209 30.4933 24.7155 30.7298 19.0835H30.1397Z" fill="#1A1A1A"/>
<path id="Vector_5" d="M46.0871 36.7092V32.6631C46.0871 32.0414 45.583 31.5373 44.9612 31.5373H43.4111C43.1605 30.6526 42.8066 29.8112 42.3632 29.0267L43.4527 27.9444C43.896 27.5042 43.896 26.7873 43.4528 26.3471L40.5669 23.4796C40.1279 23.0433 39.419 23.0433 38.98 23.4795L37.88 24.5721C37.0902 24.1319 36.2434 23.7801 35.3536 23.5317V21.9984C35.3536 21.3767 34.8495 20.8726 34.2277 20.8726H30.1396C29.5178 20.8726 29.0137 21.3767 29.0137 21.9984V23.5317C28.1227 23.7802 27.2771 24.132 26.4862 24.5721L25.3873 23.4799C24.9482 23.0436 24.2392 23.0435 23.8002 23.4798L20.9145 26.3472C20.4713 26.7875 20.4715 27.5043 20.9146 27.9445L22.0041 29.0267C21.5607 29.8112 21.207 30.6527 20.9552 31.5374H19.4061C18.7844 31.5374 18.2803 32.0415 18.2803 32.6632V36.7093C18.2803 37.331 18.7844 37.8351 19.4061 37.8351H20.9552C21.207 38.7198 21.5608 39.5612 22.0041 40.3457L20.9146 41.4279C20.4714 41.8682 20.4714 42.5851 20.9146 43.0253L23.8002 45.8918C24.2393 46.328 24.9482 46.3279 25.3872 45.8916L26.4862 44.7993C27.2771 45.2406 28.1228 45.5913 29.0137 45.8419V47.3742C29.0137 47.9959 29.5178 48.5 30.1396 48.5H34.2278C34.8496 48.5 35.3536 47.9959 35.3536 47.3742V45.8419C36.2435 45.5913 37.0903 45.2406 37.8801 44.7993L38.9802 45.8921C39.4192 46.3282 40.128 46.3281 40.567 45.8921L43.4527 43.0254C43.896 42.5851 43.896 41.8682 43.4527 41.428L42.3632 40.3458C42.8067 39.5613 43.1604 38.7198 43.4112 37.8352H44.9613C45.583 37.835 46.0871 37.331 46.0871 36.7092ZM32.1838 39.8538C29.3204 39.8538 26.9992 37.5402 26.9992 34.6862C26.9992 31.8323 29.3204 29.5187 32.1838 29.5187C35.0472 29.5187 37.3672 31.8323 37.3672 34.6862C37.3672 37.5402 35.0472 39.8538 32.1838 39.8538Z" fill="#C2C2C2"/>
<path id="Vector_6" d="M32.1837 26.6248C27.7312 26.6248 24.1221 30.2338 24.1221 34.6863C24.1221 39.1378 27.7311 42.7469 32.1837 42.7469C36.6353 42.7469 40.2444 39.1379 40.2444 34.6863C40.2443 30.2338 36.6353 26.6248 32.1837 26.6248ZM32.1837 39.8539C29.3203 39.8539 26.9992 37.5403 26.9992 34.6863C26.9992 31.8324 29.3203 29.5187 32.1837 29.5187C35.0471 29.5187 37.3672 31.8324 37.3672 34.6863C37.3672 37.5403 35.0471 39.8539 32.1837 39.8539Z" fill="#808080"/>
</g>
<defs>
<clipPath id="clip0_9244_1507">
<rect width="48" height="48" fill="white" transform="translate(0 0.5)"/>
</clipPath>
</defs>
</svg>
