<svg width="20" height="20" viewBox="0 0 20 20" fill="none" xmlns="http://www.w3.org/2000/svg">
<path d="M4.39078 13.8581L4.39079 13.8581L4.38736 13.8555C4.23882 13.7458 4.0607 13.5298 3.91825 13.244C3.77608 12.9588 3.7085 12.6826 3.7085 12.4922V5.74219C3.7085 5.45346 3.82264 5.10594 4.04361 4.7872C4.26432 4.46884 4.55033 4.23878 4.82257 4.13583C4.82281 4.13574 4.82305 4.13565 4.82329 4.13556L9.40265 2.42038C9.53221 2.37299 9.74989 2.33594 10.0043 2.33594C10.2588 2.33594 10.4765 2.37299 10.606 2.42038C10.6065 2.42057 10.607 2.42076 10.6075 2.42094L15.1832 4.13472C15.1837 4.13494 15.1843 4.13516 15.1849 4.13537C15.4527 4.23793 15.7366 4.46735 15.9553 4.78512C16.1745 5.10357 16.2861 5.44935 16.2835 5.73555L16.2835 5.73555V5.74219V12.4922C16.2835 12.682 16.2162 12.9559 16.0741 13.2401C15.9324 13.5235 15.7534 13.743 15.5997 13.8592C15.5994 13.8595 15.599 13.8597 15.5987 13.86L11.0179 17.2831L11.0158 17.2846C10.7642 17.474 10.3972 17.5901 9.996 17.5901C9.59475 17.5901 9.22781 17.474 8.97615 17.2846L8.97411 17.2831L4.39078 13.8581ZM7.89988 12.2109L7.89987 12.2109L7.90317 12.2142C8.17623 12.4873 8.52865 12.6172 8.87516 12.6172C9.22167 12.6172 9.57409 12.4873 9.84716 12.2142L13.4269 8.63449C13.9749 8.09888 13.9731 7.21276 13.4388 6.67852C12.9043 6.14396 12.0294 6.14396 11.4948 6.67852L8.8835 9.28986L8.51383 8.92019C7.97927 8.38563 7.10439 8.38563 6.56983 8.92019C6.03595 9.45407 6.03527 10.3274 6.56779 10.8621L7.89988 12.2109Z" fill="#04AF55" stroke="#04AF55" stroke-width="1.5"/>
</svg>
