<svg width="38" height="40" viewBox="0 0 38 40" fill="none" xmlns="http://www.w3.org/2000/svg">
<path fill-rule="evenodd" clip-rule="evenodd" d="M12.1705 0H25.7157L37.6766 11.9586V34.9271C37.6766 37.7184 35.3928 40 32.6038 40H12.1705C9.38148 40 7.09766 37.7184 7.09766 34.9271V5.07289C7.09773 2.28148 9.38156 0 12.1705 0Z" fill="#E5A525"/>
<path fill-rule="evenodd" clip-rule="evenodd" d="M25.7169 0L37.6778 11.9586H27.0085C26.2975 11.9586 25.7168 11.3802 25.7168 10.6692V0H25.7169Z" fill="#B7841D"/>
<path fill-rule="evenodd" clip-rule="evenodd" d="M1.43758 17.0315H28.9852C29.5978 17.0315 30.1008 17.5321 30.1008 18.1449V28.2517C30.1008 28.8644 29.5978 29.3674 28.9852 29.3674H1.43758C0.824922 29.3674 0.324219 28.8644 0.324219 28.2517V18.1449C0.324219 17.5321 0.824844 17.0315 1.43758 17.0315Z" fill="#B7841D"/>
<path d="M8.8332 19.0947H6.75516C6.39844 19.0947 6.10938 19.3839 6.10938 19.7405V23.1468V23.9857V26.6582C6.10938 27.0149 6.39852 27.3039 6.75516 27.3039C7.1118 27.3039 7.40094 27.0148 7.40094 26.6582V24.6315H8.83313C10.3351 24.6315 11.557 23.4096 11.557 21.9077V21.8186C11.557 20.3166 10.3351 19.0947 8.8332 19.0947ZM10.2654 21.9077C10.2654 22.6974 9.62289 23.3399 8.8332 23.3399H7.40102V23.1468V20.3863H8.8332C9.62289 20.3863 10.2654 21.0288 10.2654 21.8185V21.9077ZM15.4423 19.0947H13.3642C13.0075 19.0947 12.7184 19.3839 12.7184 19.7405V23.1468V23.9857V26.6582C12.7184 27.0149 13.0076 27.3039 13.3642 27.3039C13.7209 27.3039 14.01 27.0148 14.01 26.6582V24.6315H15.4423C16.9442 24.6315 18.166 23.4096 18.166 21.9077V21.8186C18.1662 20.3166 16.9443 19.0947 15.4423 19.0947ZM16.8745 21.9077C16.8745 22.6974 16.2321 23.3399 15.4424 23.3399H14.0102V23.1468V20.3863H15.4424C16.2321 20.3863 16.8745 21.0288 16.8745 21.8185V21.9077ZM24.3158 19.7405C24.3158 20.0972 24.0266 20.3863 23.67 20.3863H22.2355V26.6582C22.2355 27.0149 21.9463 27.3039 21.5896 27.3039C21.2329 27.3039 20.9438 27.0148 20.9438 26.6582V20.3863H19.5116C19.1548 20.3863 18.8658 20.0971 18.8658 19.7405C18.8658 19.3839 19.1549 19.0947 19.5116 19.0947H23.6699C24.0266 19.0947 24.3158 19.3838 24.3158 19.7405Z" fill="white"/>
</svg>
