<svg width="20" height="20" viewBox="0 0 20 20" fill="none" xmlns="http://www.w3.org/2000/svg">
<path d="M0.75 10C0.75 4.90421 4.90421 0.75 10 0.75C15.0958 0.75 19.25 4.90421 19.25 10C19.25 15.0958 15.0958 19.25 10 19.25C4.90421 19.25 0.75 15.0958 0.75 10ZM11.5 14V11.5H14C14.8242 11.5 15.5 10.8242 15.5 10C15.5 9.17579 14.8242 8.5 14 8.5H11.5V6C11.5 5.17579 10.8242 4.5 10 4.5C9.17579 4.5 8.5 5.17579 8.5 6V8.5H6C5.17579 8.5 4.5 9.17579 4.5 10C4.5 10.8242 5.17579 11.5 6 11.5H8.5V14C8.5 14.8242 9.17579 15.5 10 15.5C10.8242 15.5 11.5 14.8242 11.5 14Z" fill="#2CA900" stroke="#2CA900" stroke-width="1.5"/>
</svg>
