<svg width="32" height="33" viewBox="0 0 32 33" fill="none" xmlns="http://www.w3.org/2000/svg">
<g clip-path="url(#clip0_7512_85076)">
<rect y="0.346802" width="32" height="32" rx="3" fill="white"/>
<path d="M29.5 0.346802H2.5C1.11875 0.346802 0 1.46555 0 2.8468V29.8468C0 31.2281 1.11875 32.3468 2.5 32.3468H29.5C30.8813 32.3468 32 31.2281 32 29.8468V2.8468C32 1.46555 30.8813 0.346802 29.5 0.346802ZM11.525 23.0406H8.40625V13.0593H11.525V23.0406ZM9.88125 11.8093H9.85625C8.725 11.8093 7.99375 11.0468 7.99375 10.0781C7.99375 9.09055 8.75 8.3468 9.9 8.3468C11.05 8.3468 11.7563 9.09055 11.7812 10.0781C11.7875 11.0406 11.0563 11.8093 9.88125 11.8093ZM24 23.0406H20.4625V17.8781C20.4625 16.5281 19.9125 15.6031 18.6938 15.6031C17.7625 15.6031 17.2437 16.2281 17.0063 16.8281C16.9188 17.0406 16.9312 17.3406 16.9312 17.6468V23.0406H13.425C13.425 23.0406 13.4688 13.8906 13.425 13.0593H16.9312V14.6281C17.1375 13.9406 18.2563 12.9656 20.0438 12.9656C22.2625 12.9656 24 14.4031 24 17.4906V23.0406Z" fill="#00137E"/>
</g>
<defs>
<clipPath id="clip0_7512_85076">
<rect y="0.346802" width="32" height="32" rx="3" fill="white"/>
</clipPath>
</defs>
</svg>
