<svg width="48" height="49" viewBox="0 0 48 49" fill="none" xmlns="http://www.w3.org/2000/svg">
<g id="fi_587874" clip-path="url(#clip0_9244_1578)">
<path id="Vector" d="M5.89391 35.0016L6.91797 36.0256L38.3234 4.62019L37.2994 3.59613L5.89391 35.0016Z" fill="#CD9847"/>
<path id="Vector_2" d="M22.1067 39.1216C32.7718 39.1216 41.4175 30.4759 41.4175 19.8108C41.4175 9.14574 32.7718 0.5 22.1067 0.5C11.4416 0.5 2.7959 9.14574 2.7959 19.8108C2.7959 30.4759 11.4416 39.1216 22.1067 39.1216Z" fill="#55BFD9"/>
<path id="Vector_3" d="M35.7608 6.15601C34.8977 5.29286 33.9725 4.52964 33.0006 3.86401C38.1499 11.3832 37.3867 21.7352 30.7086 28.4134C24.0304 35.0916 13.6786 35.8546 6.15918 30.7053C6.82471 31.6772 7.58802 32.6024 8.45118 33.4656C15.9925 41.0069 28.2195 41.0069 35.7608 33.4656C43.3022 25.9242 43.3022 13.6974 35.7608 6.15601Z" fill="#1F9FC4"/>
<path id="Vector_4" opacity="0.2" d="M41.3114 17.7983C41.243 17.1408 41.1407 16.4866 41.0049 15.8375L39.7086 14.5412C39.4908 12.7333 38.9867 10.9319 38.33 9.33211C36.874 7.08268 34.9384 5.12049 32.6359 3.61993C31.1647 3.00961 29.3534 2.44711 27.376 2.20871L26.0796 0.912426C25.4307 0.776676 24.7763 0.674488 24.1191 0.605957C24.064 1.05718 24.3201 1.20118 25.1908 2.07193C22.9983 2.06049 20.8461 2.42714 18.769 3.16018L16.8391 1.23024C16.3449 1.36983 15.8552 1.52902 15.3713 1.70874C15.4446 1.91799 15.3714 1.81093 17.3042 3.74358C15.1168 4.71849 13.054 6.10955 11.1732 7.8878L8.9564 5.67108C8.78615 5.82961 8.6173 5.99039 8.45156 6.15614C8.27427 6.33343 8.10252 6.51418 7.93359 6.69643L10.1501 8.91296C8.38771 10.7844 7.0079 12.8351 6.03909 15.0088C4.11487 13.0846 4.21743 13.1505 4.00424 13.0758C3.82452 13.5598 3.66534 14.0495 3.52574 14.5437L5.45568 16.4736C4.72321 18.549 4.35599 20.7012 4.36734 22.8953C3.46105 21.989 3.34349 21.7693 2.90137 21.8227C2.9698 22.4805 3.07209 23.1351 3.20793 23.7842L4.50421 25.0805C4.7444 27.0735 5.31927 28.8993 5.93943 30.3775C6.65502 31.4698 7.49193 32.5059 8.45184 33.4657C9.43237 34.4462 10.4926 35.2981 11.6109 36.0236C13.2839 36.7281 15.0451 37.1975 16.8374 37.4135C17.3969 37.973 17.8097 38.3922 18.1217 38.7071C18.7747 38.8441 19.4334 38.9472 20.0952 39.0161C20.1527 38.5786 19.9238 38.4517 19.0227 37.5505C21.1973 37.5633 23.362 37.1965 25.444 36.4618C26.4472 37.465 27.0152 38.0506 27.3676 38.3935C27.8646 38.2533 28.3569 38.0933 28.8436 37.9126C28.7707 37.7064 28.8397 37.8092 26.909 35.8785C29.0826 34.9095 31.1334 33.5296 33.0048 31.7673L35.2213 33.9838C35.4036 33.8149 35.5843 33.6433 35.7616 33.4659C35.9273 33.3001 36.0882 33.1312 36.2467 32.9611L34.0299 30.7442C35.8082 28.8633 37.1992 26.8006 38.1741 24.6133C39.6186 26.058 39.9506 26.4476 40.2073 26.5509C40.3878 26.0655 40.5474 25.5741 40.6876 25.0784L38.7576 23.1484C39.4901 21.073 39.8573 18.9209 39.846 16.7266C40.7809 17.6618 40.8722 17.8505 41.3114 17.7983ZM36.4807 8.79061C37.094 10.0201 37.5801 11.3412 37.9114 12.7441L36.2731 11.1058C36.362 10.4294 36.4393 9.65939 36.4807 8.79061ZM35.0591 6.85833C35.0793 7.84871 35.0453 8.82793 34.9612 9.79393L32.1237 6.9563C33.0895 6.87221 34.0688 6.83818 35.0591 6.85833ZM27.2269 13.6662L22.0894 18.8038L16.976 13.6904C18.7936 11.9708 20.8315 10.5588 23.0332 9.47236L27.2269 13.6662ZM24.4405 8.83177C26.3002 8.05421 28.262 7.49808 30.2965 7.17774L32.006 8.88718L28.2509 12.6422L24.4405 8.83177ZM21.0651 19.828L15.9617 24.9314L11.768 20.7376C12.8474 18.5502 14.2487 16.5246 15.9531 14.716L21.0651 19.828ZM14.9376 25.9556L11.1825 29.7107L9.47287 28.0011C9.7933 25.9666 10.3495 24.0048 11.127 22.1452L14.9376 25.9556ZM15.9617 26.9797L19.7719 30.7899C17.9121 31.5674 15.9503 32.1234 13.9158 32.4439L12.2066 30.7348L15.9617 26.9797ZM16.9858 25.9556L22.0893 20.8521L27.2014 25.9642C25.3927 27.6686 23.3669 29.0698 21.1794 30.1491L16.9858 25.9556ZM23.1134 19.828L28.2509 14.6905L32.4446 18.8842C31.3581 21.0859 29.9461 23.1238 28.2266 24.9413L23.1134 19.828ZM29.2751 13.6662L33.0302 9.91111L34.7398 11.6207C34.4194 13.6552 33.8631 15.617 33.0857 17.4766L29.2751 13.6662ZM33.128 5.43652C32.4537 5.4683 31.6273 5.53693 30.8112 5.64399L29.1736 4.00627C30.5642 4.33449 31.8931 4.82039 33.128 5.43652ZM26.7218 3.60286L29.0522 5.93321C27.1105 6.31805 25.2093 6.91083 23.3452 7.73639L19.9128 4.30393C22.0953 3.63127 24.3884 3.38414 26.7218 3.60286ZM18.4048 4.84421L21.9599 8.3993C19.7664 9.52843 17.7544 10.9547 15.9513 12.6659L12.1977 8.9124C14.1807 7.04199 16.2788 5.71364 18.4048 4.84421ZM11.1743 9.93718L14.9282 13.691C13.2319 15.4852 11.8165 17.4851 10.6947 19.6644L7.13924 16.1089C8.00352 13.9957 9.32156 11.9099 11.1743 9.93718ZM7.73193 30.8325C7.11552 29.597 6.62859 28.2679 6.30037 26.8767L7.93959 28.516C7.83543 29.3093 7.76605 30.1161 7.73193 30.8325ZM8.22871 26.757L5.89837 24.4266C5.69174 22.2219 5.89012 19.9156 6.59868 17.6169L10.0317 21.05C9.22274 22.8762 8.61834 24.787 8.22871 26.757ZM9.15355 32.7635C9.1334 31.7731 9.16734 30.7939 9.25143 29.8279L12.0889 32.6654C11.123 32.7495 10.1438 32.7835 9.15355 32.7635ZM11.086 34.1852C11.8865 34.147 12.7019 34.0703 13.4021 33.9785L15.0397 35.6161C13.7176 35.3039 12.3925 34.8367 11.086 34.1852ZM17.4906 36.0187L15.1607 33.6888C17.1359 33.2951 19.0257 32.7011 20.8674 31.8854L24.2997 35.3176C22.0967 35.9979 19.7911 36.2351 17.4906 36.0187ZM25.8079 34.7776L22.2529 31.2226C24.4322 30.1008 26.4321 28.6855 28.2262 26.9891L31.9798 30.7427C30.0085 32.5925 27.9356 33.9081 25.8079 34.7776ZM33.005 29.7196L29.2514 25.966C30.9625 24.1628 32.3887 22.1508 33.5179 19.9575L37.0729 23.5125C36.1147 25.8523 34.7168 27.9042 33.005 29.7196ZM37.6131 22.0043L34.1809 18.5719C34.9926 16.7396 35.5929 14.8418 35.9841 12.865L38.3142 15.1951C38.5242 17.4367 38.3135 19.731 37.6131 22.0043Z" fill="#FFF9EB"/>
<g id="Group">
<path id="Vector_5" d="M31.6046 27.4558L15.4295 33.9999C14.5142 34.9369 14.0651 36.1616 14.0856 37.3813C21.2081 40.6316 29.8999 39.3269 35.7615 33.4654C36.0729 33.1539 36.3703 32.8338 36.656 32.507L31.6046 27.4558Z" fill="#89B434"/>
<path id="Vector_6" d="M38.1635 9.0791L37.2942 9.94844C36.8204 10.4222 36.4191 10.9543 36.0928 11.5263L36.1011 17.9406C36.1825 18.0382 36.268 18.133 36.3587 18.2237C37.0092 18.874 37.0092 19.9286 36.3587 20.5792C36.0666 20.8713 35.6929 21.0311 35.3109 21.0608L34.1318 23.7817C34.1424 23.7919 34.1535 23.8018 34.1639 23.8122L39.1851 28.8333C42.4688 22.622 42.1281 14.9972 38.1635 9.0791Z" fill="#89B434"/>
</g>
<g id="Group_2">
<path id="Vector_7" d="M24.1426 22.0696C22.8134 22.0696 21.5388 22.5976 20.599 23.5374L19.2096 24.9268C18.0117 26.1246 17.3389 27.7491 17.3389 29.4431C17.3389 31.1372 16.666 32.7617 15.4682 33.9594C15.455 33.9727 15.4428 33.9865 15.4297 34C20.8982 34.4595 26.5248 32.5979 30.7093 28.4134C31.0206 28.102 31.3191 27.7826 31.6048 27.4558L27.6863 23.5373C26.7464 22.5975 25.4718 22.0696 24.1426 22.0696Z" fill="#AFD15F"/>
<path id="Vector_8" d="M29.2526 1.86673C23.1451 -0.562049 16.0495 0.248514 10.6024 4.29889V10.9238C10.6024 12.0048 9.72623 12.881 8.64529 12.881H4.07798C2.75854 16.3193 2.45835 20.0585 3.17713 23.6342H5.12479C7.21129 23.6341 9.21238 22.8052 10.6877 21.3299C12.1631 19.8545 12.992 17.8535 12.992 15.767V14.4293C12.992 13.6566 13.2989 12.9155 13.8454 12.369C14.3919 11.8225 15.133 11.5156 15.9058 11.5156H21.4892C22.578 11.5155 23.4608 12.3981 23.4607 13.487C23.4607 14.0462 23.2386 14.5824 22.8433 14.9779C22.2479 15.5733 22.2479 16.5388 22.8433 17.1342C23.4387 17.7296 24.4042 17.7296 24.9996 17.1342L27.5559 14.5779C28.6424 13.4915 29.2528 12.0179 29.2528 10.4814L29.2526 1.86673Z" fill="#AFD15F"/>
<path id="Vector_9" d="M34.0033 20.579L32.3329 18.9086C31.9708 18.5465 31.4796 18.3431 30.9675 18.343H30.2847C29.2182 18.343 28.3535 19.2077 28.3535 20.2742V20.466C28.3535 20.8552 28.5082 21.2285 28.7834 21.5037L29.4706 22.1911C29.8482 22.5686 30.3603 22.7807 30.8942 22.7807H31.6743C32.5933 22.7807 33.4747 23.1406 34.1318 23.7814C34.5978 22.8998 34.9908 21.99 35.3109 21.0605C34.8425 21.097 34.3616 20.9373 34.0033 20.579Z" fill="#AFD15F"/>
<path id="Vector_10" d="M36.0926 11.5261C35.457 12.6407 35.1124 13.9098 35.1123 15.2154C35.1123 16.2155 35.4651 17.1788 36.1007 17.9405C36.4534 15.8179 36.4511 13.648 36.0926 11.5261Z" fill="#AFD15F"/>
</g>
<g id="Group_3">
<path id="Vector_11" d="M22.2678 42.9727C16.1459 42.9728 10.3872 40.5857 6.05254 36.2511L4.82151 35.0202C4.53866 34.7373 4.53866 34.2788 4.82151 33.9962C5.10435 33.7132 5.56288 33.7133 5.84554 33.9961L7.07657 35.227C11.1377 39.2882 16.5327 41.5247 22.2678 41.5246C28.0028 41.5246 33.3977 39.2881 37.4586 35.227C41.5197 31.166 43.7562 25.7711 43.7561 20.0359C43.756 14.3009 41.5195 8.90605 37.4586 4.84527L36.2276 3.61405C35.9447 3.3312 35.9447 2.87267 36.2276 2.59002C36.5104 2.30717 36.9689 2.30727 37.2516 2.59011L38.4827 3.82114C42.8172 8.15558 45.2042 13.914 45.2043 20.036C45.2044 26.1579 42.8174 31.9167 38.4827 36.2512C34.1483 40.5855 28.3897 42.9727 22.2678 42.9727Z" fill="#C37800"/>
<path id="Vector_12" d="M31.7619 45.7356C31.7619 45.0269 31.5604 44.3656 31.2124 43.8046C30.5655 42.7615 29.4105 42.0667 28.0929 42.0667H16.1202C14.8025 42.0667 13.6476 42.7615 13.0006 43.8046C12.6526 44.3656 12.4512 45.027 12.4512 45.7356V47.0518H31.762V45.7356H31.7619Z" fill="#C37800"/>
</g>
<path id="Vector_13" d="M31.2119 43.8043C30.565 42.7613 29.41 42.0664 28.0924 42.0664H25.9199C27.2376 42.0664 28.3925 42.7613 29.0395 43.8043C29.3875 44.3653 29.5889 45.0267 29.5889 45.7354V47.0516H31.7614V45.7354C31.7614 45.0267 31.5599 44.3653 31.2119 43.8043Z" fill="#AC6A00"/>
<path id="Vector_14" d="M8.02734 47.0516C8.02734 46.2517 8.67581 45.6033 9.47569 45.6033H34.7366C35.5365 45.6033 36.185 46.2517 36.185 47.0516V48.5H8.02734V47.0516Z" fill="#965C00"/>
</g>
<defs>
<clipPath id="clip0_9244_1578">
<rect width="48" height="48" fill="white" transform="translate(0 0.5)"/>
</clipPath>
</defs>
</svg>
