<svg width="21" height="20" viewBox="0 0 21 20" fill="none" xmlns="http://www.w3.org/2000/svg">
<path d="M17.5161 3.23335L3.57445 17.175C3.53278 17.0084 3.51611 16.825 3.51611 16.625V4.88335C3.51611 3.11669 4.95778 1.66669 6.73278 1.66669H14.7661C15.9328 1.66669 16.9578 2.29169 17.5161 3.23335Z" fill="#000833"/>
<path d="M18.8912 1.85834C18.6412 1.60834 18.2329 1.60834 17.9829 1.85834L2.60791 17.2417C2.35791 17.4917 2.35791 17.9 2.60791 18.15C2.73291 18.2667 2.89124 18.3333 3.05791 18.3333C3.22458 18.3333 3.38291 18.2667 3.50791 18.1417L18.8912 2.75834C19.1496 2.50834 19.1496 2.10834 18.8912 1.85834Z" fill="#000833"/>
<path d="M16.8243 6.42498L10.666 12.5833C10.2826 12.9666 10.3576 13.6083 10.8243 13.8833L16.9826 17.575C17.541 17.9083 18.241 17.5083 18.241 16.8583V7.00832C18.2493 6.26665 17.3493 5.89998 16.8243 6.42498Z" fill="#000833"/>
</svg>
