<svg width="20" height="20" viewBox="0 0 20 20" fill="none" xmlns="http://www.w3.org/2000/svg">
<path d="M11.666 4.16667C11.666 3.25 10.916 2.5 9.99935 2.5C9.08268 2.5 8.33268 3.25 8.33268 4.16667C8.33268 5.08333 9.08268 5.83333 9.99935 5.83333C10.916 5.83333 11.666 5.08333 11.666 4.16667Z" fill="#000833"/>
<path d="M11.666 15.8332C11.666 14.9165 10.916 14.1665 9.99935 14.1665C9.08268 14.1665 8.33268 14.9165 8.33268 15.8332C8.33268 16.7498 9.08268 17.4998 9.99935 17.4998C10.916 17.4998 11.666 16.7498 11.666 15.8332Z" fill="#000833"/>
<path d="M11.666 10.0002C11.666 9.0835 10.916 8.3335 9.99935 8.3335C9.08268 8.3335 8.33268 9.0835 8.33268 10.0002C8.33268 10.9168 9.08268 11.6668 9.99935 11.6668C10.916 11.6668 11.666 10.9168 11.666 10.0002Z" fill="#000833"/>
</svg>
