<svg width="24" height="25" viewBox="0 0 24 25" fill="none" xmlns="http://www.w3.org/2000/svg">
<mask id="mask0_840_102046" style="mask-type:alpha" maskUnits="userSpaceOnUse" x="0" y="0" width="24" height="25">
<rect y="0.25" width="24" height="24" fill="#D9D9D9"/>
</mask>
<g mask="url(#mask0_840_102046)">
<path d="M12 13.9534L6.03801 19.9153C5.81494 20.1384 5.53104 20.2499 5.1863 20.2499C4.84157 20.2499 4.55766 20.1384 4.3346 19.9153C4.11153 19.6922 4 19.4083 4 19.0636C4 18.7189 4.11153 18.435 4.3346 18.2119L10.2965 12.25L4.3346 6.28801C4.11153 6.06494 4 5.78104 4 5.4363C4 5.09157 4.11153 4.80766 4.3346 4.5846C4.55766 4.36153 4.84157 4.25 5.1863 4.25C5.53104 4.25 5.81494 4.36153 6.03801 4.5846L12 10.5465L17.9619 4.5846C18.185 4.36153 18.4689 4.25 18.8136 4.25C19.1583 4.25 19.4422 4.36153 19.6653 4.5846C19.8884 4.80766 19.9999 5.09157 19.9999 5.4363C19.9999 5.78104 19.8884 6.06494 19.6653 6.28801L13.7034 12.25L19.6653 18.2119C19.8884 18.435 19.9999 18.7189 19.9999 19.0636C19.9999 19.4083 19.8884 19.6922 19.6653 19.9153C19.4422 20.1384 19.1583 20.2499 18.8136 20.2499C18.4689 20.2499 18.185 20.1384 17.9619 19.9153L12 13.9534Z" fill="#000833"/>
</g>
</svg>
