<svg width="48" height="49" viewBox="0 0 48 49" fill="none" xmlns="http://www.w3.org/2000/svg">
<g id="fi_4151012" clip-path="url(#clip0_9244_1600)">
<g id="Group">
<path id="Vector" d="M12.9374 48.4998H0V43.156C0 42.7936 0.293813 42.4998 0.65625 42.4998H12.9374V48.4998Z" fill="#FFF292"/>
<path id="Vector_2" d="M1.93163 42.4995V48.5H0V43.1558C0 42.7933 0.293813 42.4995 0.65625 42.4995H1.93163Z" fill="#F9E77D"/>
<path id="Vector_3" d="M24.9374 48.4999H12V37.1562C12 36.7938 12.2938 36.5 12.6562 36.5H24.9374V48.4999Z" fill="#AEE69C"/>
<path id="Vector_4" d="M13.9316 36.5V48.5H12V37.1562C12 36.7938 12.2938 36.5 12.6562 36.5H13.9316Z" fill="#89DAA4"/>
<path id="Vector_5" d="M36.9374 48.4999H24V31.1562C24 30.7938 24.2938 30.5 24.6562 30.5H36.9374V48.4999Z" fill="#9BD8F9"/>
<path id="Vector_6" d="M25.9316 30.4995V48.5H24V31.1558C24 30.7933 24.2938 30.4995 24.6562 30.4995H25.9316Z" fill="#73C3F9"/>
<path id="Vector_7" d="M22.2267 15.5002H32.3109C32.6733 15.5002 32.9672 15.2063 32.9672 14.8439V6.50024H22.2267C21.7025 6.50024 21.3899 7.0844 21.6807 7.52053L24.0004 11.0002L21.6807 14.48C21.3899 14.916 21.7025 15.5002 22.2267 15.5002Z" fill="#F25A74"/>
<path id="Vector_8" d="M25.9318 11.0001L22.9321 15.4997H22.2267C21.7025 15.4997 21.3899 14.9156 21.6807 14.4795L24.0003 11.0001L21.6807 7.52077C21.39 7.08464 21.7025 6.50049 22.2267 6.50049H22.9321L25.9318 11.0001Z" fill="#E83D5A"/>
<path id="Vector_9" d="M30.6562 12.5002H41.4374V3.50024H30.6562C30.2938 3.50024 30 3.79406 30 4.15649V11.8439C30 12.2063 30.2938 12.5002 30.6562 12.5002Z" fill="#F25A74"/>
<path id="Vector_10" d="M31.9316 3.49976V12.5H30.6562C30.2938 12.5 30 12.2062 30 11.8438V4.15601C30 3.79357 30.2938 3.49976 30.6562 3.49976H31.9316Z" fill="#E83D5A"/>
<path id="Vector_11" d="M43.5 25.4452H40.5V1.15649C40.5 0.794057 40.7938 0.500244 41.1562 0.500244H42.8438C43.2062 0.500244 43.5 0.794057 43.5 1.15649V25.4452Z" fill="#46778C"/>
<path id="Vector_12" d="M41.9487 0.5V25.4452H40.5V1.15625C40.5 0.793813 40.7938 0.5 41.1562 0.5H41.9487Z" fill="#3A6684"/>
<path id="Vector_13" d="M47.9999 48.4998H36V25.1562C36 24.7938 36.2938 24.5 36.6562 24.5H47.3437C47.7061 24.5 47.9999 24.7938 47.9999 25.1562V48.4998Z" fill="#F9D264"/>
<path id="Vector_14" d="M37.9316 24.5V48.5H36V25.1562C36 24.7938 36.2938 24.5 36.6562 24.5H37.9316Z" fill="#EFC356"/>
</g>
</g>
<defs>
<clipPath id="clip0_9244_1600">
<rect width="48" height="48" fill="white" transform="translate(0 0.5)"/>
</clipPath>
</defs>
</svg>
