<svg width="38" height="40" viewBox="0 0 38 40" fill="none" xmlns="http://www.w3.org/2000/svg">
<path fill-rule="evenodd" clip-rule="evenodd" d="M12.1698 0H25.7166L37.6745 11.9602V34.9274C37.6745 37.7163 35.3931 40 32.602 40H12.1699C9.38102 40 7.09961 37.7163 7.09961 34.9274V5.07258C7.09961 2.28367 9.38102 0 12.1698 0Z" fill="#E5252A"/>
<path fill-rule="evenodd" clip-rule="evenodd" d="M25.7168 0L37.6748 11.9602H27.0061C26.2952 11.9602 25.7168 11.3796 25.7168 10.6687V0Z" fill="#B71D21"/>
<path fill-rule="evenodd" clip-rule="evenodd" d="M1.4375 17.0327H28.9858C29.5984 17.0327 30.0991 17.5333 30.0991 18.146V28.2522C30.0991 28.8649 29.5984 29.3655 28.9858 29.3655H1.4375C0.824844 29.3655 0.324219 28.8649 0.324219 28.2522V18.146C0.324219 17.5333 0.824922 17.0327 1.4375 17.0327Z" fill="#B71D21"/>
<path d="M8.20031 19.0938H6.12234C5.7657 19.0938 5.47656 19.3829 5.47656 19.7395V23.1456V23.9845V26.6569C5.47656 27.0135 5.7657 27.3027 6.12234 27.3027C6.47898 27.3027 6.76813 27.0135 6.76813 26.6569V24.6303H8.20023C9.70211 24.6303 10.924 23.4084 10.924 21.9066V21.8175C10.9241 20.3156 9.70219 19.0938 8.20031 19.0938ZM9.6325 21.9066C9.6325 22.6963 8.99 23.3387 8.20031 23.3387H6.76813V23.1455V20.3852H8.20023C8.98992 20.3852 9.63242 21.0277 9.63242 21.8173V21.9066H9.6325ZM15.1497 19.0938H13.0718C12.7152 19.0938 12.426 19.3829 12.426 19.7395V26.6569C12.426 27.0135 12.7152 27.3027 13.0718 27.3027H15.1497C16.6516 27.3027 17.8734 26.0808 17.8734 24.579V21.8175C17.8734 20.3156 16.6516 19.0938 15.1497 19.0938ZM16.5819 24.5789C16.5819 25.3686 15.9394 26.011 15.1497 26.011H13.7176V20.3852H15.1497C15.9394 20.3852 16.5819 21.0277 16.5819 21.8173V24.5789ZM20.7926 20.3853V22.173H23.7861C24.1427 22.173 24.4319 22.4621 24.4319 22.8188C24.4319 23.1754 24.1427 23.4645 23.7861 23.4645H20.7926V26.6569C20.7926 27.0135 20.5034 27.3027 20.1468 27.3027C19.7902 27.3027 19.501 27.0135 19.501 26.6569V19.7395C19.501 19.3829 19.7902 19.0938 20.1468 19.0938H24.3027C24.6593 19.0938 24.9484 19.3829 24.9484 19.7395C24.9484 20.0962 24.6593 20.3853 24.3027 20.3853H20.7926Z" fill="white"/>
</svg>
