<svg width="18" height="18" viewBox="0 0 18 18" fill="none" xmlns="http://www.w3.org/2000/svg">
<path d="M9.00033 0.666666C4.40866 0.666666 0.666992 4.40833 0.666992 9C0.666992 13.5917 4.40866 17.3333 9.00033 17.3333C13.592 17.3333 17.3337 13.5917 17.3337 9C17.3337 4.40833 13.592 0.666666 9.00033 0.666666ZM11.8003 10.9167C12.042 11.1583 12.042 11.5583 11.8003 11.8C11.6753 11.925 11.517 11.9833 11.3587 11.9833C11.2003 11.9833 11.042 11.925 10.917 11.8L9.00033 9.88333L7.08366 11.8C6.95866 11.925 6.80033 11.9833 6.64199 11.9833C6.48366 11.9833 6.32533 11.925 6.20033 11.8C5.95866 11.5583 5.95866 11.1583 6.20033 10.9167L8.11699 9L6.20033 7.08333C5.95866 6.84167 5.95866 6.44167 6.20033 6.2C6.44199 5.95833 6.84199 5.95833 7.08366 6.2L9.00033 8.11667L10.917 6.2C11.1587 5.95833 11.5587 5.95833 11.8003 6.2C12.042 6.44167 12.042 6.84167 11.8003 7.08333L9.88366 9L11.8003 10.9167Z" fill="#D93400"/>
</svg>
