<svg width="20" height="21" viewBox="0 0 20 21" fill="none" xmlns="http://www.w3.org/2000/svg">
<path d="M12.1083 8.23846L7.8916 12.4551C7.34994 11.9135 7.0166 11.1718 7.0166 10.3468C7.0166 8.6968 8.34993 7.36346 9.99993 7.36346C10.8249 7.36346 11.5666 7.6968 12.1083 8.23846Z" stroke="#000833" stroke-width="1.5" stroke-linecap="round" stroke-linejoin="round"/>
<path d="M14.8499 5.15514C13.3915 4.05514 11.7249 3.45514 9.99987 3.45514C7.0582 3.45514 4.31654 5.18847 2.4082 8.18847C1.6582 9.36347 1.6582 11.3385 2.4082 12.5135C3.06654 13.5468 3.8332 14.4385 4.66654 15.1551" stroke="#000833" stroke-width="1.5" stroke-linecap="round" stroke-linejoin="round"/>
<path d="M7.0166 16.6218C7.9666 17.0218 8.97493 17.2385 9.99993 17.2385C12.9416 17.2385 15.6833 15.5051 17.5916 12.5051C18.3416 11.3301 18.3416 9.35514 17.5916 8.18014C17.3166 7.74681 17.0166 7.33847 16.7083 6.95514" stroke="#000833" stroke-width="1.5" stroke-linecap="round" stroke-linejoin="round"/>
<path d="M12.9252 10.9301C12.7085 12.1051 11.7502 13.0634 10.5752 13.2801" stroke="#000833" stroke-width="1.5" stroke-linecap="round" stroke-linejoin="round"/>
<path d="M7.8915 12.4551L1.6665 18.6801" stroke="#000833" stroke-width="1.5" stroke-linecap="round" stroke-linejoin="round"/>
<path d="M18.3334 2.01349L12.1084 8.23849" stroke="#000833" stroke-width="1.5" stroke-linecap="round" stroke-linejoin="round"/>
</svg>
