<svg width="16" height="17" viewBox="0 0 16 17" fill="none" xmlns="http://www.w3.org/2000/svg">
<path d="M8.76957 15.474C8.50805 15.474 8.33371 15.3868 8.15936 15.2125L2.92899 9.98213C2.66747 9.72061 2.5803 9.37192 2.75465 9.02323C2.84182 8.67454 3.19051 8.50019 3.5392 8.50019H6.15439C6.85177 8.50019 7.54915 8.23868 7.98502 7.71564C8.50805 7.27978 8.76957 6.58239 8.76957 5.88501C8.76957 5.18763 8.50805 4.49024 7.98502 4.05438C7.54915 3.53134 6.85177 3.26982 6.15439 3.26982H3.5392C3.01616 3.26982 2.66747 2.92113 2.66747 2.3981C2.66747 1.87506 3.01616 1.52637 3.5392 1.52637H13.1282C13.6513 1.52637 13.9999 1.87506 13.9999 2.3981C13.9999 2.92113 13.6513 3.26982 13.1282 3.26982H9.6413C10.1643 4.05438 10.513 4.92611 10.513 5.88501C10.513 7.01826 10.0772 8.1515 9.20544 8.93606C8.42088 9.80779 7.28763 10.2437 6.15439 10.2437H5.63135L9.37978 13.9921C9.72847 14.3408 9.72847 14.8638 9.37978 15.2125C9.20544 15.3868 9.03109 15.474 8.76957 15.474Z" fill="#616C82"/>
<path d="M13.1282 6.75728H3.53921C3.01617 6.75728 2.66748 6.40859 2.66748 5.88555C2.66748 5.36252 3.01617 5.01382 3.53921 5.01382H13.1282C13.6513 5.01382 14 5.36252 14 5.88555C14 6.40859 13.6513 6.75728 13.1282 6.75728Z" fill="#616C82"/>
</svg>
