<svg width="18" height="19" viewBox="0 0 18 19" fill="none" xmlns="http://www.w3.org/2000/svg">
<path d="M5.99999 16.8467H12C15.015 16.8467 15.555 15.6392 15.7125 14.1692L16.275 8.16918C16.4775 6.33918 15.9525 4.84668 12.75 4.84668H5.24999C2.04749 4.84668 1.52249 6.33918 1.72499 8.16918L2.28749 14.1692C2.44499 15.6392 2.98499 16.8467 5.99999 16.8467Z" stroke="#CCD0E5" stroke-width="1.5" stroke-miterlimit="10" stroke-linecap="round" stroke-linejoin="round"/>
<path d="M6 4.84668V4.24668C6 2.91918 6 1.84668 8.4 1.84668H9.6C12 1.84668 12 2.91918 12 4.24668V4.84668" stroke="#CCD0E5" stroke-width="1.5" stroke-miterlimit="10" stroke-linecap="round" stroke-linejoin="round"/>
<path d="M10.5 10.0967V10.8467C10.5 10.8542 10.5 10.8542 10.5 10.8617C10.5 11.6792 10.4925 12.3467 9 12.3467C7.515 12.3467 7.5 11.6867 7.5 10.8692V10.0967C7.5 9.34668 7.5 9.34668 8.25 9.34668H9.75C10.5 9.34668 10.5 9.34668 10.5 10.0967Z" stroke="#CCD0E5" stroke-width="1.5" stroke-miterlimit="10" stroke-linecap="round" stroke-linejoin="round"/>
<path d="M16.2375 8.59668C14.505 9.85668 12.525 10.6067 10.5 10.8617" stroke="#CCD0E5" stroke-width="1.5" stroke-miterlimit="10" stroke-linecap="round" stroke-linejoin="round"/>
<path d="M1.96497 8.79932C3.65247 9.95432 5.55747 10.6518 7.49997 10.8693" stroke="#CCD0E5" stroke-width="1.5" stroke-miterlimit="10" stroke-linecap="round" stroke-linejoin="round"/>
</svg>
