<svg width="24" height="24" viewBox="0 0 24 24" fill="none" xmlns="http://www.w3.org/2000/svg">
<mask id="mask0_14456_38159" style="mask-type:alpha" maskUnits="userSpaceOnUse" x="0" y="0" width="24" height="24">
<rect width="24" height="24" fill="#D9D9D9"/>
</mask>
<g mask="url(#mask0_14456_38159)">
<path d="M12 13.7035L6.03801 19.6654C5.81494 19.8885 5.53104 20 5.1863 20C4.84157 20 4.55766 19.8885 4.3346 19.6654C4.11153 19.4423 4 19.1584 4 18.8137C4 18.469 4.11153 18.185 4.3346 17.962L10.2965 12L4.3346 6.0381C4.11153 5.81504 4 5.53113 4 5.1864C4 4.84166 4.11153 4.55776 4.3346 4.33469C4.55766 4.11162 4.84157 4.00009 5.1863 4.00009C5.53104 4.00009 5.81494 4.11162 6.03801 4.33469L12 10.2966L17.9619 4.33469C18.185 4.11162 18.4689 4.00009 18.8136 4.00009C19.1583 4.00009 19.4422 4.11162 19.6653 4.33469C19.8884 4.55776 19.9999 4.84166 19.9999 5.1864C19.9999 5.53113 19.8884 5.81504 19.6653 6.0381L13.7034 12L19.6653 17.962C19.8884 18.185 19.9999 18.469 19.9999 18.8137C19.9999 19.1584 19.8884 19.4423 19.6653 19.6654C19.4422 19.8885 19.1583 20 18.8136 20C18.4689 20 18.185 19.8885 17.9619 19.6654L12 13.7035Z" fill="#616C82"/>
</g>
</svg>
