<svg width="40" height="40" viewBox="0 0 40 40" fill="none" xmlns="http://www.w3.org/2000/svg">
<g id="fi_4726010" clip-path="url(#clip0_1799_64067)">
<g id="Group">
<g id="Vrstva_x0020_1_15_">
<path id="Vector" fill-rule="evenodd" clip-rule="evenodd" d="M10.2494 -0.00146484H23.6227L34.957 11.8126V34.7912C34.957 37.6697 32.6282 39.9985 29.7596 39.9985H10.2494C7.37082 39.9985 5.04199 37.6697 5.04199 34.7912V5.20591C5.04194 2.32736 7.37077 -0.00146484 10.2494 -0.00146484Z" fill="#E5252A"/>
<g id="Group_2">
<path id="Vector_2" opacity="0.302" fill-rule="evenodd" clip-rule="evenodd" d="M23.6113 -0.00146484V11.7227H34.9557L23.6113 -0.00146484Z" fill="white"/>
<path id="Vector_3" d="M10.8281 29.8439V22.5376H13.9366C14.7062 22.5376 15.3159 22.7475 15.7757 23.1773C16.2354 23.5971 16.4653 24.1668 16.4653 24.8764C16.4653 25.5861 16.2354 26.1558 15.7757 26.5756C15.3159 27.0054 14.7062 27.2153 13.9366 27.2153H12.6972V29.8439H10.8281ZM12.6972 25.6261H13.7267C14.0065 25.6261 14.2264 25.5661 14.3764 25.4262C14.5263 25.2963 14.6063 25.1163 14.6063 24.8765C14.6063 24.6366 14.5263 24.4567 14.3764 24.3268C14.2265 24.1868 14.0066 24.1269 13.7267 24.1269H12.6972V25.6261ZM17.2349 29.8439V22.5376H19.8236C20.3334 22.5376 20.8131 22.6075 21.2629 22.7575C21.7126 22.9074 22.1225 23.1173 22.4823 23.4072C22.8421 23.687 23.132 24.0668 23.3419 24.5466C23.5417 25.0264 23.6517 25.5761 23.6517 26.1958C23.6517 26.8055 23.5418 27.3552 23.3419 27.8349C23.132 28.3147 22.8421 28.6945 22.4823 28.9744C22.1224 29.2642 21.7126 29.4741 21.2629 29.624C20.8131 29.7739 20.3334 29.8439 19.8236 29.8439H17.2349ZM19.064 28.2548H19.6037C19.8936 28.2548 20.1634 28.2248 20.4133 28.1548C20.6532 28.0849 20.8831 27.9749 21.103 27.825C21.3129 27.6751 21.4828 27.4651 21.6027 27.1853C21.7227 26.9055 21.7826 26.5756 21.7826 26.1958C21.7826 25.806 21.7227 25.4761 21.6027 25.1963C21.4828 24.9165 21.3129 24.7066 21.103 24.5566C20.8831 24.4067 20.6532 24.2967 20.4133 24.2268C20.1634 24.1568 19.8936 24.1268 19.6037 24.1268H19.064V28.2548ZM24.5913 29.8439V22.5376H29.7887V24.1268H26.4603V25.2962H29.119V26.8754H26.4603V29.8439H24.5913Z" fill="white"/>
</g>
</g>
</g>
</g>
<defs>
<clipPath id="clip0_1799_64067">
<rect width="40" height="40" fill="white"/>
</clipPath>
</defs>
</svg>
