<svg width="20" height="20" viewBox="0 0 20 20" fill="none" xmlns="http://www.w3.org/2000/svg">
<g id="arrow_insert">
<mask id="mask0_1799_64078" style="mask-type:alpha" maskUnits="userSpaceOnUse" x="0" y="0" width="20" height="20">
<rect id="Bounding box" width="20" height="20" transform="matrix(-1 0 0 1 20 0)" fill="#D9D9D9"/>
</mask>
<g mask="url(#mask0_1799_64078)">
<path id="arrow_insert_2" d="M13.3333 6.99959V13.3329C13.3333 13.569 13.4132 13.767 13.5729 13.9267C13.7326 14.0864 13.9306 14.1663 14.1667 14.1663C14.4028 14.1663 14.6007 14.0864 14.7604 13.9267C14.9201 13.767 15 13.569 15 13.3329V4.99959C15 4.76348 14.9201 4.56557 14.7604 4.40584C14.6007 4.24612 14.4028 4.16626 14.1667 4.16626H5.83333C5.59722 4.16626 5.3993 4.24612 5.23958 4.40584C5.07986 4.56557 5 4.76348 5 4.99959C5 5.2357 5.07986 5.43362 5.23958 5.59334C5.3993 5.75307 5.59722 5.83293 5.83333 5.83293H12.1667L4.75 13.2496C4.59722 13.4024 4.52083 13.5968 4.52083 13.8329C4.52083 14.069 4.59722 14.2635 4.75 14.4163C4.90278 14.569 5.09722 14.6454 5.33333 14.6454C5.56944 14.6454 5.76389 14.569 5.91667 14.4163L13.3333 6.99959Z" fill="#04AF55"/>
</g>
</g>
</svg>
