<svg width="16" height="16" viewBox="0 0 16 16" fill="none" xmlns="http://www.w3.org/2000/svg">
<path d="M8.76957 14.974C8.50805 14.974 8.33371 14.8868 8.15936 14.7125L2.92899 9.48213C2.66747 9.22061 2.5803 8.87192 2.75465 8.52323C2.84182 8.17454 3.19051 8.00019 3.5392 8.00019H6.15439C6.85177 8.00019 7.54915 7.73868 7.98502 7.21564C8.50805 6.77978 8.76957 6.08239 8.76957 5.38501C8.76957 4.68763 8.50805 3.99024 7.98502 3.55438C7.54915 3.03134 6.85177 2.76982 6.15439 2.76982H3.5392C3.01616 2.76982 2.66747 2.42113 2.66747 1.8981C2.66747 1.37506 3.01616 1.02637 3.5392 1.02637H13.1282C13.6513 1.02637 13.9999 1.37506 13.9999 1.8981C13.9999 2.42113 13.6513 2.76982 13.1282 2.76982H9.6413C10.1643 3.55438 10.513 4.42611 10.513 5.38501C10.513 6.51826 10.0772 7.6515 9.20544 8.43606C8.42088 9.30779 7.28763 9.74365 6.15439 9.74365H5.63135L9.37978 13.4921C9.72847 13.8408 9.72847 14.3638 9.37978 14.7125C9.20544 14.8868 9.03109 14.974 8.76957 14.974Z" fill="#616C82"/>
<path d="M13.1282 6.2573H3.53921C3.01617 6.2573 2.66748 5.90861 2.66748 5.38557C2.66748 4.86253 3.01617 4.51384 3.53921 4.51384H13.1282C13.6513 4.51384 14 4.86253 14 5.38557C14 5.90861 13.6513 6.2573 13.1282 6.2573Z" fill="#616C82"/>
</svg>
